<?xml version="1.0" encoding="UTF-8"?>
<svg viewBox="0 0 88 60" version="1.1" xmlns="http://www.w3.org/2000/svg" xmlns:xlink="http://www.w3.org/1999/xlink">
    <!-- Generator: sketchtool 56.3 (101010) - https://sketch.com -->
    <title>44081D9A-0C24-42CD-9FB4-153A88E8D59A</title>
    <desc>Created with sketchtool.</desc>
    <path fill="#1c7396" shape-rendering="geometricPrecision" d="M36.8,30.3 C36.4,30.3 36.1,30.2 36,29.8 C35.7,29.4 35.9,28.8 36.4,28.5 L39.4,26.9 L39.4,23.4 C39.4,22.8 39.8,22.4 40.4,22.4 C41,22.4 41.4,22.8 41.4,23.4 L41.4,26.6 L44.5,27.4 C45,27.5 45.3,28.1 45.2,28.6 C45.1,29.1 44.6,29.4 44.2,29.4 C44.2,29.4 44.1,29.4 44,29.4 L40.5,28.5 L37.3,30.2 C37.1,30.3 37,30.3 36.8,30.3 Z M29.1,34.3 C28.7,34.3 28.4,34.2 28.3,33.8 C28,33.4 28.2,32.8 28.7,32.5 L32.5,30.5 C32.9,30.2 33.5,30.4 33.8,30.9 C34.1,31.3 33.9,31.9 33.4,32.2 L29.6,34.2 C29.4,34.3 29.3,34.3 29.1,34.3 Z M20.8,37.4 C20.7,37.3 20.7,37.3 20.8,37.2 L20.8,7.8 C20.8,7.70001 20.9,7.60001 20.9,7.50001 C20.9,7.40001 20.9,7.40001 20.9,7.40001 C20.9,7.30001 21,7.20001 21.1,7.10001 C21.1,7.00001 21.2,7.00001 21.2,7.00001 C21.3,7.00001 21.3,6.90001 21.4,6.90001 L40.2,0.3 C40.3,0.3 40.3,0.3 40.4,0.3 C40.5,0.3 40.5,0.3 40.6,0.3 L54.9,2.3 L58.3,2.8 L65.2,3.7 L69.2,4.2 L69.3,4.2 C69.4,4.3 69.5,4.3 69.5,4.3 C69.6,4.3 69.6,4.40001 69.7,4.40001 L69.8,4.50001 C69.89999,4.6 69.99999,4.7 69.99999,4.8 C69.99999,4.90001 69.99999,4.90001 69.99999,4.90001 C70.09999,5.1 70.09999,5.2 70.09999,5.3 L70.09999,9.3 L70.09999,16.40001 L70.09999,23.5 L70.09999,30.6 L70.09999,34.6 L70.09999,34.7 C70.09999,34.8 70.09999,34.8 70.09999,34.9 C70.09999,35 70.09999,35 70.09999,35 C69.99999,35 69.99999,35.1 69.99999,35.1 C69.99999,35.2 69.89999,35.3 69.89999,35.3 C69.89999,35.4 69.8,35.4 69.8,35.4 C69.8,35.5 69.7,35.5 69.7,35.5 C69.6,35.5 69.6,35.5 69.6,35.5 L51,45.2 L50.9,45.2 L50.8,45.2 C50.7,45.2 50.6,45.2 50.5,45.2 C50.5,45.2 50.4,45.2 50.3,45.2 L21.7,38.19999 C21.6,38.19999 21.5,38.19999 21.4,38.09999 C21.3,38 21.3,38 21.3,38 C21.2,38 21.1,38 21.1,37.9 C21,37.9 21,37.8 21,37.8 C20.9,37.8 20.9,37.7 20.9,37.7 C20.9,37.6 20.9,37.6 20.9,37.6 C20.8,37.6 20.8,37.5 20.8,37.4 Z M67.9,6.6 L51.30001,13.1 L51.30001,29.1 C51.40001,29.1 51.40001,29.1 51.40001,29.1 L58.30001,30.8 C58.80001,30.9 59.10001,31.5 59.00001,32 C58.90001,32.5 58.40001,32.8 58.00001,32.8 C58.00001,32.8 57.90001,32.8 57.80001,32.8 L51.30001,31.2 L51.30001,42.3 L66.10001,34.6 L64.8,34.3 C64.3,34.2 64.00001,33.6 64.10001,33.1 C64.2,32.6 64.8,32.3 65.3,32.4 L67.9,33.1 L67.9,30.4 L67.9,23.3 L67.9,16.2 L67.9,9.1 L67.9,6.6 Z M39.3,2.7 L25.7,7.4 L50.2,11.4 L65,5.6 L44.1,2.8 L41.9,2.5 L41.3,2.4 L41.3,5.3 C41.3,5.9 40.9,6.3 40.3,6.3 C39.7,6.3 39.3,5.9 39.3,5.3 L39.3,2.7 Z M22.7,9 C22.7,9 22.7,35.7 22.7,35.6 L24.80001,34.5 C25.2,34.2 25.80001,34.40001 26.10001,34.90001 C26.40001,35.3 26.2,35.90001 25.7,36.2 L24.5,36.8 L49.3,42.9 L49.3,13.3 L41.3,12 L41.3,17.4 C41.3,18 40.9,18.4 40.3,18.4 C39.7,18.4 39.3,18 39.3,17.4 L39.3,11.7 L22.7,9 Z M73.5,21.9 C82.6,25.5 87.5,30.5 87.5,36 C87.5,45.5 71.89999,53.4 50.4,54.8 C50.3,54.8 50.3,54.8 50.3,54.8 C49.8,54.8 49.3,54.4 49.3,53.9 C49.2,53.3 49.6,52.8 50.2,52.8 C70.3,51.6 85.5,44.3 85.5,36 C85.5,31.5 80.9,27 72.8,23.8 C72.2,23.6 72,23 72.2,22.5 C72.4,21.9 73,21.7 73.5,21.9 Z M34.5,48.2 L40.2,52.99999 C40.5,53.2 40.6,53.49999 40.6,53.8 C40.6,54.1 40.4,54.4 40.2,54.6 L34.5,59.4 C34.4,59.5 34.1,59.6 33.9,59.6 C33.6,59.6 33.3,59.39999 33.1,59.2 C32.7,58.8 32.8,58.2 33.2,57.8 L36.9,54.7 C15.7,53.2 0.5,45.4 0.5,35.9 C0.5,30.2 6.3,24.8 16.6,21 C17.1,20.8 17.7,21.1 17.9,21.6 C18.1,22.1 17.8,22.7 17.3,22.9 C7.9,26.2 2.5,31 2.5,35.9 C2.5,44.1 17.4,51.3 36.7,52.7 L33.2,49.7 C32.8,49.39999 32.7,48.7 33.1,48.3 C33.4,47.89999 34.1,47.8 34.5,48.2 Z" id="path-1"></path>
</svg>