<?xml version="1.0" encoding="UTF-8"?>
<svg width="177px" height="29px" viewBox="0 0 177 29" version="1.1" xmlns="http://www.w3.org/2000/svg" xmlns:xlink="http://www.w3.org/1999/xlink">
    <title>logos/toyota</title>
    <g id="Element-Sheet-" stroke="none" stroke-width="1" fill="none" fill-rule="evenodd">
        <g id="Element-Sheet---Saritasa-Web-2019" transform="translate(-3044.000000, -554.000000)" fill="#FFFFFF">
            <path d="M3066.25843,554 C3078.55068,554 3088.51685,560.491886 3088.51685,568.499536 C3088.51685,576.507186 3078.55068,583 3066.25843,583 C3053.96524,583 3044,576.507186 3044,568.499536 C3044,560.491886 3053.96524,554 3066.25843,554 Z M3049.51541,561.250232 L3049.49685,561.289217 C3047.90776,563.263515 3047.00182,565.545978 3047.00182,567.976955 C3047.00182,575.133438 3054.85725,580.997856 3064.82156,581.515796 L3064.86333,581.524149 C3062.52889,580.062222 3060.80985,575.017412 3060.80985,569.022117 L3060.81101,568.693995 L3060.81101,568.693995 L3060.816,568.372 L3060.45941,568.313831 C3054.15417,567.247655 3049.63384,564.495281 3049.51541,561.250232 Z M3083.00051,561.250232 C3082.88299,564.495281 3078.36268,567.247655 3072.05656,568.313831 L3071.7,568.371 L3071.70596,568.693995 C3071.70724,568.802828 3071.70793,568.912124 3071.70793,569.022117 C3071.70793,575.017412 3069.98704,580.062222 3067.65352,581.524149 L3067.69529,581.515796 C3077.6596,580.997856 3085.51596,575.133438 3085.51596,567.976955 C3085.51596,565.545978 3084.60817,563.263515 3083.02,561.289217 L3083.00051,561.250232 Z M3168.66018,557.417662 C3174.78171,557.417662 3179.74391,562.378933 3179.74391,568.499536 C3179.74391,574.621067 3174.78171,579.58141 3168.66018,579.58141 C3162.53958,579.58141 3157.57738,574.621067 3157.57738,568.499536 C3157.57738,562.378933 3162.53958,557.417662 3168.66018,557.417662 Z M3125.03534,557.417662 C3131.15594,557.417662 3136.11814,562.378933 3136.11814,568.499536 C3136.11814,574.621067 3131.15594,579.58141 3125.03534,579.58141 C3118.9138,579.58141 3113.95161,574.621067 3113.95161,568.499536 C3113.95161,562.378933 3118.9138,557.417662 3125.03534,557.417662 Z M3198.83158,558.181577 L3198.83158,562.034568 L3192.31834,562.034568 L3192.31834,579.07925 L3187.64853,579.07925 L3187.64853,562.034568 L3181.13437,562.034568 L3181.13437,558.181577 L3198.83158,558.181577 Z M3211.66498,558.181577 L3220.28618,579.07925 L3214.83295,579.07925 L3213.04151,574.381589 L3213.03687,574.376948 L3204.48065,574.376948 L3204.47601,574.381589 L3202.6855,579.07925 L3197.23135,579.07925 L3205.85347,558.181577 L3211.66498,558.181577 Z M3112.757,558.181577 L3112.757,562.034568 L3106.24284,562.034568 L3106.24284,579.07925 L3101.57302,579.07925 L3101.57302,562.034568 L3095.05886,562.034568 L3095.05886,558.181577 L3112.757,558.181577 Z M3141.7867,558.181577 L3146.84729,566.965208 L3151.90881,558.181577 L3157.36203,558.181577 L3149.21515,571.144 L3149.21515,579.07925 L3144.47944,579.07925 L3144.47944,571.144 L3136.33348,558.181577 L3141.7867,558.181577 Z M3069.579,568.635 L3069.58976,568.634126 C3068.51304,568.733444 3067.39919,568.785424 3066.25843,568.785424 C3065.34581,568.785424 3064.45043,568.752157 3063.57749,568.687999 L3062.937,568.635 L3062.94447,568.939871 C3063.07927,573.457156 3064.51133,577.012131 3066.25843,577.012131 C3068.00552,577.012131 3069.43758,573.457156 3069.57238,568.939871 L3069.579,568.635 Z M3168.66018,561.481356 C3165.24252,561.481356 3162.47275,564.624268 3162.47275,568.499536 C3162.47275,572.375732 3165.24252,575.517716 3168.66018,575.517716 C3172.07784,575.517716 3174.84854,572.375732 3174.84854,568.499536 C3174.84854,564.624268 3172.07784,561.481356 3168.66018,561.481356 Z M3125.03534,561.481356 C3121.61767,561.481356 3118.84697,564.624268 3118.84697,568.499536 C3118.84697,572.375732 3121.61767,575.517716 3125.03534,575.517716 C3128.45207,575.517716 3131.22277,572.375732 3131.22277,568.499536 C3131.22277,564.624268 3128.45207,561.481356 3125.03534,561.481356 Z M3208.78011,563.202253 L3208.73927,563.202253 L3205.821,570.849 L3211.695,570.849 L3208.78011,563.202253 Z M3066.25843,559.465288 C3064.9038,559.465288 3063.73858,561.601915 3063.22064,564.667419 L3063.173,564.955 L3063.77104,565.002947 C3064.57636,565.059263 3065.40819,565.088372 3066.25843,565.088372 C3067.10866,565.088372 3067.94049,565.059263 3068.74534,565.002947 L3069.342,564.955 L3069.29613,564.667419 C3068.7774,561.601915 3067.61305,559.465288 3066.25843,559.465288 Z M3066.25843,555.715328 C3059.08338,555.715328 3053.2663,557.813078 3053.2663,560.40185 C3053.2663,562.330666 3056.49832,563.988445 3061.11615,564.707807 L3061.11894,564.715232 C3061.86707,559.691771 3063.88593,556.092181 3066.25843,556.092181 C3068.63185,556.092181 3070.65071,559.691771 3071.39791,564.715232 L3071.4007,564.707807 C3076.0176,563.988445 3079.25055,562.330666 3079.25055,560.40185 C3079.25055,557.813078 3073.43254,555.715328 3066.25843,555.715328 Z" id="logos/toyota"></path>
        </g>
    </g>
</svg>