<?xml version="1.0" encoding="UTF-8"?>
<svg width="193px" height="26px" viewBox="0 0 193 26" version="1.1" xmlns="http://www.w3.org/2000/svg" xmlns:xlink="http://www.w3.org/1999/xlink">
    <title>logos/iheartmedia</title>
    <g id="Element-Sheet-" stroke="none" stroke-width="1" fill="none" fill-rule="evenodd">
        <g id="Element-Sheet---Saritasa-Web-2019" transform="translate(-2751.000000, -556.000000)" fill="#FFFFFF">
            <path d="M2776.61758,556 C2781.82128,556 2786.12408,560.302802 2786.02416,565.606437 C2786.02416,568.908717 2783.92256,571.410641 2781.72104,573.612161 L2781.72104,573.612161 L2773.0152,581.817743 C2772.51463,582.218076 2771.8142,581.917672 2771.8142,581.317482 L2771.8142,581.317482 L2771.8142,574.913088 C2771.8142,573.011662 2770.31311,571.51057 2768.51192,571.51057 C2766.71074,571.610807 2765.20964,573.111591 2765.20964,574.913088 L2765.20964,574.913088 L2765.20964,581.317482 C2765.20964,581.917672 2764.50922,582.218076 2764.00895,581.817743 L2764.00895,581.817743 L2755.3028,573.612161 C2753.10128,571.410641 2751,569.008955 2751,565.606437 C2751,560.302802 2755.3028,556 2760.60644,556 C2763.90872,556 2766.9109,557.70095 2768.61216,560.302802 C2770.31311,557.801188 2773.3153,556 2776.61758,556 Z M2835.85864,565.706458 C2840.16175,565.706458 2843.16363,568.508477 2843.16363,572.711351 C2843.16363,572.811589 2843.16363,572.911517 2843.0637,572.911517 L2843.0637,572.911517 L2843.0637,579.716244 L2838.56042,579.716244 L2838.56042,578.415318 C2837.65983,579.315912 2836.3589,580.016648 2834.55771,580.016648 C2831.35567,580.016648 2829.45425,578.615484 2829.45425,575.913703 C2829.45425,573.111684 2831.4556,571.710829 2835.35838,571.610591 L2835.35838,571.610591 L2838.46049,571.610591 L2838.46049,571.510662 C2838.06016,570.00957 2837.05964,569.309142 2835.55855,569.309142 C2834.45779,569.309142 2833.55719,569.709475 2832.55636,570.709997 L2832.55636,570.709997 L2829.95451,568.508477 C2831.25543,566.807218 2833.15686,565.706458 2835.85864,565.706458 Z M2861.87674,562.604406 L2861.87674,566.006924 L2865.07878,566.006924 L2865.07878,569.809465 L2861.87674,569.809465 L2861.87674,574.412672 C2861.87674,575.413194 2862.27707,575.813527 2863.17766,575.813527 C2863.77816,575.813527 2864.37835,575.61336 2864.97885,575.413194 L2864.97885,579.115807 C2864.07826,579.616378 2862.9775,579.916472 2861.67657,579.916472 C2858.77462,579.816234 2857.07336,578.615546 2857.07336,575.313266 L2857.07336,569.809465 L2855.47234,569.809465 L2855.47234,566.006924 L2857.07336,566.006924 L2857.07336,562.604406 L2861.87674,562.604406 Z M2822.04921,565.706551 C2826.75234,565.706551 2828.85393,569.109069 2828.85393,573.111776 L2828.85393,574.112299 L2819.74745,574.112299 C2820.14778,575.613391 2821.24854,576.313819 2822.6494,576.313819 C2823.75016,576.313819 2824.65075,575.913796 2825.65158,574.912964 L2828.25343,577.114484 C2826.95251,578.815743 2825.05108,579.916503 2822.3493,579.916503 C2818.42828,579.916503 2815.37147,577.131794 2815.24834,573.067071 L2815.24448,572.811372 C2815.24448,568.808665 2818.04619,565.706551 2822.04921,565.706551 Z M2923.21939,562.204042 C2923.71965,562.204042 2924.21991,562.604375 2924.21991,563.204874 L2924.21991,578.715753 C2924.21991,579.216014 2923.81958,579.716275 2923.21939,579.716275 C2922.71882,579.716275 2922.21856,579.315942 2922.21856,578.715753 L2922.21856,563.204874 C2922.21856,562.704613 2922.61889,562.204042 2923.21939,562.204042 Z M2868.78136,562.204042 C2869.18169,562.204042 2869.4821,562.404209 2869.68226,562.704613 L2875.88649,572.010955 L2882.09072,562.704613 C2882.29088,562.404209 2882.59098,562.204042 2882.99131,562.204042 L2883.19148,562.204042 C2883.69174,562.204042 2884.19231,562.604375 2884.19231,563.204874 L2884.19231,578.715753 C2884.19231,579.216014 2883.79198,579.716275 2883.19148,579.716275 C2882.69122,579.716275 2882.19065,579.216014 2882.19065,578.715753 L2882.19065,565.806727 L2876.68685,573.91238 C2876.48699,574.212475 2876.18659,574.412641 2875.88649,574.412641 C2875.58609,574.412641 2875.28599,574.212475 2875.08583,573.91238 L2869.58203,565.806727 L2869.58203,578.715753 C2869.58203,579.216014 2869.18169,579.716275 2868.58119,579.716275 C2868.08093,579.716275 2867.6806,579.315942 2867.6806,578.715753 L2867.58067,563.204874 C2867.58067,562.704613 2867.981,562.204042 2868.5815,562.204042 L2868.78136,562.204042 Z M2935.42777,562.104021 C2936.02827,562.104021 2936.4283,562.404425 2936.62846,563.004615 L2943.63335,578.315327 C2943.73359,578.515494 2943.73359,578.615422 2943.73359,578.815589 C2943.73359,579.316159 2943.33326,579.716182 2942.833,579.716182 C2942.33243,579.716182 2942.03233,579.416087 2941.83217,579.015755 L2940.03098,575.013047 L2930.52416,575.013047 L2928.72297,579.015755 C2928.52281,579.416087 2928.22271,579.716182 2927.82238,579.716182 C2927.32212,579.716182 2926.92179,579.316159 2926.92179,578.815589 C2927.02203,578.615422 2927.02203,578.515494 2927.12195,578.315327 L2934.12685,563.004615 C2934.32701,562.504354 2934.72735,562.104021 2935.32754,562.104021 L2935.42777,562.104021 Z M2793.32918,567.007508 C2794.6301,567.007508 2795.83079,568.108268 2795.83079,569.509123 L2795.83079,569.509123 L2795.83079,579.61613 L2790.62739,579.61613 L2790.62739,569.509123 C2790.62739,568.108268 2791.72815,567.007508 2793.12901,567.007508 L2793.12901,567.007508 Z M2802.83568,562.004031 L2802.83568,568.608591 L2809.04022,568.608591 L2809.04022,562.004031 L2813.94352,562.004031 L2813.94352,579.616192 L2809.04022,579.616192 L2809.04022,572.911703 L2802.83568,572.911703 L2802.83568,579.616192 L2797.93238,579.616192 L2797.93238,562.004031 L2802.83568,562.004031 Z M2899.70285,562.304311 C2900.20342,562.304311 2900.60344,562.704644 2900.60344,563.204905 C2900.60344,563.705166 2900.20342,564.105499 2899.70285,564.105499 L2889.99617,564.105499 L2889.99617,570.009632 L2898.60209,570.009632 C2899.10266,570.009632 2899.50268,570.409964 2899.50268,570.910225 C2899.50268,571.410486 2899.10266,571.810819 2898.60209,571.810819 L2889.99617,571.810819 L2889.99617,577.814881 L2899.90302,577.814881 C2900.40328,577.814881 2900.80361,578.215213 2900.80361,578.715474 C2900.80361,579.216045 2900.40328,579.616378 2899.90302,579.616378 L2889.09558,579.616378 C2888.49508,579.616378 2887.99482,579.115807 2887.99482,578.615546 L2887.99482,563.304833 C2887.99482,562.804572 2888.39515,562.304311 2888.99565,562.304311 L2899.70285,562.304311 Z M2854.17123,565.706705 L2854.17123,570.709935 L2853.77121,570.709935 C2851.26928,570.709935 2849.86843,572.1111 2849.86843,575.313142 L2849.86843,579.516016 L2845.06505,579.516016 L2845.06505,566.0068 L2849.86843,566.0068 L2849.86843,568.708581 C2850.66909,566.807465 2851.86978,565.606468 2854.17123,565.706705 Z M2909.60969,562.304094 C2915.01356,562.304094 2918.8161,566.006707 2918.8161,570.910318 C2918.8161,575.81362 2915.11349,579.516233 2909.60969,579.516233 L2904.60646,579.516233 C2904.10589,579.516233 2903.60563,579.1159 2903.60563,578.515401 L2903.60563,563.304926 C2903.60563,562.804665 2904.00596,562.304094 2904.60646,562.304094 L2909.60969,562.304094 Z M2909.60969,564.20552 L2905.60698,564.20552 L2905.60698,577.814973 L2909.60969,577.814973 C2914.01273,577.814973 2916.71482,574.812788 2916.71482,571.010247 C2916.71482,567.207705 2913.9128,564.20552 2909.60969,564.20552 Z M2838.66066,574.012277 L2835.95888,574.012277 C2834.75788,574.012277 2834.05745,574.512848 2834.05745,575.313204 C2834.05745,576.113869 2834.85812,576.914225 2836.05881,576.814297 C2838.46049,576.714368 2838.66066,574.812943 2838.66066,574.112515 L2838.66066,574.112515 L2838.66066,574.012277 Z M2779.4196,559.102114 C2779.1195,558.901948 2778.71917,559.001876 2778.519,559.30228 C2778.31884,559.602375 2778.41876,560.002708 2778.71917,560.202874 C2780.12002,561.203396 2781.32102,563.304988 2781.32102,565.206104 C2781.32102,567.507862 2780.02009,569.809311 2777.41824,572.111069 C2777.11784,572.311235 2777.11784,572.711568 2777.318,573.011662 C2777.41824,573.111591 2777.61841,573.211829 2777.81857,573.211829 C2777.9185,573.211829 2778.11867,573.111591 2778.2186,573.011662 C2781.12085,570.40981 2782.52171,567.807957 2782.52171,565.106175 C2782.52171,562.804727 2781.12085,560.202874 2779.4196,559.102114 Z M2935.32754,564.405779 L2931.32483,573.21186 L2939.33055,573.21186 L2935.32754,564.405779 Z M2758.90549,559.102114 C2758.70532,558.80171 2758.30499,558.701781 2758.00458,558.901948 C2756.10347,560.102636 2754.7023,562.704489 2754.7023,565.006247 C2754.7023,567.708028 2756.10347,570.40981 2759.00542,572.911734 C2759.10534,573.011662 2759.20558,573.111591 2759.40575,573.111591 C2759.60591,573.111591 2759.80608,573.011662 2759.90601,572.911734 C2760.10618,572.711568 2760.10618,572.210997 2760.00625,571.910902 C2757.40439,569.609144 2756.10347,567.307696 2756.10347,565.006247 C2756.10347,563.104822 2757.20423,560.903301 2758.70532,560.002708 C2759.00542,559.802541 2759.10534,559.402209 2758.90549,559.102114 Z M2822.14913,569.208997 C2820.84821,569.208997 2819.94761,570.209829 2819.74745,571.610684 L2824.55082,571.610684 C2824.55082,570.109591 2823.45006,569.208997 2822.14913,569.208997 Z M2774.31613,560.603207 C2774.01572,560.502969 2773.61539,560.603207 2773.41553,560.903301 C2773.3153,561.203396 2773.41553,561.603729 2773.71563,561.803895 C2775.11648,562.504323 2775.91715,563.905487 2775.91715,565.40627 C2775.91715,567.107529 2774.81639,568.708551 2773.3153,569.609144 C2772.91496,569.809311 2772.81504,570.209643 2773.0152,570.510047 C2773.11513,570.709904 2773.41553,570.810142 2773.61539,570.810142 C2773.71563,570.810142 2773.81556,570.810142 2773.9158,570.709904 C2775.81691,569.609144 2777.11784,567.507862 2777.21808,565.306342 C2777.21808,563.304988 2776.11732,561.5038 2774.31613,560.603207 Z M2763.80879,561.00323 C2763.60862,560.703135 2763.20829,560.502969 2762.90819,560.703135 C2761.10701,561.603729 2760.00625,563.404916 2760.00625,565.40627 C2760.00625,567.507862 2761.30686,569.609144 2763.20829,570.709904 C2763.30853,570.810142 2763.40846,570.810142 2763.50838,570.810142 C2763.80879,570.810142 2764.00895,570.709904 2764.10888,570.510047 C2764.30905,570.109715 2764.20912,569.709382 2763.90872,569.709382 C2762.3077,568.808788 2761.30686,567.107529 2761.30686,565.506508 C2761.30686,564.005415 2762.20777,562.60456 2763.50838,561.903824 C2763.80879,561.703967 2764.00895,561.303634 2763.80879,561.00323 Z M2768.61216,563.004584 C2767.01083,563.004584 2765.71021,564.30551 2765.71021,565.906841 C2765.71021,567.507862 2767.01083,568.808788 2768.61216,568.808788 C2770.11325,568.808788 2771.41387,567.507862 2771.51411,565.906841 C2771.51411,564.30551 2770.21318,563.004584 2768.61216,563.004584 Z M2793.22912,560.803218 C2794.6108,560.803218 2795.73074,561.92316 2795.73074,563.304833 C2795.73074,564.686507 2794.6108,565.806758 2793.22912,565.806758 C2791.84745,565.806758 2790.72751,564.686507 2790.72751,563.304833 C2790.72751,561.92316 2791.84745,560.803218 2793.22912,560.803218 Z" id="logos/iheartmedia"></path>
        </g>
    </g>
</svg>