<?xml version="1.0" encoding="UTF-8"?>
<svg width="98px" height="66px" viewBox="0 0 98 66" version="1.1" xmlns="http://www.w3.org/2000/svg" xmlns:xlink="http://www.w3.org/1999/xlink">
    <title>logos/tv</title>
    <g id="Element-Sheet-" stroke="none" stroke-width="1" fill="none" fill-rule="evenodd">
        <g id="Element-Sheet---Saritasa-Web-2019" transform="translate(-3384.000000, -663.000000)" fill="#FFFFFE">
            <path d="M3441.2034,682.604677 L3450.31611,707.841551 L3461.70611,682.604677 L3481.95538,682.604677 L3458.92196,729 L3441.2034,729 L3428.04239,696.37019 L3414.37392,696.37019 L3414.37392,729 L3394.6315,729 L3394.6315,696.37019 L3384,696.37019 L3384,682.604677 L3441.2034,682.604677 Z M3401.2818,663 C3402.35124,663 3403.30865,663.291445 3404.22232,663.829684 L3404.22232,667.082648 C3403.55429,666.499154 3402.72989,666.005568 3401.81682,666.005568 C3400.79232,666.005568 3400.14646,666.633714 3400.14646,667.665539 C3400.14646,670.447243 3405.20249,670.604732 3405.20249,675.180967 C3405.20249,678.186535 3403.48719,680.452326 3400.36873,680.452326 C3399.4335,680.452326 3398.27539,680.160881 3397.51809,679.599713 L3397.51809,676.41433 C3398.29755,676.953172 3399.05425,677.311595 3400.03502,677.311595 C3401.10386,677.311595 3401.95043,676.593542 3401.95043,675.472412 C3401.95043,674.171468 3400.92592,673.677881 3399.99009,673.00448 C3398.07468,671.703535 3396.8944,670.447243 3396.8944,667.97931 C3396.8944,665.30984 3398.43116,663 3401.2818,663 Z M3415.77647,663 C3416.84531,663 3417.80332,663.291445 3418.71638,663.829684 L3418.71638,667.082648 C3418.04836,666.499154 3417.22396,666.005568 3416.31089,666.005568 C3415.28638,666.005568 3414.64053,666.633714 3414.64053,667.665539 C3414.64053,670.447243 3419.69655,670.604732 3419.69655,675.180967 C3419.69655,678.186535 3417.98126,680.452326 3414.8634,680.452326 C3413.92757,680.452326 3412.76945,680.160881 3412.01216,679.599713 L3412.01216,676.41433 C3412.79222,676.953172 3413.54952,677.311595 3414.52909,677.311595 C3415.59853,677.311595 3416.4445,676.593542 3416.4445,675.472412 C3416.4445,674.171468 3415.41999,673.677881 3414.48475,673.00448 C3412.56875,671.703535 3411.38847,670.447243 3411.38847,667.97931 C3411.38847,665.30984 3412.92583,663 3415.77647,663 Z M3462.33159,663 C3465.29427,663 3468.23479,665.377422 3468.23479,671.725861 C3468.23479,678.074301 3465.29427,680.452326 3462.33159,680.452326 C3459.36951,680.452326 3456.4296,678.074301 3456.4296,671.725861 C3456.4296,665.377422 3459.36951,663 3462.33159,663 Z M3391.9534,663.269119 L3395.98433,680.182604 L3392.44289,680.182604 L3391.8198,677.333922 L3388.4563,677.333922 L3387.85418,680.182604 L3384.55839,680.182604 L3388.4563,663.269119 L3391.9534,663.269119 Z M3428.29342,663.269119 L3428.29342,666.40985 L3424.92992,666.40985 L3424.92992,670.088216 L3427.89201,670.088216 L3427.89201,673.228947 L3424.92992,673.228947 L3424.92992,677.042476 L3428.33776,677.042476 L3428.33776,680.182604 L3421.61136,680.182604 L3421.61136,663.269119 L3428.29342,663.269119 Z M3437.52716,663.269119 L3437.52716,666.40985 L3434.16366,666.40985 L3434.16366,670.088216 L3437.12574,670.088216 L3437.12574,673.228947 L3434.16366,673.228947 L3434.16366,677.042476 L3437.57149,677.042476 L3437.57149,680.182604 L3430.8451,680.182604 L3430.8451,663.269119 L3437.52716,663.269119 Z M3443.01096,663.269119 L3447.15392,673.47574 L3447.19826,673.431088 C3446.99815,672.623127 3446.93105,671.748187 3446.93105,670.873851 L3446.93105,663.269119 L3450.25021,663.269119 L3450.25021,680.182604 L3447.10959,680.182604 L3443.01096,669.976586 L3442.96663,670.021238 L3443.1224,671.725861 L3443.14457,672.421589 L3443.14457,680.182604 L3439.82601,680.182604 L3439.82601,663.269119 L3443.01096,663.269119 Z M3473.17458,663.269119 L3477.31754,673.47574 L3477.36188,673.431088 C3477.16177,672.623127 3477.09467,671.748187 3477.09467,670.873851 L3477.09467,663.269119 L3480.41383,663.269119 L3480.41383,680.182604 L3477.27321,680.182604 L3473.17458,669.976586 L3473.13025,670.021238 L3473.28602,671.725861 L3473.30819,672.421589 L3473.30819,680.182604 L3469.98963,680.182604 L3469.98963,663.269119 L3473.17458,663.269119 Z M3462.33159,666.095475 C3460.18483,666.095475 3459.98008,670.008408 3459.9708,671.601868 L3459.97044,671.725861 C3459.97044,673.072061 3460.12681,677.356248 3462.33159,677.356248 C3464.47894,677.356248 3464.68313,673.294578 3464.69239,671.838113 L3464.69275,671.725861 C3464.69275,670.222776 3464.53698,666.095475 3462.33159,666.095475 Z M3390.1045,667.620887 L3390.06016,667.620887 L3389.70368,670.178124 L3388.99072,674.686777 L3391.32971,674.686777 L3390.48315,670.178124 L3390.1045,667.620887 Z" id="logos/tv"></path>
        </g>
    </g>
</svg>