<?xml version="1.0" encoding="UTF-8"?>
<svg width="167px" height="80px" viewBox="0 0 167 80" version="1.1" xmlns="http://www.w3.org/2000/svg" xmlns:xlink="http://www.w3.org/1999/xlink">
    <title>logos/cheesecakefactory</title>
    <g id="Element-Sheet-" stroke="none" stroke-width="1" fill="none" fill-rule="evenodd">
        <g id="Element-Sheet---Saritasa-Web-2019" transform="translate(-3049.000000, -656.000000)" fill="#FFFFFF" fill-rule="nonzero">
            <path d="M3088.8361,659.974719 C3089.22312,659.157352 3089.65314,658.296966 3090.55619,656.920349 C3090.6852,656.920349 3091.11523,656.619214 3091.41624,657.264504 C3095.75949,657.307523 3097.90962,657.307523 3099.58671,657.264504 C3099.88773,657.264504 3100.23175,657.049407 3100.36076,656.920349 C3100.48977,656.834311 3100.87679,656.748272 3101.0058,657.135446 C3101.0918,657.522619 3099.80173,659.845661 3099.71572,660.318873 C3099.07068,661.437374 3098.89867,660.103776 3098.51165,659.28641 C3098.12463,658.469044 3096.57654,658.641121 3096.44753,659.415468 C3096.31853,660.232834 3096.40453,666.255534 3096.57654,667.158939 C3096.61954,667.460074 3096.70555,667.933286 3097.26458,668.191402 C3097.95262,668.492537 3097.95262,669.266884 3097.17858,669.266884 C3096.70555,669.266884 3095.8455,669.309903 3095.11446,669.309903 C3094.38341,669.309903 3093.60937,669.309903 3092.92133,669.309903 C3092.4483,669.309903 3092.23329,668.535556 3092.79232,668.234421 C3093.17935,668.062344 3093.39436,667.632151 3093.39436,667.201958 C3093.48036,664.534763 3093.43736,660.792085 3093.17935,659.28641 C3093.00734,658.469044 3091.88927,658.68414 3091.07222,659.200371 C3090.34118,659.673584 3089.78215,660.404911 3089.61014,660.576989 C3089.35213,660.878124 3088.23406,661.265297 3088.8361,659.974719 Z M3101.65083,660.060757 C3101.73684,660.964162 3101.65083,666.986862 3101.65083,667.589132 C3101.65083,668.148383 3101.0488,668.191402 3100.96279,668.492537 C3100.83379,668.879711 3100.91979,669.180846 3101.52182,669.180846 L3104.74701,669.180846 C3105.47805,669.180846 3105.22004,668.449518 3104.575,668.062344 C3104.40299,667.976306 3104.23098,667.589132 3104.23098,667.244978 C3104.23098,665.825341 3104.23098,663.932493 3104.27398,663.674377 C3104.70401,662.90003 3105.34904,662.813991 3105.86507,663.330223 C3106.68212,664.233628 3107.54217,666.341573 3107.54217,668.363479 C3107.54217,669.525 3107.67118,670.342366 3106.89713,671.374829 C3106.63912,671.675964 3105.82207,672.53635 3107.24115,672.063138 C3109.04726,671.116713 3109.13326,669.611038 3109.34827,668.148383 C3109.60629,666.384592 3109.30527,664.620801 3108.57423,663.158146 C3107.9722,661.996625 3107.62818,661.351336 3106.46711,661.179258 C3105.69306,661.050201 3105.13403,661.69549 3104.23098,662.168702 C3104.23098,660.017738 3104.18798,658.296966 3104.18798,657.694696 C3104.18798,656.963369 3103.92996,656.963369 3103.45694,657.307523 C3103.06991,657.565639 3102.16686,658.038851 3101.0488,658.813198 C3100.53277,659.759622 3101.56483,659.587545 3101.65083,660.060757 Z M3109.69229,665.825341 C3109.47728,663.5023 3111.15438,660.964162 3114.59458,661.394355 C3116.91671,661.69549 3117.51874,664.147589 3117.60475,664.448724 C3114.89559,665.610245 3112.87448,666.126476 3112.57346,666.212515 C3112.61646,666.470631 3113.08949,667.847248 3114.25056,668.234421 C3114.89559,668.449518 3116.05666,668.406498 3117.21773,667.460074 C3117.69075,667.072901 3118.33579,667.201958 3117.64775,668.105363 C3117.64775,668.105363 3116.40068,669.438961 3114.42257,669.48198 C3111.41239,669.568019 3109.8643,667.804228 3109.69229,665.825341 Z M3112.35845,665.094013 C3113.47651,665.050994 3114.12155,664.577782 3115.11061,664.190608 C3114.63758,662.727953 3113.94954,662.211721 3112.96048,662.383798 C3111.97142,662.598895 3111.71341,664.70684 3112.35845,665.094013 Z M3181.07639,666.083457 C3181.59242,666.341573 3182.75349,666.384592 3182.8395,667.287997 C3182.8395,679.075281 3182.79649,684.495711 3182.79649,685.485155 C3182.79649,686.775733 3180.90438,686.732714 3180.90438,687.593099 C3180.90438,688.281408 3181.03339,688.883678 3181.93644,688.883678 C3182.8825,688.883678 3187.44076,688.926697 3188.47282,688.926697 C3189.03185,688.926697 3189.63389,688.281408 3189.46188,687.722157 C3189.33287,687.248945 3188.47282,686.818752 3188.2148,686.732714 C3187.69877,686.560637 3187.48376,685.657232 3187.44076,685.18402 C3187.39776,684.753827 3187.44076,683.37721 3187.44076,682.860978 C3187.44076,682.344747 3188.68783,680.96813 3189.37587,680.96813 C3189.50488,680.96813 3189.8919,681.312284 3190.14991,681.785496 C3191.22498,683.678345 3193.2891,688.969717 3193.80512,688.969717 C3194.66517,688.969717 3197.71835,688.969717 3198.44939,688.969717 C3199.39545,688.969717 3200.16949,687.808196 3198.92242,687.033849 C3198.6214,686.861772 3198.01937,686.603656 3197.54634,686.173463 C3197.03031,685.700251 3196.64329,684.968923 3196.08426,683.764383 C3194.75118,681.097187 3193.89113,679.634532 3193.46111,678.645088 C3193.20309,678.085837 3193.03108,677.655645 3193.03108,677.35451 C3193.11709,676.75224 3194.70818,675.50468 3195.78324,675.375623 C3197.54634,675.117507 3197.03031,673.396735 3195.78324,673.396735 C3192.81607,673.439755 3191.612,673.353716 3190.57994,673.396735 C3188.73083,673.439755 3189.41887,674.816372 3189.37587,674.687314 C3189.46188,674.90241 3190.66594,675.160526 3190.62294,675.676758 C3190.57994,676.322047 3189.97791,677.096394 3189.63389,677.440548 C3189.20386,677.870741 3188.90284,678.386972 3188.1718,678.989242 C3187.87078,679.247358 3187.65577,678.989242 3187.65577,678.774146 C3187.52676,671.589925 3187.74178,664.233628 3187.74178,662.340779 C3187.74178,660.921143 3186.53771,661.652471 3185.93567,661.953606 C3185.11863,662.383798 3181.67843,664.233628 3180.99039,664.663821 C3180.47436,664.921936 3180.60337,665.825341 3181.07639,666.083457 Z M3116.95971,673.0956 C3115.66964,673.13862 3113.39051,673.396735 3112.40145,675.805815 C3111.84242,677.182433 3112.27244,678.55905 3112.44445,679.075281 C3113.47651,681.613419 3117.17472,682.12965 3119.10983,682.817959 C3121.60398,683.721364 3122.63604,684.022499 3122.46403,685.141 C3122.33502,686.130444 3121.13095,687.162907 3117.30373,686.388559 C3115.75564,686.087424 3113.90654,684.753827 3112.70247,683.549287 C3112.27244,683.119094 3111.4554,683.463248 3111.71341,684.409672 C3111.97142,685.356097 3114.29356,689.141794 3114.50857,689.528967 C3114.76659,689.95916 3115.45462,690.174257 3115.71264,689.658025 C3115.97065,689.227832 3116.09966,688.75462 3116.65869,688.668582 C3117.30373,688.539524 3118.5078,688.797639 3120.14189,689.012736 C3122.29202,689.227832 3124.39914,688.926697 3125.73222,687.894234 C3127.06529,686.861772 3127.62432,685.097981 3127.40931,683.592306 C3127.06529,680.96813 3125.04418,679.76359 3122.12001,679.032262 C3120.14189,678.51603 3118.07778,677.999799 3117.34673,677.526587 C3116.61569,677.010355 3116.44368,676.279028 3117.04572,675.590719 C3117.86276,674.730333 3119.79787,675.031468 3120.74393,675.289584 C3122.034,675.590719 3123.15207,676.14997 3124.57115,677.35451 C3125.3882,678.042818 3125.81822,677.95678 3126.03323,677.784702 C3126.67827,677.225452 3125.4742,676.192989 3124.70016,674.730333 C3123.7541,672.966543 3123.45308,672.364273 3122.85105,672.53635 C3122.33502,672.708427 3121.77599,673.654851 3121.34596,673.611832 C3120.2279,673.525793 3119.62586,673.052581 3116.95971,673.0956 Z M3153.16779,689.35689 C3158.88712,689.055755 3160.17719,686.001386 3160.73623,685.011942 C3161.08025,684.366653 3159.96218,683.463248 3159.23114,684.452692 C3157.46804,686.861772 3155.0169,687.205926 3153.59782,686.732714 C3151.14667,686.001386 3150.24362,684.065518 3149.8996,681.054168 C3149.59859,678.386972 3150.50164,674.94543 3153.42581,675.031468 C3156.56499,675.117507 3156.69399,678.688107 3157.08102,679.376416 C3157.46804,680.107744 3158.07007,680.064725 3158.5001,679.16132 C3158.88712,678.300934 3159.27414,677.053375 3159.83317,676.10695 C3160.3492,675.203545 3159.87618,674.773353 3159.18814,674.386179 C3157.72605,673.611832 3156.26397,673.009562 3153.51181,673.009562 C3149.94261,673.052581 3144.82531,675.160526 3144.6963,681.226245 C3144.52429,687.378003 3149.42658,689.227832 3153.16779,689.35689 Z M3084.79386,683.205132 C3085.18089,684.323634 3086.47096,685.915347 3088.06205,686.388559 C3090.29818,687.033849 3092.53431,685.829309 3093.95339,684.753827 C3094.68443,684.151557 3095.50148,684.710807 3094.89944,685.872328 C3094.46942,686.646675 3092.14729,688.797639 3087.80404,689.055755 C3081.39667,689.35689 3078.4295,684.323634 3079.03153,679.935667 C3079.46156,676.75224 3082.21372,673.482774 3085.95493,673.13862 C3089.69615,672.837485 3091.11523,673.869948 3092.19029,674.773353 C3093.43736,675.848835 3094.98545,678.645088 3094.42642,679.290377 C3093.82438,679.935667 3087.89004,681.398322 3085.61091,682.344747 C3085.13788,682.473805 3084.57885,682.602862 3084.79386,683.205132 Z M3089.30912,679.032262 C3089.69615,678.386972 3088.53508,674.687314 3085.73992,675.074488 C3084.75086,675.203545 3084.01982,676.020912 3083.7188,677.182433 C3083.37478,678.688107 3083.7618,680.710014 3084.23483,680.96813 C3084.70786,681.097187 3089.00811,679.548493 3089.30912,679.032262 Z M3161.38126,684.452692 C3161.68228,682.043612 3162.84335,680.882091 3164.99347,679.935667 C3166.32655,679.333397 3169.16471,679.16132 3170.19677,679.16132 C3170.6698,679.16132 3170.32578,678.386972 3170.28277,678.171876 C3169.63774,675.461661 3167.53062,675.332603 3165.76751,675.934873 C3164.73546,676.322047 3163.7894,677.053375 3163.53139,677.225452 C3162.75734,677.612625 3162.0693,676.70922 3162.75734,675.848835 C3164.99347,673.13862 3166.92858,673.0956 3169.0357,673.052581 C3170.28277,673.009562 3173.16394,673.310697 3174.41101,676.537143 C3175.65808,679.72057 3176.99116,684.366653 3177.55019,685.356097 C3178.10922,686.34554 3178.96927,686.775733 3179.4853,686.302521 C3179.95833,685.872328 3180.25935,686.517617 3180.25935,687.076868 C3180.25935,687.765177 3179.70031,688.668582 3178.15223,689.055755 C3176.69014,689.399909 3174.71203,688.840659 3174.196,688.410466 C3173.72297,688.023292 3173.46496,687.464042 3173.07793,687.464042 C3172.00287,687.55008 3170.92781,689.055755 3167.48761,689.227832 C3163.18737,689.442929 3161.08025,686.732714 3161.38126,684.452692 Z M3166.36955,684.366653 C3166.79957,685.829309 3167.74563,687.162907 3170.41178,686.603656 C3173.07793,686.044405 3171.78786,682.903997 3171.48684,682.258708 C3171.22883,681.613419 3170.92781,681.226245 3170.32578,681.140207 C3169.68074,681.097187 3168.77769,681.054168 3167.87464,681.441342 C3167.01459,681.828515 3166.02553,683.033055 3166.36955,684.366653 Z M3116.87371,711.081629 C3116.52969,710.006147 3116.09966,708.543491 3115.88465,707.640086 C3115.23961,704.886852 3114.9386,703.166081 3112.31544,705.446103 C3112.31544,705.446103 3112.14343,705.747238 3111.84242,705.747238 C3111.5414,705.747238 3106.12309,705.876296 3105.77907,705.532141 C3105.43505,705.187987 3105.52105,702.219656 3105.60706,700.757001 C3105.69306,699.294345 3104.83301,697.143381 3109.7783,696.928284 C3113.08949,696.756207 3117.34673,696.412053 3120.78693,696.713188 C3124.01212,696.971304 3126.59226,697.487535 3128.31236,698.304901 C3130.07546,699.122268 3131.27953,698.433959 3131.79556,698.132824 C3131.96757,698.046786 3132.65561,697.358477 3132.4406,696.282995 C3132.22559,695.207513 3132.13958,693.830896 3131.19353,692.841452 C3130.41948,692.024086 3128.22636,691.852009 3126.76427,691.636912 C3122.12001,690.991623 3114.25056,691.852009 3107.92919,692.884472 C3109.8643,692.583337 3098.98468,694.906378 3094.46942,694.347127 C3092.23329,694.089012 3090.77121,693.744857 3089.82515,693.443722 C3089.65314,693.099568 3089.22312,692.884472 3088.8361,693.056549 C3088.36307,692.798433 3088.14806,692.583337 3088.06205,692.454279 C3087.93304,692.239182 3087.33101,691.1637 3086.16994,691.206719 C3084.27783,691.292758 3082.55774,692.755414 3083.20277,695.551667 C3083.37478,696.282995 3083.7618,696.928284 3084.32084,697.401496 C3082.47173,698.821133 3079.97759,700.154731 3076.6664,700.670962 C3070.81806,701.531348 3065.14174,698.735094 3062.21757,695.078455 C3058.13233,690.002179 3057.83132,684.022499 3057.65931,681.656438 C3057.5303,669.180846 3063.55064,661.050201 3070.81806,660.878124 C3073.91424,660.749066 3076.53739,661.953606 3078.81652,663.545319 C3084.06282,667.287997 3084.40684,671.632945 3086.38496,672.407292 C3087.28801,672.794465 3089.22312,672.278234 3089.22312,671.159733 C3089.22312,668.492537 3087.54602,666.341573 3085.82592,662.426818 C3084.49285,659.415468 3083.37478,656.490156 3082.90176,656.059964 C3082.68674,655.973925 3081.74069,655.973925 3081.52568,656.102983 C3081.13865,656.361099 3080.62262,657.092426 3079.97759,657.694696 C3079.37555,658.210928 3079.41856,658.555082 3078.98853,658.68414 C3078.55851,658.813198 3077.87047,658.555082 3077.31143,658.383005 C3075.29032,657.737716 3073.01119,657.264504 3070.64605,657.264504 C3064.92672,657.264504 3057.70231,659.802641 3052.62802,668.449518 C3050.47789,672.149176 3049.53184,674.859391 3049.10181,679.204339 C3048.8008,682.688901 3049.14482,686.94781 3050.43489,690.346334 C3052.84303,696.799226 3059.2504,704.155524 3068.71094,705.01591 C3072.71017,705.360064 3078.30049,704.671756 3081.43967,702.950984 C3083.6328,701.703425 3085.4389,700.025673 3086.81498,698.476979 C3087.80404,698.692075 3088.9651,698.735094 3090.34118,698.649056 C3091.50225,698.563017 3093.65237,698.606036 3095.11446,698.304901 C3096.96356,697.917728 3098.16763,697.745651 3098.68366,698.089805 C3099.02768,698.304901 3099.15669,699.337364 3099.15669,700.972097 C3099.2857,707.726125 3099.19969,725.622147 3098.98468,727.730092 C3098.85567,728.891613 3097.6516,731.300693 3096.49054,733.623734 C3095.75949,735.08639 3097.13557,736.635084 3098.46865,735.731679 C3099.50071,735.043371 3104.18798,731.47277 3106.63912,730.096153 C3107.41316,729.66596 3107.58517,728.504439 3106.81113,727.773112 C3106.03708,727.041784 3105.60706,726.224417 3105.60706,724.460627 C3105.56406,715.727712 3105.56406,713.060516 3105.56406,711.683899 C3105.56406,710.608417 3105.56406,710.393321 3106.3381,710.350301 C3107.11215,710.307282 3112.01443,710.221243 3112.65946,710.350301 C3113.3045,710.479359 3114.29356,711.339745 3115.19661,711.942015 C3115.84165,712.329188 3117.26073,712.157111 3116.87371,711.081629 Z M3161.12325,718.997178 C3160.3062,719.47039 3159.44615,720.158698 3158.5431,719.943602 C3157.76906,719.771525 3157.46804,719.083216 3157.38203,718.093773 C3157.25303,717.06131 3157.29603,710.99559 3157.29603,710.43634 C3157.29603,709.877089 3157.29603,709.532935 3157.72605,709.446896 C3158.11307,709.403877 3161.46727,709.403877 3162.0263,709.403877 C3162.19831,709.403877 3162.54233,707.640086 3162.58533,707.42499 C3162.62833,707.209893 3162.58533,706.994797 3162.15531,706.951778 C3161.76828,706.908758 3158.37109,707.080836 3157.38203,706.779701 C3157.12402,704.585717 3157.25303,702.348714 3157.25303,701.617386 C3157.25303,701.015116 3156.69399,700.584924 3156.04896,701.187194 C3155.31791,701.918521 3153.64082,704.628736 3150.45864,707.769144 C3149.8566,708.371414 3149.72759,709.489916 3150.88866,709.489916 C3150.93166,709.489916 3151.96372,709.446896 3152.22174,709.446896 C3152.47975,709.446896 3152.73777,709.575954 3152.73777,709.83407 C3152.73777,709.963128 3152.82377,713.017497 3152.82377,715.039403 C3152.82377,718.523965 3152.26474,719.169255 3152.52275,719.986621 C3152.99578,721.664373 3154.97389,722.48174 3156.99501,722.567778 C3159.31714,722.567778 3161.29526,721.621354 3162.1123,720.803987 C3163.31637,719.599447 3162.67134,718.093773 3161.12325,718.997178 Z M3212.68321,708.62953 C3213.07023,708.414433 3213.28524,707.080836 3212.38219,706.951778 C3211.43614,706.865739 3206.01783,706.779701 3205.37279,707.037816 C3204.68475,707.295932 3204.94276,708.371414 3205.6308,708.758588 C3205.97482,708.930665 3206.57686,709.145761 3206.74887,709.532935 C3206.92088,709.920108 3206.83487,710.694456 3206.57686,711.425783 C3205.71681,714.179018 3204.25473,716.674136 3204.12572,716.717155 C3203.99671,716.760175 3203.22267,715.168461 3202.40562,713.44769 C3201.67458,711.812957 3201.07254,710.221243 3201.02954,709.920108 C3200.90053,709.317838 3201.37356,708.758588 3202.0616,708.672549 C3202.74964,708.586511 3202.79264,707.037816 3201.67458,706.951778 C3201.11554,706.908758 3199.78247,706.951778 3198.6214,706.994797 C3197.15932,707.080836 3195.39622,706.908758 3194.75118,706.951778 C3193.97713,707.037816 3193.63312,708.457453 3194.75118,708.930665 C3195.91225,709.446896 3196.21326,710.221243 3196.38527,710.651436 C3197.03031,712.071073 3200.3845,719.943602 3201.15855,721.2772 L3201.28755,721.578335 C3197.15932,727.127822 3194.36416,729.235767 3191.87001,730.225211 C3190.32192,730.827481 3188.94585,730.698423 3187.95679,730.26823 C3186.58071,729.708979 3186.4087,727.644054 3186.58071,727.2999 C3187.05374,726.310456 3185.63466,725.708186 3184.08657,726.138379 C3182.58148,726.525552 3181.1624,728.203304 3182.10845,730.354269 C3183.18351,732.935426 3186.58071,734.226004 3190.88096,733.27958 C3194.62217,732.419194 3198.49239,730.26823 3202.1476,726.224417 C3204.85676,723.342125 3206.23284,721.062103 3207.86693,718.093773 C3209.71604,714.738268 3211.04912,710.694456 3211.22113,710.264263 C3211.47914,709.532935 3212.29619,708.844626 3212.68321,708.62953 Z M3187.44076,720.717949 C3186.58071,720.244737 3185.97868,719.900582 3185.89267,719.169255 C3185.54865,716.846213 3185.72066,714.781288 3185.97868,713.361651 C3186.10768,712.759381 3186.66671,711.726918 3187.61277,711.382764 C3188.25781,711.124648 3188.98885,711.03861 3189.8919,712.028053 C3189.8919,712.028053 3190.32192,712.716362 3190.62294,713.060516 C3190.92396,713.361651 3191.78401,713.189574 3191.91302,712.372208 C3192.08503,711.554841 3192.64406,709.748031 3193.07408,708.62953 C3193.46111,707.683106 3193.50411,706.693662 3190.92396,706.951778 C3188.1718,707.252913 3187.09674,708.973684 3186.4517,709.791051 C3186.10768,710.221243 3185.84967,710.092186 3185.84967,709.877089 C3185.84967,709.705012 3185.84967,708.500472 3185.80667,707.941221 C3185.72066,706.177431 3184.21557,707.252913 3182.71049,708.113298 C3181.42041,708.844626 3179.70031,709.920108 3179.4423,710.135205 C3179.18429,710.307282 3179.14128,711.124648 3179.78632,711.425783 C3180.21634,711.59786 3180.64637,711.425783 3181.03339,711.769938 C3181.2054,711.942015 3181.29141,712.587304 3181.29141,713.189574 C3181.2484,714.824307 3181.37741,718.610004 3181.1624,719.384351 C3180.94739,720.158698 3179.95833,720.115679 3179.31329,720.760968 C3178.66826,721.406257 3179.01228,722.48174 3179.95833,722.43872 C3180.90438,722.43872 3185.97868,722.48174 3186.70972,722.48174 C3187.91379,722.567778 3188.1718,721.148142 3187.44076,720.717949 Z M3175.31406,722.094566 C3168.47667,723.901376 3162.24131,721.320219 3162.24131,714.824307 C3162.15531,710.522378 3164.99347,706.908758 3169.72374,706.521585 C3173.24994,706.22045 3176.17411,707.769144 3177.98022,709.963128 C3181.29141,713.963921 3181.2054,720.244737 3175.31406,722.094566 Z M3174.06699,712.415227 C3173.03493,710.049166 3171.14282,707.812163 3168.77769,708.414433 C3166.88558,708.887646 3165.98253,711.554841 3167.65962,715.942808 C3168.77769,718.782081 3170.88481,721.535315 3173.72297,720.201717 C3175.44307,719.384351 3175.70109,716.286963 3174.06699,712.415227 Z M3069.65699,697.315458 C3068.88295,697.831689 3069.57099,698.606036 3070.17302,698.39094 C3071.85012,697.874709 3073.14019,696.799226 3074.17225,695.594686 C3074.73129,694.949397 3076.7094,692.97051 3077.78446,689.701044 C3078.85952,686.431579 3078.60151,684.237595 3078.60151,682.903997 C3078.60151,679.204339 3076.19337,673.482774 3072.75317,673.310697 C3071.72111,673.267678 3070.13002,673.654851 3069.22697,674.859391 C3069.01196,675.117507 3068.53893,675.160526 3068.53893,674.816372 C3068.53893,674.472218 3068.53893,665.997418 3068.53893,665.567226 C3068.53893,665.094013 3067.80789,665.223071 3067.54987,665.395148 C3067.24886,665.567226 3062.8626,668.449518 3062.43258,668.750653 C3062.04556,669.051788 3062.00256,669.783115 3062.47558,669.998212 C3062.94861,670.213308 3064.06667,670.514443 3064.06667,671.116713 C3064.02367,670.557463 3064.19568,682.602862 3063.93767,685.528174 C3063.80866,686.861772 3062.64759,687.162907 3062.21757,687.507061 C3061.78754,687.808196 3062.08856,689.012736 3062.8196,689.012736 C3063.55064,689.012736 3068.83995,689.098774 3069.39898,689.098774 C3069.95801,689.098774 3070.73206,688.410466 3070.25903,687.593099 C3069.91501,687.076868 3069.01196,687.076868 3068.66794,685.915347 C3068.23791,684.495711 3068.49593,679.935667 3068.71094,678.473011 C3068.79695,677.784702 3069.09796,677.35451 3069.743,677.010355 C3070.38804,676.70922 3070.86106,676.838278 3071.20508,677.139413 C3071.80712,677.612625 3072.28015,678.731127 3072.53816,679.247358 C3073.1832,680.666995 3074.04325,684.151557 3074.04325,686.904791 C3074.04325,694.691281 3070.43104,696.799226 3069.65699,697.315458 Z M3128.22636,680.064725 C3128.65638,676.881298 3131.40854,673.611832 3135.14976,673.267678 C3138.89097,672.966543 3140.31005,673.999005 3141.38511,674.90241 C3142.63219,675.977893 3144.18027,678.774146 3143.62124,679.419435 C3143.06221,680.064725 3137.12787,681.52738 3134.80574,682.473805 C3134.37571,682.645882 3133.81668,682.77494 3134.03169,683.37721 C3134.41871,684.495711 3135.70879,686.087424 3137.29988,686.560637 C3139.53601,687.205926 3141.77214,686.001386 3143.19122,684.882885 C3143.92226,684.280615 3144.73931,684.839865 3144.13727,686.001386 C3143.70725,686.775733 3141.34211,688.926697 3137.04186,689.184813 C3130.59149,689.442929 3127.62432,684.409672 3128.22636,680.064725 Z M3133.42966,681.054168 C3133.90268,681.269265 3138.24593,679.677551 3138.54695,679.16132 C3138.93397,678.51603 3137.77291,674.816372 3134.97775,675.160526 C3133.98869,675.289584 3133.21464,676.10695 3132.95663,677.268471 C3132.56961,678.817165 3132.95663,680.839072 3133.42966,681.054168 Z M3197.46033,680.064725 C3197.89036,676.881298 3200.64252,673.611832 3204.38373,673.267678 C3208.08194,672.966543 3209.54403,673.999005 3210.61909,674.90241 C3211.86616,675.977893 3213.41425,678.774146 3212.85522,679.419435 C3212.25318,680.064725 3206.36185,681.52738 3204.03971,682.473805 C3203.60969,682.645882 3203.05066,682.77494 3203.26567,683.37721 C3203.65269,684.495711 3204.94276,686.087424 3206.53386,686.560637 C3208.76998,687.205926 3211.00611,686.001386 3212.42519,684.882885 C3213.15624,684.280615 3214.2743,684.624769 3213.62926,685.78629 C3213.19924,686.560637 3210.7051,689.012736 3206.27584,689.141794 C3199.82547,689.313871 3196.9013,684.409672 3197.46033,680.064725 Z M3202.70664,681.054168 C3203.17966,681.269265 3207.52291,679.677551 3207.82393,679.16132 C3208.21095,678.51603 3207.04989,674.816372 3204.25473,675.160526 C3203.26567,675.289584 3202.49162,676.10695 3202.23361,677.268471 C3201.80358,678.817165 3202.23361,680.839072 3202.70664,681.054168 Z M3134.97775,720.502852 C3134.97775,721.191161 3134.41871,722.223624 3132.87063,722.567778 C3131.40854,722.911932 3129.25842,722.43872 3128.78539,721.793431 C3128.44137,721.320219 3128.14035,720.847007 3127.75333,720.847007 C3126.63527,720.933045 3125.60321,722.43872 3122.16301,722.610797 C3117.81976,722.868913 3115.71264,720.158698 3116.01366,717.878676 C3116.31467,715.469596 3117.47574,714.308075 3119.62586,713.361651 C3120.95894,712.759381 3123.7971,712.587304 3124.82916,712.587304 C3125.30219,712.587304 3124.95817,711.812957 3124.91517,711.59786 C3124.27013,708.887646 3122.16301,708.758588 3120.39991,709.360858 C3119.36785,709.748031 3118.4218,710.479359 3118.16378,710.651436 C3117.38974,711.03861 3116.7017,710.135205 3117.43274,709.274819 C3119.66887,706.564604 3121.60398,706.521585 3123.7111,706.478566 C3124.95817,706.435546 3127.83934,706.736681 3129.08641,709.963128 C3130.33348,713.146555 3131.66656,717.792638 3132.22559,718.782081 C3132.78462,719.771525 3133.64467,720.201717 3134.1607,719.728505 C3134.67673,719.341332 3134.97775,719.943602 3134.97775,720.502852 Z M3126.16224,715.684693 C3125.90423,715.039403 3125.60321,714.65223 3125.00117,714.566191 C3124.35614,714.523172 3123.45308,714.480153 3122.55003,714.867326 C3121.68998,715.2545 3120.65792,716.45904 3121.04495,717.792638 C3121.47497,719.255293 3122.42103,720.588891 3125.08718,720.02964 C3127.75333,719.513409 3126.46326,716.329982 3126.16224,715.684693 Z M3148.69553,718.007734 C3146.93243,720.416814 3144.52429,720.717949 3143.06221,720.287756 C3140.61107,719.556428 3139.70802,717.66358 3139.364,714.60921 C3139.06298,711.942015 3139.96603,708.500472 3142.8902,708.543491 C3146.02938,708.62953 3146.15839,712.20013 3146.54541,712.931458 C3146.93243,713.662786 3147.53447,713.576748 3147.96449,712.716362 C3148.35151,711.855976 3148.73854,710.608417 3149.29757,709.661993 C3149.8136,708.758588 3149.34057,708.328395 3148.65253,707.941221 C3147.23345,707.166874 3145.72836,706.564604 3143.01921,706.564604 C3139.45,706.607623 3134.33271,708.758588 3134.2037,714.824307 C3134.07469,720.890026 3138.97698,722.782875 3142.71819,722.868913 C3148.48052,722.567778 3149.72759,719.513409 3150.28663,718.523965 C3150.54464,717.878676 3149.42658,716.975271 3148.69553,718.007734 Z M3101.0488,683.37721 C3101.43582,684.495711 3102.72589,686.087424 3104.31699,686.560637 C3106.55311,687.248945 3108.83224,686.001386 3110.20832,684.882885 C3110.93937,684.280615 3111.75641,684.839865 3111.15438,686.001386 C3110.72435,686.775733 3108.35922,688.926697 3104.05897,689.184813 C3097.6516,689.485948 3094.68443,684.452692 3095.28647,680.064725 C3095.71649,676.881298 3098.46865,673.611832 3102.20986,673.310697 C3105.95108,673.009562 3107.37016,674.042025 3108.44522,674.94543 C3109.69229,676.020912 3111.28339,678.817165 3110.68135,679.462455 C3110.07932,680.107744 3104.14498,681.5704 3101.86584,682.516824 C3101.39282,682.645882 3100.83379,682.77494 3101.0488,683.37721 Z M3105.56406,679.204339 C3105.95108,678.55905 3104.79001,674.859391 3101.95185,675.203545 C3100.96279,675.332603 3100.23175,676.14997 3099.93073,677.31149 C3099.54371,678.817165 3099.97374,680.839072 3100.44676,681.097187 C3100.96279,681.269265 3105.26304,679.72057 3105.56406,679.204339 Z M3215.43537,720.115679 C3215.43537,721.320219 3214.44631,722.223624 3213.32825,722.223624 C3212.16718,722.223624 3211.22113,721.320219 3211.22113,720.115679 C3211.22113,718.911139 3212.21018,718.050753 3213.32825,718.050753 C3214.48931,718.050753 3215.43537,718.911139 3215.43537,720.115679 Z M3215.04834,720.115679 C3215.04834,719.126235 3214.3173,718.394908 3213.37125,718.394908 C3212.42519,718.394908 3211.65115,719.126235 3211.65115,720.115679 C3211.65115,721.105122 3212.42519,721.87947 3213.37125,721.87947 C3214.2743,721.87947 3215.04834,721.148142 3215.04834,720.115679 Z M3213.67227,720.244737 L3214.36031,721.320219 L3213.97328,721.320219 L3213.32825,720.287756 L3212.89822,720.287756 L3212.89822,721.320219 L3212.5542,721.320219 L3212.5542,718.911139 L3213.45725,718.911139 C3214.01629,718.911139 3214.3173,719.126235 3214.3173,719.599447 C3214.3173,720.02964 3214.01629,720.201717 3213.67227,720.244737 Z M3213.32825,719.986621 C3213.62926,719.986621 3213.93028,719.943602 3213.93028,719.599447 C3213.93028,719.298312 3213.67227,719.255293 3213.41425,719.255293 L3212.89822,719.255293 L3212.89822,719.986621 L3213.32825,719.986621 L3213.32825,719.986621 Z" id="logos/cheesecakefactory"></path>
        </g>
    </g>
</svg>