<?xml version="1.0" encoding="UTF-8"?>
<svg width="164px" height="37px" viewBox="0 0 164 37" version="1.1" xmlns="http://www.w3.org/2000/svg" xmlns:xlink="http://www.w3.org/1999/xlink">
    <title>logos/yamaha</title>
    <g id="Element-Sheet-" stroke="none" stroke-width="1" fill="none" fill-rule="evenodd">
        <g id="Element-Sheet---Saritasa-Web-2019" transform="translate(-3352.000000, -421.000000)" fill="#FFFFFF">
            <path d="M3370.49949,421 C3375.3427,421 3380.15632,422.994623 3383.58136,426.418641 C3387.00538,429.843678 3389,434.6573 3389,439.50051 C3389,444.34372 3387.00538,449.157342 3383.58136,452.58238 C3380.15632,456.006397 3375.3427,458 3370.49949,458 C3365.65628,458 3360.84266,456.006397 3357.41864,452.58238 C3353.9936,449.157342 3352,444.34372 3352,439.50051 C3352,434.6573 3353.9936,429.843678 3357.41864,426.418641 C3360.84266,422.994623 3365.65628,421 3370.49949,421 Z M3370.49949,421.788667 C3365.86237,421.788667 3361.25383,423.697587 3357.97571,426.976727 C3354.69657,430.254846 3352.78765,434.863394 3352.78765,439.50051 C3352.78765,444.137626 3354.69657,448.746174 3357.97571,452.024293 C3361.25383,455.303433 3365.86237,457.212354 3370.49949,457.212354 C3375.13661,457.212354 3379.74515,455.303433 3383.02429,452.024293 C3386.30241,448.746174 3388.21133,444.137626 3388.21133,439.50051 C3388.21133,434.863394 3386.30241,430.254846 3383.02429,426.976727 C3379.74515,423.697587 3375.13661,421.788667 3370.49949,421.788667 Z M3370.49949,423.787371 C3374.61321,423.787371 3378.70244,425.479994 3381.61122,428.388777 C3384.52103,431.29756 3386.21365,435.385771 3386.21365,439.50051 C3386.21365,443.614229 3384.52103,447.70244 3381.61122,450.612243 C3378.70244,453.521026 3374.61321,455.21467 3370.49949,455.21467 C3366.38577,455.21467 3362.29756,453.521026 3359.38776,450.612243 C3356.47897,447.70244 3354.78635,443.614229 3354.78635,439.50051 C3354.78635,435.385771 3356.47897,431.29756 3359.38776,428.388777 C3362.29756,425.479994 3366.38577,423.787371 3370.49949,423.787371 Z M3510.40061,424.084269 L3515.48766,454.916752 L3509.98434,454.916752 L3508.82429,447.742231 L3502.60882,447.742231 L3501.41205,454.916752 L3496.41478,454.916752 L3502.05074,424.084269 L3510.40061,424.084269 Z M3469.47156,424.084269 L3474.55963,454.916752 L3469.05529,454.916752 L3467.89524,447.742231 L3461.67977,447.742231 L3460.48402,454.916752 L3455.48675,454.916752 L3461.12271,424.084269 L3469.47156,424.084269 Z M3422.57088,424.084269 L3427.65895,454.916752 L3422.15563,454.916752 L3420.99457,447.742231 L3414.7791,447.742231 L3413.58334,454.916752 L3408.58505,454.916752 L3414.22101,424.084269 L3422.57088,424.084269 Z M3482.51772,424.084269 L3482.51772,435.902027 L3488.42915,435.902027 L3488.42915,424.084269 L3493.94777,424.084269 L3493.94777,454.916752 L3488.42915,454.916752 L3488.42915,441.378823 L3482.51772,441.378823 L3482.51772,454.916752 L3477.11948,454.916752 L3477.11948,424.084269 L3482.51772,424.084269 Z M3397.54066,424.084269 L3401.23097,436.096898 L3405.31,424.084269 L3410.35828,424.084269 L3404.14485,442.377664 L3404.14485,454.916752 L3398.14772,454.916752 L3398.14772,442.990845 L3392.15365,424.084269 L3397.54066,424.084269 Z M3438.64826,424.084269 L3441.64784,438.751634 L3444.23524,424.084269 L3453.01974,424.084269 L3453.01974,454.916752 L3447.35216,454.916752 L3447.35216,431.348573 L3443.69246,451.880436 L3439.17777,451.880436 L3435.05283,431.675059 L3435.05283,454.916752 L3430.21881,454.916752 L3430.21881,424.084269 L3438.64826,424.084269 Z M3370.49949,424.599504 C3370.44338,424.599504 3370.38726,424.617868 3370.34135,424.649497 C3370.29544,424.682145 3370.25973,424.729078 3370.24136,424.782132 L3370.24136,424.782132 L3368.92828,428.510189 C3368.89563,428.602013 3368.89461,428.703019 3368.9242,428.795864 C3368.9548,428.887688 3369.015,428.969309 3369.09458,429.024404 C3369.32516,429.182545 3369.50371,429.412105 3369.60063,429.672274 C3369.69858,429.932442 3369.71388,430.223218 3369.64451,430.493589 C3369.57513,430.762939 3369.42107,431.009844 3369.20987,431.191452 C3368.83033,431.516917 3368.52221,431.924004 3368.31306,432.379043 C3368.1039,432.833062 3367.99473,433.332993 3367.99473,433.831904 L3367.99473,433.831904 L3367.99473,435.162333 L3361.44666,431.381222 L3360.63758,432.78511 L3367.99473,437.033503 L3367.99473,438.054791 L3367.11016,438.564925 L3359.75199,434.316531 L3358.9419,435.720419 L3365.48998,439.50051 L3364.33809,440.165725 C3363.9055,440.41569 3363.52698,440.76054 3363.23927,441.167627 C3362.94951,441.575734 3362.75056,442.046077 3362.65873,442.537846 C3362.6067,442.811278 3362.47101,443.068385 3362.27103,443.263257 C3362.0731,443.459148 3361.81395,443.590762 3361.53848,443.636674 C3361.26403,443.682587 3360.97529,443.641776 3360.72431,443.522405 C3360.63758,443.481594 3360.53556,443.469351 3360.44169,443.489756 C3360.34681,443.509141 3360.25907,443.560154 3360.19683,443.634634 L3360.19683,443.634634 L3357.62473,446.636261 C3357.58698,446.679112 3357.56454,446.733186 3357.55944,446.788281 C3357.55332,446.845416 3357.56658,446.902551 3357.59515,446.951524 C3357.62269,446.999476 3357.66657,447.039267 3357.71758,447.062733 C3357.76859,447.086199 3357.82777,447.093341 3357.88184,447.083138 L3357.88184,447.083138 L3361.76804,446.356708 C3361.86293,446.339363 3361.95169,446.28937 3362.01597,446.216931 C3362.08126,446.145512 3362.12207,446.051648 3362.12922,445.954722 C3362.15064,445.677209 3362.26083,445.407859 3362.43734,445.192582 C3362.61384,444.978326 3362.85769,444.819164 3363.12704,444.744685 C3363.39537,444.670205 3363.68614,444.679388 3363.94835,444.772232 C3364.41972,444.938536 3364.92781,445.001792 3365.4257,444.95486 C3365.92257,444.908948 3366.41128,444.753867 3366.84387,444.503902 L3366.84387,444.503902 L3367.99473,443.839708 L3367.99473,451.39989 L3369.61492,451.39989 L3369.61492,442.904122 L3370.49949,442.392968 L3371.38406,442.904122 L3371.38406,451.39989 L3373.00527,451.39989 L3373.00527,443.839708 L3374.15613,444.503902 C3374.58872,444.753867 3375.07641,444.908948 3375.5743,444.95486 C3376.07219,445.001792 3376.57926,444.938536 3377.05063,444.772232 C3377.31386,444.679388 3377.60463,444.670205 3377.87296,444.744685 C3378.14129,444.819164 3378.38514,444.978326 3378.56266,445.192582 C3378.73917,445.407859 3378.84834,445.677209 3378.87078,445.954722 C3378.87793,446.051648 3378.91874,446.145512 3378.98301,446.216931 C3379.04729,446.28937 3379.13605,446.339363 3379.23196,446.356708 L3379.23196,446.356708 L3383.11714,447.083138 C3383.17223,447.093341 3383.23039,447.086199 3383.2814,447.062733 C3383.33241,447.039267 3383.37629,446.999476 3383.40383,446.951524 C3383.4324,446.902551 3383.44566,446.845416 3383.43954,446.788281 C3383.43444,446.733186 3383.412,446.679112 3383.37527,446.636261 L3383.37527,446.636261 L3380.80317,443.634634 C3380.73991,443.560154 3380.65319,443.509141 3380.55831,443.489756 C3380.46342,443.469351 3380.36242,443.481594 3380.27467,443.522405 C3380.02369,443.641776 3379.73597,443.682587 3379.4605,443.636674 C3379.18605,443.590762 3378.9269,443.459148 3378.72795,443.263257 C3378.52899,443.068385 3378.39228,442.811278 3378.34127,442.537846 C3378.24842,442.046077 3378.04947,441.575734 3377.76073,441.167627 C3377.472,440.76054 3377.09348,440.41569 3376.66089,440.165725 L3376.66089,440.165725 L3375.509,439.50051 L3382.05708,435.720419 L3381.24699,434.316531 L3373.88882,438.564925 L3373.00527,438.054791 L3373.00527,437.033503 L3380.36242,432.78511 L3379.55232,431.381222 L3373.00527,435.162333 L3373.00527,433.831904 C3373.00527,433.332993 3372.89508,432.833062 3372.68694,432.379043 C3372.47779,431.924004 3372.16967,431.516917 3371.78911,431.191452 C3371.57893,431.009844 3371.42385,430.762939 3371.35447,430.493589 C3371.2851,430.223218 3371.3004,429.932442 3371.39835,429.672274 C3371.49527,429.412105 3371.67484,429.182545 3371.9044,429.024404 C3371.98398,428.969309 3372.04417,428.887688 3372.07478,428.795864 C3372.10437,428.703019 3372.10335,428.602013 3372.07172,428.510189 L3372.07172,428.510189 L3370.75762,424.782132 C3370.73925,424.729078 3370.70354,424.682145 3370.65763,424.649497 C3370.61172,424.617868 3370.55662,424.599504 3370.49949,424.599504 Z M3367.11016,440.436095 L3367.99473,440.946229 L3367.99473,441.967517 L3365.83483,443.215304 C3365.63383,443.331615 3365.38693,443.363243 3365.16247,443.304067 C3364.93903,443.243872 3364.74212,443.091852 3364.62683,442.891879 C3364.51052,442.690887 3364.47787,442.443982 3364.53807,442.220543 C3364.59826,441.997105 3364.74926,441.799173 3364.95026,441.683883 L3364.95026,441.683883 L3367.11016,440.436095 Z M3373.88882,440.436095 L3376.04974,441.683883 L3376.14553,441.74815 C3376.29784,441.865859 3376.41177,442.034344 3376.46193,442.220543 C3376.52111,442.443982 3376.48846,442.690887 3376.37317,442.891879 C3376.25788,443.091852 3376.05995,443.243872 3375.83651,443.304067 C3375.61307,443.363243 3375.36617,443.331615 3375.16517,443.215304 L3375.16517,443.215304 L3373.00527,441.967517 L3373.00527,440.946229 L3373.88882,440.436095 Z M3505.76349,428.814229 L3503.46585,442.602123 L3507.99278,442.602123 L3505.76349,428.814229 Z M3464.83546,428.814229 L3462.5368,442.602123 L3467.06475,442.602123 L3464.83546,428.814229 Z M3417.93377,428.814229 L3415.6351,442.602123 L3420.16305,442.602123 L3417.93377,428.814229 Z M3370.49949,438.325162 L3371.5167,438.913856 L3371.5167,440.088184 L3370.49949,440.674838 L3369.48228,440.088184 L3369.48228,438.913856 L3370.49949,438.325162 Z M3370.49949,432.718792 C3370.73109,432.718792 3370.96167,432.813677 3371.12491,432.97794 C3371.28918,433.141183 3371.38406,433.370743 3371.38406,433.602344 L3371.38406,433.602344 L3371.38406,436.097918 L3370.49949,436.608052 L3369.61492,436.097918 L3369.61492,433.602344 C3369.61492,433.370743 3369.71082,433.141183 3369.87509,432.97794 C3370.03833,432.813677 3370.26789,432.718792 3370.49949,432.718792 Z" id="logos/yamaha"></path>
        </g>
    </g>
</svg>