<?xml version="1.0" encoding="UTF-8"?>
<svg width="133px" height="55px" viewBox="0 0 133 55" version="1.1" xmlns="http://www.w3.org/2000/svg" xmlns:xlink="http://www.w3.org/1999/xlink">
    <title>logos/disney</title>
    <g id="Element-Sheet-" stroke="none" stroke-width="1" fill="none" fill-rule="evenodd">
        <g id="Element-Sheet---Saritasa-Web-2019" transform="translate(-3066.000000, -412.000000)" fill="#FFFFFF">
            <path d="M3187.31329,432.131795 C3187.55853,432.131795 3187.75472,432.180843 3187.90186,432.377036 C3187.8359,434.290546 3187.00087,435.878658 3186.09953,437.433043 L3185.68137,438.149119 C3184.70664,439.819332 3183.78041,441.502472 3183.78041,443.562833 C3183.92755,443.709977 3184.02565,443.906169 3184.22184,443.808073 C3187.41138,440.324951 3190.55117,435.369677 3195.21215,433.898236 C3196.43835,433.80014 3197.55011,434.867112 3198.0086,435.663965 C3199.62719,438.901847 3199.2348,443.464736 3196.97788,446.40833 C3194.64775,449.29861 3190.60022,452.198131 3185.98828,451.70694 C3184.07469,456.416974 3182.7504,461.372248 3182.01396,466.523714 C3181.62229,467.553723 3180.68967,466.62181 3180.10109,466.425618 C3176.12749,463.285832 3179.38954,454.973966 3179.65966,453.914813 C3179.85559,453.14452 3180.4715,451.615494 3181.09147,450.03513 L3181.32334,449.441469 C3181.47696,449.045933 3181.62759,448.652714 3181.76872,448.272866 C3179.9049,444.936889 3181.08205,440.913527 3182.60325,437.82279 C3183.78041,435.762061 3185.3997,433.701333 3187.31329,432.131795 Z M3110.53249,423.693399 C3115.05912,427.394039 3120.9328,433.701333 3120.19708,440.962575 C3119.31422,446.702618 3113.23084,451.020268 3108.07937,452.394324 C3103.07505,453.865765 3096.79477,453.718621 3091.69235,452.541468 C3091.34901,453.47338 3091.00568,454.601485 3089.92662,454.99387 C3089.23924,455.23911 3088.35637,455.092677 3087.81684,454.650534 C3087.20836,454.081576 3087.03958,453.300618 3086.91479,452.511743 L3086.85423,452.117591 C3086.69274,451.069799 3086.49222,450.068404 3085.31468,449.597163 C3080.99703,447.782386 3076.33605,444.200457 3074.12889,439.785422 C3073.8346,438.901847 3074.17793,438.018982 3074.71746,437.332309 C3078.10249,434.633956 3082.37109,433.554899 3086.63898,432.720372 C3086.88422,432.818468 3086.78612,432.475132 3086.98232,432.377036 C3087.22827,429.433442 3087.32636,426.440801 3088.25828,423.791496 C3088.47082,423.419015 3088.994,423.301015 3089.33733,423.546255 C3091.0044,424.818619 3091.15505,426.783841 3091.3039,428.759559 L3091.34769,429.323746 C3091.43267,430.356452 3091.55675,431.374206 3091.93759,432.278939 L3093.34174,432.347814 C3098.01689,432.590664 3102.61139,433.03256 3106.31293,435.663965 C3107.68628,436.792781 3108.02179,438.947341 3107.58818,440.177807 C3107.15528,441.408273 3105.72436,442.287583 3104.39935,442.38568 C3103.51648,442.38568 3101.84814,442.47098 3101.94623,441.796392 C3102.04433,441.121804 3104.94741,440.017868 3104.05601,439.09875 C3102.77436,437.775874 3096.36187,436.988973 3092.38755,436.498493 C3091.89707,436.400397 3091.44711,436.547541 3091.44711,437.087069 C3091.34901,440.815431 3091.05473,444.936889 3091.69235,448.518107 C3091.7414,448.763347 3092.0364,449.057635 3092.28164,449.106683 C3099.29693,450.235499 3106.70532,449.597163 3112.20012,445.574513 C3114.75133,443.513785 3115.58586,440.619239 3115.14371,437.430406 C3112.93584,428.550577 3103.66363,423.202919 3096.05905,419.768134 C3088.65066,416.530253 3080.45751,414.861908 3071.67577,415.304052 C3070.27755,415.405702 3068.06115,415.888363 3068.0448,416.383109 C3068.02845,416.877854 3070.55549,416.72218 3070.25267,417.658358 C3069.95056,418.595246 3067.383,418.039369 3066.6224,417.805502 C3065.8618,417.573057 3065.93502,416.481205 3066.13192,415.794532 C3068.0448,412.409506 3073.38464,412.135122 3075.79652,412.016411 C3089.14114,411.673075 3102.04433,416.754879 3110.53249,423.693399 Z M3178.72704,432.867516 C3179.31632,432.986226 3180.10109,434.143476 3180.59157,434.879197 C3180.82899,435.275846 3181.07423,435.888591 3180.59157,436.154446 C3178.3837,437.136117 3175.39106,436.694685 3172.83985,436.988973 C3172.15318,437.57755 3171.61365,438.558511 3171.85889,439.442086 C3172.10413,439.58923 3172.3252,439.813856 3172.59461,439.785422 C3174.16486,439.883519 3176.51916,439.049702 3177.54988,440.521143 C3177.80365,440.95831 3177.51718,442.593956 3176.81416,442.63092 C3174.90058,442.87616 3171.75226,442.389234 3170.82888,442.87616 C3169.65101,443.660929 3169.74911,445.182129 3169.30768,446.40833 C3170.1415,446.947858 3171.01654,446.396246 3172.00603,446.261186 C3173.82152,445.966897 3175.83249,445.427369 3177.64798,445.819753 C3177.99131,446.457378 3178.48179,447.144761 3178.13846,447.92953 C3175.04772,450.382643 3171.05777,452.896888 3166.80552,451.118364 C3165.2111,450.402547 3164.49955,447.978578 3165.03908,445.917849 C3165.38241,444.445697 3166.90361,443.023304 3165.9717,441.453056 C3165.82456,440.766383 3166.21694,440.177807 3166.80552,440.030663 C3168.4241,440.030663 3168.08077,438.018982 3168.91529,437.087069 C3167.98267,436.05635 3165.62765,436.106108 3165.8736,434.04538 C3167.00171,433.456803 3168.37505,433.652995 3169.65101,433.456803 C3172.54556,432.867516 3175.78344,432.52418 3178.72704,432.867516 Z M3124.66188,432.622276 C3125.83974,433.211563 3126.03593,434.388716 3126.08498,435.565869 C3126.52641,440.275903 3126.77165,444.6426 3126.67356,449.597163 C3126.57546,450.235499 3125.83974,450.382643 3125.34855,450.627883 C3124.56378,450.775027 3123.55012,450.607269 3123.23877,450.186451 C3122.11067,448.370962 3122.50305,445.917849 3122.40495,443.709977 C3122.5521,440.226855 3122.50305,436.449445 3123.48401,433.211563 C3123.67238,432.740986 3124.22044,432.327987 3124.66188,432.622276 Z M3158.21927,429.678682 C3160.42714,430.659643 3161.35976,432.965612 3162.34072,434.879197 C3163.91097,438.706366 3165.23527,444.740696 3162.34072,448.42001 C3161.55596,449.302875 3160.1819,450.116788 3159.29903,449.450019 C3157.09727,447.681845 3155.75735,445.392034 3154.49272,443.058678 L3154.04822,442.234111 C3153.6043,441.409293 3153.15822,440.586057 3152.67542,439.785422 C3152.38113,439.638278 3152.38113,440.030663 3152.23398,440.177807 C3151.49826,443.562833 3152.87232,447.978578 3150.56635,450.627883 C3149.68277,450.775027 3148.85749,450.3208 3148.55467,449.450019 C3147.42585,445.966897 3148.60372,442.336632 3148.89801,438.85351 C3149.04257,438.481627 3149.16977,438.096702 3149.29471,437.708344 L3149.48229,437.124434 C3149.8932,435.858925 3150.35983,434.607917 3151.40017,433.701333 C3153.85328,434.683004 3155.03043,437.430406 3156.45354,439.442086 C3157.48355,440.962575 3158.31736,442.679968 3159.49523,444.054024 C3160.52524,443.611881 3160.01841,442.266969 3159.98571,441.453056 C3159.59332,438.264222 3158.71046,435.320629 3157.87593,432.278939 C3157.82759,431.494171 3157.38545,430.169163 3158.21927,429.678682 Z M3146.54299,432.965612 C3146.93537,433.112756 3147.37681,433.2599 3147.52395,433.701333 C3147.52395,434.437764 3146.93537,435.357593 3146.44489,435.467773 C3141.73486,436.204205 3136.4853,435.762061 3132.07026,437.234213 C3131.92312,437.773742 3132.56074,437.871838 3132.90408,438.018982 C3136.68149,438.607559 3140.6558,438.754703 3144.33512,439.687326 C3146.2814,440.181361 3146.98442,442.483776 3147.13157,444.39736 C3147.22184,445.905765 3146.64109,447.733338 3145.16964,448.763347 C3141.53867,451.069316 3135.99482,450.971219 3132.3155,448.861443 C3130.90875,448.072409 3129.5681,446.800714 3129.47001,445.231177 C3129.47782,443.983651 3130.00953,443.00269 3130.8924,442.532824 C3134.42457,441.10972 3138.79127,441.894488 3141.83296,443.709977 C3142.02915,444.691648 3140.96644,444.638335 3140.45961,444.985937 C3138.86113,445.9124 3137.44842,445.471528 3136.07186,444.908209 L3135.34564,444.605383 C3134.05768,444.071014 3132.77834,443.62278 3131.38288,444.298553 C3130.94145,444.593552 3130.62299,445.415285 3131.13835,445.672609 C3135.01386,447.390002 3139.33079,446.16309 3143.15796,445.084033 C3143.5994,444.936889 3144.13892,444.495456 3144.18797,444.054024 C3144.04083,442.483776 3142.27439,442.139728 3141.14628,441.698296 C3138.9223,441.142418 3136.5454,440.957126 3134.14681,440.793632 L3132.70611,440.695362 C3131.9855,440.644744 3131.26531,440.58981 3130.54906,440.521143 C3129.86239,440.373999 3128.98734,439.895603 3128.78262,439.34399 C3128.39024,438.166126 3128.39024,436.547541 3129.27381,435.565869 C3133.83599,431.543219 3140.7539,431.886555 3146.54299,432.965612 Z M3086.49184,436.841829 C3083.10681,436.890877 3079.52488,437.234213 3076.38581,438.411366 C3075.74747,438.656607 3074.9627,439.34399 3075.45318,440.177807 C3076.72914,441.894488 3078.55245,443.305508 3080.26131,444.298553 C3081.97018,445.292309 3084.23492,446.555474 3086.29564,446.849762 C3086.78612,443.660929 3086.78612,440.521143 3086.73779,437.234213 C3086.54088,437.136117 3086.73779,436.939925 3086.49184,436.841829 Z M3194.47572,438.510173 C3192.21951,441.060672 3189.96259,443.611881 3188.83378,446.65357 C3190.35498,446.849762 3191.63022,445.868801 3192.95523,445.329273 C3195.21215,443.906169 3196.63455,441.551152 3196.4874,438.85351 C3196.38931,438.411366 3195.99692,438.06803 3195.80073,437.675646 C3195.21215,437.57755 3194.96691,438.362318 3194.47572,438.510173 Z M3132.90408,418.002405 C3133.83599,418.051453 3134.67052,418.394789 3135.35719,418.983366 C3136.28911,419.866231 3136.53435,421.338383 3136.09291,422.515536 C3134.37552,426.048416 3130.29529,428.406987 3127.50737,429.188202 C3125.83974,429.580586 3123.72996,429.580586 3122.20876,428.99201 C3121.47304,429.433442 3120.85177,430.8601 3119.95184,430.267259 C3119.27277,429.73691 3119.2547,429.050213 3119.28602,428.354363 L3119.30297,428.006356 C3119.32607,427.485247 3119.31963,426.972788 3119.02562,426.531078 C3118.87065,426.297922 3118.4804,426.280861 3118.2835,425.901272 C3117.25349,423.644351 3118.52945,421.485527 3119.95184,419.768134 C3122.32321,417.123094 3129.12667,414.175236 3132.90408,418.002405 Z M3124.66188,424.968649 C3124.62315,425.071908 3124.53348,425.178563 3124.43487,425.287735 L3124.31494,425.419892 C3124.07724,425.686395 3123.88485,425.96536 3124.31854,426.244609 C3127.55642,426.538897 3130.64716,425.606273 3133.00218,423.448159 C3133.68885,422.809824 3134.17933,421.976007 3133.83599,421.093142 C3133.68885,420.749806 3133.34551,420.40647 3133.00218,420.258615 C3129.61715,419.964327 3127.06594,422.515536 3124.66188,424.968649 Z M3125.00521,419.768134 C3123.6802,420.013375 3122.18388,420.589867 3121.37495,421.534575 C3120.5653,422.478572 3120.04994,423.399111 3120.54113,424.380072 C3122.25781,423.104823 3123.09163,421.338383 3125.00521,420.258615 C3125.00521,420.062423 3125.2995,419.915279 3125.00521,419.768134 Z" id="logos/disney"></path>
        </g>
    </g>
</svg>