<?xml version="1.0" encoding="UTF-8"?>
<svg width="166px" height="33px" viewBox="0 0 166 33" version="1.1" xmlns="http://www.w3.org/2000/svg" xmlns:xlink="http://www.w3.org/1999/xlink">
    <title>logos/makita</title>
    <g id="Element-Sheet-" stroke="none" stroke-width="1" fill="none" fill-rule="evenodd">
        <g id="Element-Sheet---Saritasa-Web-2019" transform="translate(-2764.000000, -680.000000)" fill="#FFFFFF">
            <path d="M2901.92267,680 L2898.77013,688.324534 L2903.3512,688.324534 L2901.13476,694.432622 L2896.4552,694.432622 L2892.02231,706.009065 L2901.18444,706.009065 L2905.864,693.250755 C2906.65191,691.083111 2909.06533,689.31031 2911.28178,689.31031 L2911.28178,689.31031 L2928.42418,689.31031 L2922.2176,706.451822 L2930,706.451822 L2930,712.559911 L2916.94711,712.559911 C2915.17342,712.559911 2914.13884,710.244977 2914.23733,708.22551 L2914.23733,708.22551 L2910.14871,712.559911 L2903.3512,712.559911 C2901.43022,712.559911 2900.34684,709.850134 2900.692,707.732178 L2900.692,707.732178 L2896.4064,712.411734 L2886.50516,712.411734 C2884.53449,712.411734 2883.45111,709.554667 2883.84507,707.38791 L2883.84507,707.38791 L2879.264,712.411734 L2869.36364,712.411734 C2867.54115,712.411734 2866.45689,709.94951 2866.65387,707.831554 L2866.65387,707.831554 L2862.17129,712.559911 L2854.24071,712.559911 L2850.49724,700.540711 L2849.66053,700.540711 L2845.27644,712.559911 L2837.83831,712.559911 L2839.51262,707.880355 L2834.73458,712.559911 L2827.93707,712.559911 C2826.16427,712.559911 2825.12969,710.244977 2825.22818,708.22551 L2825.22818,708.22551 L2821.13956,712.559911 L2814.34204,712.559911 C2812.66773,712.559911 2811.68196,710.589245 2811.63315,708.668267 L2811.63315,708.668267 L2807.84,712.559911 L2796.01867,712.559911 L2801.7816,696.698755 L2795.13138,696.698755 L2789.36844,712.559911 L2781.93031,712.559911 L2789.26995,692.462843 L2782.9152,692.462843 L2775.57644,712.559911 L2768.18711,712.559911 L2777.00409,688.374222 L2764,688.374222 L2764,680.985777 L2787.10231,680.985777 L2785.62498,685.02471 L2799.36729,685.02471 L2797.84027,689.260622 L2811.87893,689.260622 L2805.47538,706.845778 L2811.87893,706.845778 L2816.80515,693.250755 C2817.64275,691.083111 2820.05618,689.31031 2822.27262,689.31031 L2822.27262,689.31031 L2839.36533,689.31031 L2833.20756,706.451822 L2840.05476,706.451822 L2849.46267,680.590934 L2856.9008,680.590934 L2850.69422,697.683645 L2851.43333,697.683645 L2861.03911,689.063644 L2869.51093,689.063644 L2857.59111,699.752799 L2859.65938,706.402134 L2867.04782,706.402134 L2873.50107,688.719377 L2881.48133,688.719377 L2874.9296,706.009065 L2884.28871,706.009065 L2888.52462,694.432622 L2883.15564,694.432622 L2885.37209,688.324534 L2890.74107,688.324534 L2893.79511,680 L2901.92267,680 Z M2829.46409,695.615377 L2823.60267,695.615377 L2819.71102,706.304532 L2825.57333,706.304532 L2829.46409,695.615377 Z M2918.47325,695.615377 L2912.66151,695.615377 L2908.72107,706.304532 L2914.58249,706.304532 L2918.47325,695.615377 Z M2884.82996,680 L2882.26924,686.74871 L2874.19049,686.74871 L2876.6536,680 L2884.82996,680 Z" id="logos/makita"></path>
        </g>
    </g>
</svg>