<?xml version="1.0" encoding="UTF-8"?>
<svg width="167px" height="29px" viewBox="0 0 167 29" version="1.1" xmlns="http://www.w3.org/2000/svg" xmlns:xlink="http://www.w3.org/1999/xlink">
    <title>logos/sony</title>
    <g id="Element-Sheet-" stroke="none" stroke-width="1" fill="none" fill-rule="evenodd">
        <g id="Element-Sheet---Saritasa-Web-2019" transform="translate(-2764.000000, -425.000000)" fill="#FFFFFF">
            <path d="M2779.9768,425.204432 C2784.1001,425.204432 2787.55233,425.755509 2790.86324,427.628283 C2791.78141,428.222914 2792.6418,428.294909 2792.63024,426.057713 L2796.95442,426.057713 L2796.95442,435.804671 L2792.96089,435.804671 C2792.60714,433.856346 2791.38854,433.09817 2790.27572,432.076011 C2788.26873,430.232568 2783.925,428.697551 2780.271,428.697551 C2775.55485,428.697551 2771.57465,430.160573 2771.57465,432.311552 C2771.57465,438.282741 2798.54633,433.531033 2798.54633,444.821007 C2798.54633,450.710424 2792.7689,454 2782.39354,454 C2778.80176,454 2773.36654,452.884513 2770.15962,451.182395 C2769.15346,450.601097 2768.72771,451.730806 2768.53928,453.146719 L2764.10577,453.146719 L2764.10577,443.074448 L2768.1153,443.074448 C2768.7956,445.043558 2769.67366,445.809849 2770.55284,446.521078 L2770.81643,446.733943 C2770.99192,446.876282 2771.16667,447.021009 2771.33911,447.177307 C2773.28388,448.963864 2777.91292,450.264229 2782.158,450.222454 C2788.55761,450.159347 2790.75925,448.760321 2790.75925,446.729335 C2790.75925,444.699237 2788.58249,444.212156 2781.5687,443.115334 L2775.61351,442.141171 C2768.89303,441.125234 2764,439.622215 2764,434.261654 C2764,428.697551 2770.19073,425.204432 2779.9768,425.204432 Z M2824.11365,425 C2836.20624,425 2844.4164,430.686762 2844.4164,439.052472 C2844.4164,448.353235 2836.80887,453.794679 2823.72967,453.794679 C2811.41665,453.794679 2803.64646,448.272351 2803.64646,439.498667 C2803.64646,430.564103 2811.52598,425 2824.11365,425 Z M2927.76152,448.41812 C2929.16143,448.41812 2930.28936,449.553161 2930.28936,450.945965 C2930.28936,452.35299 2929.16143,453.487143 2927.76152,453.487143 C2926.35538,453.487143 2925.22034,452.35299 2925.22034,450.945965 C2925.22034,449.553161 2926.35538,448.41812 2927.76152,448.41812 Z M2859.83057,426.263923 L2877.01885,442.375824 L2877.10507,431.543599 C2877.10507,430.122353 2876.36644,429.634383 2874.2528,429.634383 L2871.77028,429.634383 L2871.77028,426.263923 L2887.56487,426.263923 L2887.56487,429.634383 L2885.50544,429.634383 C2883.39179,429.634383 2882.65228,430.122353 2882.65228,431.543599 L2882.65228,453.352929 L2876.46866,453.304931 L2856.45033,434.346094 L2856.45033,448.11325 C2856.45033,449.494498 2857.18984,450.021577 2859.3026,450.021577 L2862.0491,450.021577 L2862.0491,453.352929 L2845.64744,453.352929 L2845.64744,450.021577 L2848.36461,450.021577 C2850.47737,450.021577 2851.21776,449.494498 2851.21776,448.11325 L2851.21776,431.543599 C2851.21776,430.122353 2850.47737,429.634383 2848.36461,429.634383 L2845.64744,429.634383 L2845.64744,426.263923 L2859.83057,426.263923 Z M2927.76152,448.723879 C2926.52781,448.723879 2925.53232,449.718485 2925.53232,450.945965 C2925.53232,452.186778 2926.52781,453.182272 2927.76152,453.182272 C2928.989,453.182272 2929.98449,452.186778 2929.98449,450.945965 C2929.98449,449.718485 2928.989,448.723879 2927.76152,448.723879 Z M2908.54758,426.058602 L2908.54758,429.551721 L2907.27122,429.551721 C2905.97263,429.551721 2905.42333,429.795262 2905.42333,430.282343 C2905.42333,430.689429 2905.82242,431.014742 2906.07218,431.338278 L2910.95721,436.661507 C2911.53584,437.265026 2912.24336,437.344132 2912.90465,436.587734 L2918.08744,431.05474 C2918.38787,430.648543 2918.53719,430.364116 2918.53719,430.120575 C2918.53719,429.714378 2918.18699,429.551721 2917.08928,429.551721 L2915.78181,429.551721 L2915.78181,426.058602 L2929.93383,426.058602 L2929.93383,429.551721 L2928.0735,429.551721 C2925.92607,429.551721 2925.5261,429.876146 2922.53161,433.653692 L2914.33301,442.506482 L2914.33301,447.908818 C2914.33301,449.290955 2915.03163,449.776259 2917.02973,449.776259 L2920.12465,449.776259 L2920.12465,453.147608 L2900.30276,453.147608 L2900.30276,449.776259 L2903.39857,449.776259 C2905.39578,449.776259 2906.09529,449.290955 2906.09529,447.908818 L2906.09529,442.506482 L2896.43988,431.825359 C2894.84265,429.957918 2895.06397,429.551721 2890.62157,429.551721 L2890.62157,426.058602 L2908.54758,426.058602 Z M2928.05394,449.533607 C2928.29215,449.533607 2928.53125,449.54694 2928.74368,449.672265 C2928.95611,449.792258 2929.06188,450.043798 2929.06188,450.282895 C2929.06188,450.840194 2928.67079,451.045514 2928.16683,451.058847 L2928.16683,451.058847 L2929.02277,452.366322 L2928.61124,452.366322 L2927.80151,451.058847 L2927.16511,451.058847 L2927.16511,452.366322 L2926.81935,452.366322 L2926.81935,449.533607 Z M2927.97395,449.785147 L2927.16511,449.785147 L2927.16511,450.786864 L2927.69574,450.786864 C2928.09305,450.786864 2928.71079,450.853526 2928.71079,450.275784 C2928.71079,449.838477 2928.32593,449.785147 2927.97395,449.785147 L2927.97395,449.785147 Z M2824.17498,428.49223 C2817.03408,428.49223 2812.85478,432.513317 2812.85478,439.296013 C2812.85478,446.240476 2816.85987,450.261563 2823.82744,450.261563 C2830.96834,450.261563 2835.03209,446.403132 2835.03209,439.58044 C2835.03209,432.59509 2831.02611,428.49223 2824.17498,428.49223 Z" id="logos/sony"></path>
        </g>
    </g>
</svg>