<?xml version="1.0" encoding="UTF-8"?>
<svg width="227px" height="36px" viewBox="0 0 227 36" version="1.1" xmlns="http://www.w3.org/2000/svg" xmlns:xlink="http://www.w3.org/1999/xlink">
    <title>logos/kaiserpermanente</title>
    <g id="Element-Sheet-" stroke="none" stroke-width="1" fill="none" fill-rule="evenodd">
        <g id="Element-Sheet---Saritasa-Web-2019" transform="translate(-3320.000000, -551.000000)" fill="#FFFFFF">
            <path d="M3393.54458,573.127372 C3394.65818,573.127372 3395.87367,573.432025 3396.38004,573.734598 L3396.38004,573.734598 L3396.38004,575.660255 C3395.87367,575.355602 3394.65818,574.951131 3393.54458,574.951131 C3391.82376,574.951131 3391.01274,575.86301 3391.01274,576.670912 C3391.01274,577.786587 3391.92462,578.291916 3393.74734,578.899142 C3396.07539,579.811022 3397.29088,581.025474 3397.29088,582.951131 C3397.29088,585.076423 3395.67092,587 3392.22823,587 C3390.81102,587 3389.39278,586.595529 3388.68365,586.190018 L3388.68365,586.190018 L3388.68365,584.063686 C3389.49363,584.670912 3391.11464,585.076423 3392.32909,585.076423 C3393.95009,585.076423 3394.96179,584.266441 3394.96179,583.153886 C3394.96179,582.039251 3394.15181,581.432025 3392.43099,580.824799 C3390.20276,580.013777 3388.68365,578.899142 3388.68365,576.874708 C3388.68365,574.748375 3390.60827,573.127372 3393.54458,573.127372 Z M3542.96075,579.557317 C3544.9176,579.557317 3546.61347,581.123213 3546.61347,583.208994 C3546.61347,585.295815 3544.9176,586.859631 3542.96075,586.859631 C3541.0039,586.859631 3539.30907,585.295815 3539.30907,583.208994 C3539.30907,581.123213 3541.0039,579.557317 3542.96075,579.557317 Z M3366.20484,573.331167 L3366.20484,579.709124 L3370.96387,573.331167 L3373.69847,573.331167 L3368.53289,579.912919 L3372.38108,584.77177 L3376.33013,573.331167 L3379.26644,573.331167 L3383.92462,586.799324 L3381.49467,586.799324 L3380.17832,582.951131 L3375.21654,582.951131 L3373.90018,586.799324 L3371.16559,586.799324 L3366.20484,580.217572 L3366.20484,586.799324 L3363.87575,586.799324 L3363.87575,573.331167 L3366.20484,573.331167 Z M3406.20172,573.331167 L3406.20172,575.253704 L3406.20172,575.253704 L3401.03717,575.253704 L3401.03717,579.101898 L3405.18898,579.101898 L3405.18898,581.025474 L3401.03717,581.025474 L3401.03717,584.873668 L3408.22719,584.873668 L3408.22719,573.331167 L3412.17624,573.331167 C3414.09982,573.331167 3415.21446,573.63582 3416.02444,574.343904 C3416.83442,574.951131 3417.34079,575.86301 3417.34079,577.179361 C3417.34079,578.393813 3416.73252,579.406551 3416.02444,580.013777 C3415.61893,580.418248 3415.0117,580.722901 3414.20172,580.925656 L3414.20172,580.925656 L3417.84716,586.799324 L3415.11256,586.799324 C3415.11256,586.799324 3414.3937,585.54871 3413.58107,584.159282 L3413.33509,583.739401 L3413.33509,583.739401 L3413.08724,583.317862 C3412.59215,582.477573 3412.10831,581.66736 3411.77073,581.127372 L3411.77073,581.127372 L3410.55628,581.127372 L3410.55628,586.799324 L3398.80998,586.799324 L3398.80998,573.331167 L3398.80998,573.331167 L3406.20172,573.331167 Z M3386.96283,573.331167 L3386.96283,586.799324 L3384.63374,586.799324 L3384.63374,573.331167 L3386.96283,573.331167 Z M3430.12478,573.22927 C3432.04835,573.22927 3433.16195,573.531843 3433.97193,574.240967 C3434.78295,574.949051 3435.28828,575.962828 3435.28828,577.177281 C3435.28828,578.492592 3434.68105,579.506369 3433.97193,580.215493 C3433.16195,580.923577 3432.04835,581.22823 3430.12478,581.22823 L3430.12478,581.22823 L3428.50377,581.22823 L3428.50377,586.797245 L3426.17572,586.797245 L3426.17572,573.22927 Z M3505.25865,573.22927 L3505.25865,575.253704 L3505.25865,575.253704 L3500.19496,575.253704 L3500.19496,579.00104 L3504.34677,579.00104 L3504.34677,581.025474 L3500.19496,581.025474 L3500.19496,584.77177 L3507.28412,584.77177 L3507.28412,573.22927 L3510.42215,573.22927 L3515.78945,583.759033 L3515.78945,573.22927 L3528.44658,573.22927 L3528.54848,575.253704 L3524.49753,575.253704 L3524.49753,586.797245 L3522.16845,586.797245 L3522.16845,575.253704 L3522.16845,575.253704 L3518.01768,575.253704 L3518.01768,586.797245 L3514.87757,586.797245 L3509.51131,576.468157 L3509.51131,586.797245 L3509.51131,586.797245 L3497.86691,586.797245 L3497.86691,573.22927 L3497.86691,573.22927 L3505.25865,573.22927 Z M3461.51443,573.22927 L3463.84352,583.049909 L3466.27346,573.22927 L3470.22251,573.22927 L3470.22251,586.797245 L3467.99428,586.797245 L3467.99428,575.253704 L3465.05797,586.797245 L3465.05797,586.797245 L3462.62802,586.797245 L3459.69171,575.253704 L3459.69171,586.797245 L3459.69171,586.797245 L3457.36366,586.797245 L3457.36366,573.22927 L3461.51443,573.22927 Z M3444.09826,573.22927 L3444.09826,575.253704 L3444.09826,575.253704 L3439.03458,575.253704 L3439.03458,579.00104 L3443.18742,579.00104 L3443.18742,581.025474 L3439.03458,581.025474 L3439.03458,584.77177 L3446.22459,584.77177 L3446.22459,573.22927 L3450.07279,573.22927 C3452.09722,573.22927 3453.21186,573.531843 3454.02184,574.240967 C3454.73096,574.849233 3455.33819,575.860931 3455.33819,577.077463 C3455.33819,578.393813 3454.73096,579.303613 3454.02184,580.011697 C3453.51547,580.418248 3453.0091,580.722901 3452.19912,580.822719 L3452.19912,580.822719 L3455.84456,586.797245 L3453.111,586.797245 C3453.111,586.797245 3452.2408,585.284779 3451.30982,583.715447 L3451.05502,583.287131 C3450.7149,582.71708 3450.37648,582.157007 3450.07867,581.676903 L3449.86353,581.332914 C3449.79476,581.223978 3449.72914,581.121133 3449.66728,581.025474 L3449.66728,581.025474 L3448.55368,581.025474 L3448.55368,586.797245 L3436.70653,586.797245 L3436.70653,573.22927 L3436.70653,573.22927 L3444.09826,573.22927 Z M3479.0325,573.22927 L3483.69067,586.797245 L3481.25969,586.797245 L3479.94437,582.849233 L3474.98259,582.849233 L3473.76709,586.797245 L3471.43801,586.797245 L3476.09514,573.22927 L3479.0325,573.22927 Z M3537.05381,573.22927 L3537.05381,575.253704 L3537.05381,575.253704 L3531.99012,575.253704 L3531.99012,579.00104 L3536.04107,579.00104 L3536.04107,581.025474 L3531.99012,581.025474 L3531.99012,584.77177 L3537.56018,584.77177 L3537.56018,586.797245 L3529.66208,586.797245 L3529.66208,573.22927 L3529.66208,573.22927 L3537.05381,573.22927 Z M3487.84144,573.22927 L3493.20874,583.657135 L3493.20874,573.22927 L3495.43593,573.22927 L3495.43593,586.797245 L3492.2979,586.797245 L3486.9306,576.570055 L3486.9306,586.797245 L3486.9306,586.797245 L3484.70341,586.797245 L3484.70341,573.22927 L3487.84144,573.22927 Z M3320.01092,583.032233 L3328.70965,586.729659 L3320.01092,586.729659 L3320.01092,583.032233 Z M3358.28802,583.322329 L3358.28802,586.729659 L3350.31297,586.729659 C3350.98363,586.439303 3351.64063,586.158175 3352.29309,585.880556 L3354.24591,585.052508 C3355.55082,584.49987 3356.87393,583.938394 3358.28802,583.322329 L3358.28802,583.322329 Z M3542.96075,580.209254 C3541.26592,580.209254 3539.96101,581.513127 3539.96101,583.208994 C3539.96101,584.903821 3541.26592,586.207694 3542.96075,586.207694 C3544.65662,586.207694 3545.96153,584.903821 3545.96153,583.208994 C3545.96153,581.513127 3544.65662,580.209254 3542.96075,580.209254 Z M3543.09176,581.123213 C3544.13569,581.123213 3544.65662,581.513127 3544.65662,582.295035 C3544.65662,583.079023 3544.13569,583.338965 3543.48272,583.471016 L3543.48272,583.471016 L3544.78763,585.295815 L3544.00468,585.295815 L3542.96075,583.471016 L3542.17884,583.471016 L3542.17884,585.295815 L3541.52587,585.295815 L3541.52587,581.123213 Z M3358.28802,578.971926 L3358.28802,582.523785 L3350.09566,584.40889 C3352.63374,582.597609 3355.53367,580.784247 3358.28802,578.971926 L3358.28802,578.971926 Z M3320.01092,578.464518 L3328.92696,584.337146 C3326.24435,583.756953 3322.98259,582.958409 3320.01092,582.306473 L3320.01092,582.306473 L3320.01092,578.464518 Z M3543.09176,581.643099 L3542.17884,581.643099 L3542.17884,582.949051 L3542.96075,582.949051 C3543.48272,582.949051 3544.00468,582.949051 3544.00468,582.295035 C3544.00468,581.775149 3543.48272,581.643099 3543.09176,581.643099 L3543.09176,581.643099 Z M3358.28802,573.463218 L3358.28802,578.101638 C3355.098,579.623863 3352.19808,581.074344 3349.00806,582.523785 L3349.00806,582.523785 L3358.28802,573.463218 Z M3320.08266,572.737458 C3323.34547,575.928516 3326.60723,579.04575 3329.87003,582.306473 L3329.87003,582.306473 L3320.08266,577.812581 Z M3477.41253,575.355602 L3475.58981,581.025474 L3479.33611,581.025474 L3477.41253,575.355602 Z M3377.64648,575.45646 L3375.82376,581.025474 L3379.5711,581.025474 L3377.64648,575.45646 Z M3356.83858,568.243566 C3357.20042,568.605407 3357.49051,569.040031 3357.70783,569.475695 C3358.21524,570.344944 3358.3608,571.431505 3358.28802,572.520146 C3354.8079,575.347284 3351.25605,578.101638 3347.55862,580.857031 L3347.55862,580.857031 Z M3321.17027,566.357421 L3331.31947,580.711463 C3327.5503,577.812581 3323.78009,574.839875 3320.01092,571.939953 C3319.9371,569.837536 3320.22823,567.95347 3321.17027,566.357421 L3321.17027,566.357421 Z M3351.76345,565.851053 C3353.57578,565.922797 3355.17079,566.502989 3356.40291,567.807902 L3356.40291,567.807902 L3345.67351,579.480374 Z M3325.95529,563.457499 L3333.06005,579.263062 L3321.53315,565.851053 C3322.47518,564.473356 3324.07019,563.530283 3325.95529,563.457499 L3325.95529,563.457499 Z M3430.42839,575.253704 L3428.50377,575.253704 L3428.50377,579.203795 L3430.42839,579.203795 C3432.14921,579.203795 3432.95919,578.393813 3432.95919,577.177281 C3432.95919,576.063686 3432.25111,575.253704 3430.42839,575.253704 L3430.42839,575.253704 Z M3450.47726,575.253704 L3448.55368,575.253704 L3448.55368,579.101898 L3450.47726,579.101898 C3452.29998,579.101898 3453.0091,578.393813 3453.0091,577.077463 C3453.0091,575.962828 3452.29998,575.253704 3450.47726,575.253704 L3450.47726,575.253704 Z M3412.58071,575.253704 L3410.55628,575.253704 L3410.55628,579.101898 L3412.58071,579.101898 C3414.30258,579.101898 3415.0117,578.494671 3415.0117,577.179361 C3415.0117,575.962828 3414.30258,575.253704 3412.58071,575.253704 L3412.58071,575.253704 Z M3351.11048,565.851053 C3348.71796,570.200416 3346.25371,574.405251 3343.78945,578.68183 L3343.78945,578.68183 L3345.67351,569.475695 C3346.47102,566.937614 3348.79075,566.068365 3351.11048,565.851053 Z M3326.53548,563.385755 C3326.53548,563.385755 3329.94282,563.095659 3331.60957,565.415389 C3332.52566,566.651294 3333.26797,569.854388 3333.92792,573.087542 L3334.09124,573.895335 C3334.41467,575.507691 3334.71941,577.087204 3335.0169,578.391734 C3332.26254,573.679491 3329.36262,568.314271 3326.53548,563.385755 Z M3342.62906,560.920457 C3343.13647,561.066025 3343.64388,561.427866 3344.07851,561.790746 C3345.38342,562.878347 3346.39927,564.400572 3345.96361,566.212893 L3345.96361,566.212893 L3341.75878,577.957109 Z M3336.53912,560.920457 L3337.33663,577.884325 L3333.13179,566.140109 C3332.76995,564.400572 3333.71199,562.878347 3335.08968,561.790746 C3335.45152,561.427866 3336.03172,561.066025 3336.53912,560.920457 L3336.53912,560.920457 Z M3337.11932,560.775929 C3338.71433,560.197816 3340.59943,560.269561 3342.04887,560.775929 L3342.04887,560.775929 L3339.58357,577.739797 Z M3347.9215,561.355082 C3347.77593,556.146868 3355.45984,556.219652 3355.31635,561.355082 C3355.53367,566.357421 3347.84872,566.140109 3347.9215,561.355082 Z M3323.05537,558.684949 C3322.76527,553.68261 3330.81206,553.465298 3330.59475,558.684949 C3331.10216,563.965947 3322.76527,563.893164 3323.05537,558.684949 Z M3339.58357,551 C3341.97609,551 3344.00676,552.304913 3343.86119,555.494931 C3343.78945,557.597349 3342.62906,559.767351 3339.58357,559.694567 C3336.17728,559.623863 3335.45152,557.234468 3335.37978,555.494931 C3335.307,552.377697 3337.1921,551 3339.58357,551 Z" id="logos/kaiserpermanente"></path>
        </g>
    </g>
</svg>