<?xml version="1.0" encoding="UTF-8"?>
<svg viewBox="0 0 76 64" version="1.1" xmlns="http://www.w3.org/2000/svg" xmlns:xlink="http://www.w3.org/1999/xlink">
    <!-- Generator: sketchtool 56.3 (101010) - https://sketch.com -->
    <title>620517D8-9FC9-46A6-979C-8878F416C1C2</title>
    <desc>Created with sketchtool.</desc>
    <path fill="#1c7396" shape-rendering="geometricPrecision" d="M33.1,25.2 L54.1,25.2 L54.1,27.7 L21.9,27.7 L33.1,20.3 L33.1,25.2 Z M42.9,32.6 L21.9,32.6 L21.9,30.1 L54.1,30.1 L42.9,37.6 L42.9,32.6 Z M62.7,42.5 L13.3,42.5 C6.5,42.5 0.9,37.2 0.9,30.8 C0.9,25.6 4.6,21 9.8,19.6 C10.7,15 14.4,11.7 18.8,11.7 C20.4,11.7 22,12.2 23.4,12.9 C24.5,5.9 30.7,0.5 38,0.5 C45.8,0.5 52.2,6.6 52.8,14.3 C53.4,14.2 54,14.1 54.7,14.1 C58.00001,14.1 61.10001,16 62.7,19 C69.50001,19 75.10001,24.3 75.10001,30.7 C75.10001,37.1 69.5,42.5 62.7,42.5 Z M18.9,14.1 C15.4,14.1 12.6,16.9 12.1,20.6 L12.1,21.5 L11.2,21.6 C6.6,22.6 3.4,26.4 3.4,30.7 C3.4,35.8 7.8,40 13.3,40 L62.7,40 C68.1,40 72.6,35.8 72.6,30.7 C72.6,25.6 68.2,21.4 62.7,21.4 C62.6,21.4 62.3,21.4 62.2,21.4 L61.2,21.5 L60.8,20.8 C59.7,18.2 57.2,16.59999 54.6,16.59999 C53.7,16.59999 52.9,16.8 52,17.19999 L50.1,18.09999 L50.2,15.89999 C50.2,15.8 50.2,15.69999 50.2,15.49999 C50.2,8.69999 44.6,3.09999 37.8,3.09999 C30.99999,3.09999 25.4,8.69999 25.4,15.49999 L25.4,18.59999 L23.3,16.39999 C22.3,14.8 20.6,14.1 18.9,14.1 Z M75.1,56.1 L75.2,56.1 L75.2,58.60001 L44.2,58.60001 C43.5,61.40001 41.1,63.5 38.1,63.5 C35.1,63.5 32.6,61.40001 32,58.60001 L1,58.60001 L1,56.10001 L32,56.10001 C32.5,53.60001 34.3,51.8 36.8,51.3 L36.8,45 L39.3,45 L39.3,51.3 C41.8,51.8 43.6,53.6 44.1,56.1 L75.1,56.1 Z M38,61 C40.1,61 41.7,59.4 41.7,57.3 C41.7,55.2 40.1,53.60001 38,53.60001 C35.9,53.60001 34.3,55.2 34.3,57.3 C34.3,59.4 35.9,61 38,61 Z" id="path-1"></path>
</svg>