<?xml version="1.0" encoding="UTF-8"?>
<svg viewBox="0 0 56 64" version="1.1" xmlns="http://www.w3.org/2000/svg" xmlns:xlink="http://www.w3.org/1999/xlink">
    <!-- Generator: sketchtool 56.3 (101010) - https://sketch.com -->
    <title>E5565221-9F1E-42DF-A4AF-283D8146D655</title>
    <desc>Created with sketchtool.</desc>
    <path fill="#1c7396" shape-rendering="geometricPrecision" d="M40.32,29.04 C49.04,29.68 55.92,37.04 55.84,45.84 L55.84,53.6 C55.84,59.36 51.2,64 45.44,64 L10.48,64 C4.72,64 0.08,59.36 0.08,53.6 L0.08,45.84 C0.08,37.04 6.96,29.68 15.68,29.04 C16.08,29.04 16.56,29.2 16.88,29.52 C19.92,32.4 23.84,34 28,34 C32.16,34 36.16,32.4 39.12,29.52 C39.44,29.2 39.84,29.04 40.32,29.04 Z M53.3401033,45.8172737 C53.4064351,38.5207795 47.8105161,32.3354309 40.5885495,31.5736631 C37.1963584,34.7382594 32.6907444,36.5 28,36.5 C23.351186,36.5 18.934896,34.7682654 15.4193757,31.5728391 C8.19991634,32.3305549 2.58,38.5168148 2.58,45.84 L2.58,53.6 C2.58,57.9792881 6.10071187,61.5 10.48,61.5 L45.44,61.5 C49.8192881,61.5 53.34,57.9792881 53.34,53.6 L53.3401033,45.8172737 Z M36.88,43.52 L40.96,47.68 C41.6,48.32 41.6,49.28 40.96,49.92 L36.88,54 C36.56,54.32 36.16,54.48 35.76,54.48 C35.36,54.48 34.96,54.32 34.64,54 C34,53.36 34,52.4 34.64,51.76 L37.6,48.8 L34.64,45.76 C34,45.12 34,44.16 34.64,43.52 C35.28,42.88 36.24,42.88 36.88,43.52 Z M31.04,39.28 C31.84,39.52 32.32,40.4 32.08,41.28 L27.6,57.2 C27.44,57.92 26.8,58.4 26.08,58.4 C26,58.4 25.84,58.4 25.68,58.32 C24.8,58.08 24.32,57.2 24.56,56.32 L29.04,40.4 C29.28,39.52 30.16,39.04 31.04,39.28 Z M21.36,43.52 C22,44.16 22,45.2 21.36,45.84 L18.4,48.8 L21.36,51.68 C22,52.32 22,53.28 21.36,53.92 C21.04,54.24 20.64,54.4 20.24,54.4 C19.84,54.4 19.44,54.24 19.12,53.92 L15.04,49.84 C14.4,49.2 14.4,48.24 15.04,47.6 L19.12,43.52 C19.76,42.88 20.72,42.88 21.36,43.52 Z M28,28.24 C20.24,28.24 13.84,21.92 13.84,14.16 C13.84,6.32 20.24,-1.0658141e-13 28,-1.0658141e-13 C35.76,-1.0658141e-13 42.16,6.32 42.16,14.08 C42.16,21.92 35.76,28.24 28,28.24 Z M28,25.74 C34.4091215,25.74 39.66,20.5095529 39.66,14.08 C39.66,7.72020018 34.3988571,2.5 28,2.5 C21.5908785,2.5 16.34,7.73044705 16.34,14.16 C16.34,20.5197998 21.6011429,25.74 28,25.74 Z" id="path-1"></path>
</svg>