<?xml version="1.0" encoding="UTF-8"?>
<svg viewBox="0 0 66 72" version="1.1" xmlns="http://www.w3.org/2000/svg" xmlns:xlink="http://www.w3.org/1999/xlink">
    <!-- Generator: sketchtool 56.3 (101010) - https://sketch.com -->
    <title>7657BAA6-2E80-4B6C-8FE4-815B0D2CDE7D</title>
    <desc>Created with sketchtool.</desc>
    <path fill="#1c7396" shape-rendering="geometricPrecision" d="M59.8247195,46.2781675 C57.9844981,46.277869 56.2403756,47.0990359 55.0691399,48.5171869 L44.2461315,42.2737748 C45.8329961,38.9533613 45.8329734,35.0942669 44.2460698,31.7738721 L56.8919589,24.4788511 C58.4012273,26.0765231 60.8672672,26.2955912 62.6349755,24.989026 C64.4026838,23.6824609 64.9146165,21.2622858 63.8271858,19.3528213 C62.739755,17.4433568 60.3958803,16.6467494 58.3686726,17.4976489 C56.341465,18.3485484 55.270201,20.5786249 55.8738684,22.691144 L43.2200034,29.990679 C41.1207736,26.9710168 37.7825593,25.0446376 34.1156853,24.7368614 L34.1156853,12.2527928 C37.2808797,11.7182381 39.5082216,8.84969972 39.2397735,5.65360644 C38.9713254,2.45751316 36.2966348,0 33.0865418,0 C29.8764487,0 27.2017581,2.45751316 26.93331,5.65360644 C26.664862,8.84969972 28.8922038,11.7182381 32.0573983,12.2527928 L32.0573983,24.7368614 C28.3904913,25.0446344 25.0522489,26.9710393 22.9530184,29.9907407 L10.299246,22.6912674 C10.4039501,22.3367459 10.4596961,21.9695961 10.4649381,21.5999988 C10.4710226,19.6271235 9.07832513,17.926029 7.14172781,17.5409015 C5.20513049,17.155774 3.2666494,18.1944032 2.51618614,20.0192454 C1.76572288,21.8440875 2.41331757,23.9444046 4.0614559,25.030955 C5.70959424,26.1175054 7.89699425,25.8861846 9.28095996,24.4789848 L21.9269108,31.7739338 C20.3400533,35.0943704 20.340076,38.9534801 21.9269726,42.2738982 L11.1040362,48.5171869 C9.03847183,46.000021 5.38612789,45.4860135 2.70501629,47.3351627 C0.023904687,49.1843118 -0.79002267,52.778684 0.833288921,55.6008695 C2.45660051,58.4230549 5.97468609,59.5299588 8.92356503,58.1463327 C11.872444,56.7627067 13.2666841,53.3509197 12.1297939,50.3005034 L22.9530801,44.0570295 C25.0523099,47.0766917 28.3905243,49.0030709 32.0573983,49.3108471 L32.0573983,63.9045495 C30.0502527,64.4223459 28.7415748,66.3505537 29.002778,68.4052311 C29.2639813,70.4599085 31.0135708,72 33.0865418,72 C35.1595127,72 36.9091023,70.4599085 37.1703055,68.4052311 C37.4315087,66.3505537 36.1228308,64.4223459 34.1156853,63.9045495 L34.1156853,49.3108471 C37.7826204,49.0030619 41.1208847,47.0766347 43.2201269,44.0569061 L54.0433411,50.3004828 C53.1060003,52.8269994 53.9194149,55.6690169 56.0519461,57.3184177 C58.1844773,58.9678185 61.1420205,59.0424386 63.3551544,57.5026808 C65.5682883,55.9629231 66.5242326,53.1655473 65.7157153,50.5949819 C64.9071979,48.0244165 62.5215512,46.2762581 59.8247195,46.2781675 L59.8247195,46.2781675 Z M59.8247195,19.5434574 C60.8253314,19.5383662 61.6846614,20.2529858 61.8612418,21.2370586 C62.0378221,22.2211315 61.4804879,23.1895172 60.5404177,23.5320317 C59.6003476,23.8745463 58.5499318,23.4919442 58.0510421,22.6253047 L58.0503526,22.6232482 L58.0492205,22.6219938 C57.8661256,22.3123241 57.768543,21.9596609 57.7664325,21.5999988 C57.767567,20.4646873 58.6884292,19.5446184 59.8247195,19.5434574 Z M6.34836405,23.6565129 C5.21160351,23.6565129 4.29007701,22.7357802 4.29007701,21.5999988 C4.29007701,20.4642175 5.21160351,19.5434848 6.34836405,19.5434848 C7.48512459,19.5434848 8.40665108,20.4642175 8.40665108,21.5999988 C8.40551649,22.7353103 7.48465429,23.6553793 6.34836405,23.6565129 Z M6.34836405,56.5607378 C4.07484297,56.5607378 2.23178998,54.7192724 2.23178998,52.4477097 C2.23178998,50.176147 4.07484297,48.3346816 6.34836405,48.3346816 C8.62188513,48.3346816 10.4649381,50.176147 10.4649381,52.4477097 C10.4623406,54.7181966 8.62080834,56.5581426 6.34836405,56.5607378 L6.34836405,56.5607378 Z M28.9699677,6.17614337 C28.9699677,3.90458066 30.8130207,2.06311525 33.0865418,2.06311525 C35.3600628,2.06311525 37.2031158,3.90458066 37.2031158,6.17614337 C37.2031158,8.44770607 35.3600628,10.2891715 33.0865418,10.2891715 C30.8140975,10.2865762 28.9725652,8.44663021 28.9699677,6.17614337 Z M35.1448288,67.8715651 C35.1448288,69.0073465 34.2233023,69.9280792 33.0865418,69.9280792 C31.9497812,69.9280792 31.0282547,69.0073465 31.0282547,67.8715651 C31.0282547,66.7357838 31.9497812,65.8150511 33.0865418,65.8150511 C34.222832,65.8161847 35.1436942,66.7362537 35.1448288,67.8715651 Z M33.0865418,47.3064246 C27.4027391,47.3064246 22.7951066,42.702761 22.7951066,37.0238543 C22.7951066,31.3449475 27.4027391,26.741284 33.0865418,26.741284 C38.7703445,26.741284 43.3779769,31.3449475 43.3779769,37.0238543 C43.3716587,42.7001441 38.7677253,47.3001117 33.0865418,47.3064246 L33.0865418,47.3064246 Z M59.8247195,56.5607378 C57.5511984,56.5607378 55.7081454,54.7192724 55.7081454,52.4477097 C55.7081454,50.176147 57.5511984,48.3346816 59.8247195,48.3346816 C62.0982406,48.3346816 63.9412936,50.176147 63.9412936,52.4477097 C63.9386961,54.7181966 62.0971638,56.5581426 59.8247195,56.5607378 Z" id="path-1"></path>
</svg>
