<?xml version="1.0" encoding="UTF-8"?>
<svg viewBox="0 0 1440 515" version="1.1" xmlns="http://www.w3.org/2000/svg" xmlns:xlink="http://www.w3.org/1999/xlink">
    <!-- Generator: sketchtool 56.3 (101010) - https://sketch.com -->
    <title>F4D1E101-26EB-44A0-9F09-DF50FBFBDE60</title>
    <desc>Created with sketchtool.</desc>
    <defs>
        <linearGradient x1="-68.2183049%" y1="15.4160036%" x2="100%" y2="55.8131028%" id="linearGradient-1">
            <stop stop-color="#E43E00" offset="0%"></stop>
            <stop stop-color="#F68D1E" offset="100%"></stop>
        </linearGradient>
    </defs>
    <g id="Design" stroke="none" stroke-width="1" fill="none" fill-rule="evenodd">
        <g id="03-Service-Page---Mobile" transform="translate(0.000000, -552.000000)" fill="url(#linearGradient-1)">
            <g id="Header-BG-Graphics">
                <g id="Section/Header/BG-Wave" transform="translate(0.000000, 552.000000)">
                    <g id="Header-BG-Wave">
                        <path d="M0,138 C167.534626,75.3333333 410.858726,66.6666667 729.972299,112 C1097.36699,164.192158 1334.04289,132.858825 1440,18 L1440,509 L0,509 L0,138 Z" opacity="0.724562872"></path>
                        <path d="M0,120 C167.534626,57.3333333 410.858726,48.6666667 729.972299,94 C1097.36699,146.192158 1334.04289,114.858825 1440,0 L1440,491 L0,491 L0,120 Z" opacity="0.224167597"></path>
                        <path d="M0,130 C167.534626,67.3333333 410.858726,58.6666667 729.972299,104 C1097.36699,156.192158 1334.04289,124.858825 1440,10 L1440,501 L0,501 L0,130 Z" opacity="0.224167597"></path>
                        <path d="M0,144 C167.534626,81.3333333 410.858726,72.6666667 729.972299,118 C1097.36699,170.192158 1334.04289,138.858825 1440,24 L1440,515 L0,515 L0,144 Z" id="Header-BG-Wave-Top"></path>
                    </g>
                </g>
            </g>
        </g>
    </g>
</svg>