<?xml version="1.0" encoding="UTF-8"?>
<svg width="56px" height="56px" viewBox="0 0 56 56" version="1.1" xmlns="http://www.w3.org/2000/svg" xmlns:xlink="http://www.w3.org/1999/xlink">
    <title>8C4F50CA-C272-4623-94C4-B1DA3E588E39</title>
    <defs>
        <path d="M48.1181996,30.8315876 C48.5496214,30.8315876 48.7671716,31.0593488 48.7466577,31.5026739 C46.2905722,41.8989632 36.9697835,49.3681532 26.142442,49.3681532 L25.7992346,49.3651489 L27.4419657,50.901855 C27.6683389,51.1135497 27.711954,51.4474186 27.5663529,51.7060691 L27.5219473,51.774597 L27.4726046,51.8337734 C27.24145,52.0806665 26.8650401,52.1101271 26.5996911,51.9136439 L26.5405449,51.8642869 L23.7233087,49.2215674 C23.4775564,49.1192515 23.3175502,48.8790523 23.3175502,48.6125903 C23.317819,48.3727013 23.4477631,48.1543497 23.6395274,48.0474811 L23.7056454,48.0161107 L26.5402182,45.3623487 C26.8035094,45.110776 27.2208697,45.1201922 27.4727056,45.3833751 C27.704895,45.626316 27.7148356,46.0009023 27.5088251,46.2541194 L27.4419062,46.3250755 L25.5939013,48.0485266 L25.7919251,48.0530836 L26.142442,48.05583 C36.2550723,48.05583 44.9848599,41.1485135 47.4015146,31.4818762 C47.4453214,31.0539347 47.690256,30.8315876 48.1181996,30.8315876 Z M3.56807407,24.5021877 C3.80796307,24.5024565 4.02631472,24.6324006 4.13318326,24.8241649 L4.16455372,24.8902829 L6.81831564,27.7248557 C7.06988834,27.9881469 7.06047213,28.4055072 6.79728929,28.6573431 C6.5543484,28.8895326 6.17976205,28.8994731 5.92553135,28.6924183 L5.8555827,28.6265371 L4.24172348,26.8960822 L4.24643241,27.026495 C4.62630758,36.5777772 11.1656679,44.7276455 20.2444597,47.2539083 L20.5203482,47.328736 L20.8034463,47.401515 C21.2310073,47.4452196 21.453149,47.6901176 21.453149,48.1180522 C21.453149,48.5494545 21.2256081,48.7670652 20.782658,48.7466509 C10.6870232,46.3618765 3.32753407,37.4886624 2.93327672,27.0307033 L2.92821237,26.8643489 L1.2788094,28.6266032 C1.06711467,28.8529764 0.733245803,28.8965915 0.474595274,28.7509904 L0.406067442,28.7065848 L0.34689102,28.6572421 C0.0999979232,28.4260875 0.0705372832,28.0496776 0.26702044,27.7843286 L0.316377418,27.7251824 L2.95909692,24.9079462 C3.05118126,24.6867692 3.2549511,24.5350464 3.48898416,24.5069136 L3.56807407,24.5021877 Z M26.5116435,11.9695835 L26.5884082,11.9917056 L33.8297302,14.6245719 C34.0904383,14.7173738 34.2428569,14.98236 34.1994301,15.2491062 L34.192502,15.2763998 L34.2067441,15.2911591 L34.2066891,23.2927084 L41.0721629,25.7893422 C41.2530319,25.8550642 41.3854492,26.0055701 41.4311801,26.1865541 L41.4441911,26.2557457 L41.4486296,26.3271583 L41.4486296,35.0145951 L41.4255639,35.0372713 C41.3901217,35.1715269 41.3067445,35.2855732 41.1940125,35.3608886 L41.1352863,35.395233 L41.0721791,35.4226052 L33.8307419,38.0555099 C33.7298971,38.092792 33.6208916,38.1002484 33.517011,38.0779629 L33.4402691,38.0556736 L26.393138,35.4930323 L19.346971,38.0555099 C19.2713374,38.0834715 19.1911134,38.0946561 19.1119043,38.0890993 L19.0332411,38.0779633 L18.9565001,38.0556743 L11.7146182,35.4226065 C11.4670268,35.3325971 11.3160088,35.0871202 11.3409888,34.831024 L11.3471162,34.789588 L11.3381641,34.7804408 L11.3381641,26.2215782 L11.3565743,26.2022483 C11.3852356,26.0596902 11.4692902,25.936621 11.5867797,25.8555656 L11.6482091,25.8186433 L11.7146118,25.7893491 L18.5795869,23.2927084 L18.5800496,15.0570048 L18.5979119,15.0381746 C18.6270428,14.8951882 18.7111645,14.7720578 18.8285329,14.6910415 L18.8898869,14.6541458 L18.9565001,14.6247746 L26.1981594,11.9917881 C26.2988975,11.9548508 26.4077681,11.9474634 26.5116435,11.9695835 Z M12.4809028,27.1421443 L12.4809028,34.4851563 L18.5795869,36.7024834 L18.5795869,29.3600626 L12.4809028,27.1421443 Z M25.8215157,27.1421443 L19.7228316,29.3600626 L19.7228316,36.7024834 L25.8215157,34.4851563 L25.8215157,27.1421443 Z M26.9647604,27.1421443 L26.9647604,34.4851563 L33.0634445,36.7024834 L33.0634445,29.3600626 L26.9647604,27.1421443 Z M40.3053733,27.1421443 L34.2066891,29.3600626 L34.2066891,36.7024834 L40.3053733,34.4851563 L40.3053733,27.1421443 Z M30.4827093,3.321288 C41.3688364,5.37910966 49.3683006,14.9321851 49.3683006,26.1422946 L49.3665235,26.4287933 L50.9050963,24.7848983 C51.116791,24.5585251 51.4506599,24.51491 51.7093104,24.6605112 L51.7778382,24.7049167 L51.8370147,24.7542594 C52.0839077,24.9854141 52.1133684,25.361824 51.9168853,25.6271729 L51.8675283,25.6863192 L49.2248088,28.5035554 C49.1224928,28.7493076 48.8822935,28.9093138 48.6158316,28.9093138 C48.3759426,28.909045 48.1575909,28.779101 48.0507224,28.5873366 L48.019352,28.5212186 L45.36559,25.6866458 C45.1140173,25.4233547 45.1234335,25.0059943 45.3866164,24.7541585 C45.6295573,24.521969 46.0041436,24.5120285 46.257361,24.7180393 L46.3283267,24.7849685 L48.0499013,26.6316377 L48.0536693,26.4636396 L48.0559773,26.1422946 C48.0559773,15.757067 40.7775042,6.86979548 30.7726788,4.71886126 L30.4263025,4.64738098 L30.3271798,4.62254515 C30.2373915,4.59688154 30.1492305,4.56293046 30.0662668,4.51878634 C29.8041379,4.37931013 29.6438561,4.16666402 29.6438561,3.86956737 C29.6438561,3.57772355 29.7992331,3.40601415 30.0513054,3.3390962 C30.2040485,3.2985473 30.3776747,3.30143314 30.4827093,3.321288 Z M19.1133769,24.3147715 L13.5815861,26.3263855 L19.1512092,28.3510044 L24.6830001,26.3399815 L19.1133769,24.3147715 Z M33.6728991,24.3147715 L28.103276,26.3399815 L33.6350668,28.3510044 L39.2040988,26.3263855 L33.6728991,24.3147715 Z M19.7228316,15.9774795 L19.7228316,23.2927084 L25.8215157,25.5106266 L25.8215157,18.1953978 L19.7228316,15.9774795 Z M33.0634445,15.9774795 L26.9647604,18.1953978 L26.9647604,25.5106266 L33.0634445,23.2927084 L33.0634445,15.9774795 Z M24.4425595,0.263801656 L24.5017117,0.313164237 L27.3189179,2.95585564 C27.5646701,3.05817156 27.7246763,3.29837083 27.7246763,3.56483279 C27.7244075,3.80472178 27.5944634,4.02307343 27.4026991,4.12994198 L27.3365811,4.16131244 L24.5020083,6.81507436 C24.2387172,7.06664706 23.8213568,7.05723085 23.569521,6.79404801 C23.3373315,6.55110706 23.327391,6.17652076 23.5344457,5.92229006 L23.6003329,5.8523359 L25.3251013,4.24408219 L25.1833943,4.24938021 C15.2313514,4.67870517 6.86023071,11.7872776 4.74260217,21.4030474 L4.68035057,21.6951975 L4.62080477,21.9948652 C4.55215093,22.4206785 4.29635598,22.6408805 3.8697147,22.6408805 C3.55758012,22.6408805 3.36292332,22.4182386 3.28958882,21.9740626 C5.21733439,11.3357003 14.3154678,3.37593311 25.1881815,2.93569681 L25.3674124,2.92932664 L23.6002608,1.27556811 C23.3738876,1.06387338 23.3302725,0.730004517 23.4758737,0.471353988 L23.5202792,0.402826156 L23.5696219,0.343649733 C23.8007766,0.0967566364 24.1771865,0.0672959964 24.4425595,0.263801656 Z M26.393138,13.1371018 L20.8235149,15.1617207 L26.393138,17.1863395 L31.96217,15.1617207 L26.393138,13.1371018 Z" id="path-1"></path>
    </defs>
    <g id="00-Home" stroke="none" stroke-width="1" fill="none" fill-rule="evenodd">
        <g transform="translate(-984.000000, -1088.000000)" id="Services-Copy">
            <g transform="translate(0.000000, 552.000000)">
                <g id="Services-Group" transform="translate(507.000000, 209.000000)">
                    <g id="Component/Service-Icon-Title/Normal-Dark" transform="translate(466.000000, 313.000000)">
                        <g id="Service-Icon/Web" transform="translate(11.000000, 14.000000)">
                            <g id="Group-18" transform="translate(1.866667, 1.866667)">
                                <mask id="mask-2" fill="white">
                                    <use xlink:href="#path-1"></use>
                                </mask>
                                <use id="Mask" fill="#000000" fill-rule="nonzero" xlink:href="#path-1"></use>
                                <g id="Color" mask="url(#mask-2)">
                                    <g transform="translate(-3.000000, -3.000000)" id="Color/Tertiary">
                                        <rect id="Base" fill="#1C7396" x="0" y="0" width="58.2666667" height="58.2666667"></rect>
                                    </g>
                                </g>
                            </g>
                        </g>
                    </g>
                </g>
            </g>
        </g>
    </g>
</svg>