<?xml version="1.0" encoding="UTF-8"?>
<svg viewBox="0 0 860 1106" version="1.1" xmlns="http://www.w3.org/2000/svg" xmlns:xlink="http://www.w3.org/1999/xlink">
    <!-- Generator: sketchtool 56.3 (101010) - https://sketch.com -->
    <title>B1EDC4D1-028C-41A8-B998-49266D85ECC2</title>
    <desc>Created with sketchtool.</desc>
    <path opacity="0.08" fill="#1C7396" d="M613.465077,840.788819 C602.488595,840.788819 593.590398,849.734494 593.590398,860.769542 L593.590398,927.371952 L39.749357,927.371952 L39.749357,181.424964 L593.590398,181.424964 L593.590398,245.096867 C593.590398,256.131916 602.488595,265.07759 613.465077,265.07759 C624.441559,265.07759 633.339755,256.131916 633.339755,245.096867 L633.339755,62.6062651 C633.266875,28.060174 605.428506,0.0732687327 571.065763,0 L62.2739927,0 C27.9112493,0.0732687327 0.0728798711,28.060174 0,62.6062651 L0,1042.99373 C0.0728798711,1077.53983 27.9112493,1105.52673 62.2739927,1105.6 L571.065763,1105.6 C605.428506,1105.52673 633.266875,1077.53983 633.339755,1042.99373 L633.339755,860.769542 C633.339755,849.734494 624.441559,840.788819 613.465077,840.788819 Z M62.273992,39.9614452 L571.065749,39.9614452 C583.505761,39.9614452 593.590384,50.0998761 593.590384,62.6062644 L593.590384,141.197107 L39.7493569,141.197107 L39.7493569,62.6062644 C39.7493569,50.0998761 49.8339796,39.9614452 62.273992,39.9614452 Z M571.065749,1065.63856 L62.273992,1065.63856 C49.8339796,1065.63856 39.7493569,1055.50013 39.7493569,1042.99374 L39.7493569,967.066991 L593.590384,967.066991 L593.590384,1042.99374 C593.590384,1055.50013 583.505761,1065.63856 571.065749,1065.63856 Z M290.170321,103.899762 L290.170321,77.2587976 C290.170321,69.9020984 296.102452,63.9383153 303.420107,63.9383153 L329.919678,63.9383153 C337.237333,63.9383153 343.169464,69.9020984 343.169464,77.2587976 L343.169464,103.899762 C343.169464,111.256462 337.237333,117.220245 329.919678,117.220245 L303.420107,117.220245 C296.102452,117.220245 290.170321,111.256462 290.170321,103.899762 Z M378.94388,1016.35281 C378.94388,1027.38785 370.045683,1036.33353 359.069201,1036.33353 L274.270569,1036.33353 C263.294087,1036.33353 254.39589,1027.38785 254.39589,1016.35281 C254.39589,1005.31776 263.294087,996.372083 274.270569,996.372083 L359.069201,996.372083 C364.340293,996.372083 369.395496,998.477189 373.122721,1002.2243 C376.849946,1005.97141 378.94388,1011.05359 378.94388,1016.35281 Z M613.465071,304.772491 C513.655738,304.664857 423.614656,365.026407 385.34497,457.699305 C347.075285,550.372203 368.117371,657.09687 438.655334,728.087454 C509.193297,799.078038 615.328859,820.347083 707.550982,781.972819 C799.773104,743.598555 859.911082,653.141962 859.911082,552.800018 C859.765375,415.982958 749.555756,305.066156 613.465071,304.772491 Z M613.46509,760.866097 C529.732884,760.973709 454.185865,710.348467 422.068622,632.608153 C389.951378,554.867839 407.592669,465.331313 466.762387,405.769624 C525.932104,346.207935 614.970755,328.357814 692.339562,360.546794 C769.70837,392.735773 820.161747,468.62096 820.161747,552.8 C820.016163,667.547015 727.602826,760.572547 613.46509,760.866097 Z M661.164342,486.197591 C661.164342,497.232639 670.062538,506.178313 681.03902,506.178313 C692.015502,506.178313 700.913698,497.232639 700.913698,486.197591 C700.838175,447.702526 671.832075,415.493284 633.737286,411.602892 L633.737286,388.425254 C633.737286,377.390205 624.839089,368.444531 613.862608,368.444531 C602.886126,368.444531 593.98793,377.390205 593.98793,388.425254 L593.98793,411.602892 C555.735764,415.301747 526.510035,447.563971 526.414024,486.197591 L526.414024,552.8 C526.414024,563.835048 535.31222,572.780723 546.288702,572.780723 L593.590436,572.780723 L593.590436,653.636048 C577.578475,650.128019 566.16144,635.877615 566.16338,619.402409 C566.16338,608.367361 557.265184,599.421687 546.288702,599.421687 C535.31222,599.421687 526.414024,608.367361 526.414024,619.402409 C526.489546,657.897474 555.495647,690.106716 593.590436,693.997108 L593.590436,717.174746 C593.590436,728.209795 602.488632,737.155469 613.465114,737.155469 C624.441596,737.155469 633.339792,728.209795 633.339792,717.174746 L633.339792,693.997108 C671.591957,690.298253 700.817687,658.036029 700.913698,619.402409 L700.913698,552.8 C700.913698,541.764952 692.015502,532.819277 681.03902,532.819277 L633.339792,532.819277 L633.339792,451.963952 C649.509736,455.308492 661.126398,469.600927 661.164342,486.197591 Z M661.164314,572.780721 L661.164314,619.402406 C661.166253,635.877612 649.749219,650.128016 633.737257,653.636044 L633.737257,572.780721 L661.164314,572.780721 Z M566.693362,532.819265 L566.693362,486.197579 C566.691422,469.722374 578.108456,455.47197 594.120418,451.963941 L594.120418,532.819265 L566.693362,532.819265 Z" id="path-1"></path>
</svg>
