<?xml version="1.0" encoding="UTF-8"?>
<svg viewBox="0 0 969 892" version="1.1" xmlns="http://www.w3.org/2000/svg" xmlns:xlink="http://www.w3.org/1999/xlink">
    <!-- Generator: sketchtool 56.3 (101010) - https://sketch.com -->
    <title>8047C371-C77D-42A9-BF14-344BA57701E1</title>
    <desc>Created with sketchtool.</desc>
    <path opacity="0.08" fill="#1C7396" d="M925.33913,8.98126018e-12 C948.472609,8.98126018e-12 967.4,19.0847612 967.4,42.4105805 L967.4,593.748128 C967.4,617.073947 948.472609,636.158708 925.33913,636.158708 L883.278261,636.158708 L883.278261,593.748128 L925.33913,593.748128 L925.33913,42.4105805 L42.0608696,42.4105805 L42.0608696,593.748128 L378.547826,593.748128 L546.791304,593.748128 L546.791304,636.158708 L420.608696,636.158708 L420.608696,678.569289 L546.791304,678.569289 L546.791304,720.979869 L378.547826,720.979869 L294.426087,720.979869 L294.426087,763.39045 L546.791304,763.39045 L546.791304,805.80103 L252.365217,805.80103 L252.365217,720.979869 C252.365217,697.65405 271.292609,678.569289 294.426087,678.569289 L378.547826,678.569289 L378.547826,636.158708 L42.0608696,636.158708 C18.9273913,636.158708 -1.70530257e-12,617.073947 -1.70530257e-12,593.748128 L-1.70530257e-12,42.4105805 C-1.70530257e-12,19.0847612 18.9273913,8.98126018e-12 42.0608696,8.98126018e-12 L925.33913,8.98126018e-12 Z M799.156542,466.516409 C822.29002,466.516409 841.21741,485.601171 841.21741,508.92699 L841.21741,848.211641 C841.21741,871.537461 822.29002,890.622222 799.156542,890.622222 L630.91307,890.622222 C607.779593,890.622222 588.852202,871.537461 588.852202,848.211641 L588.852202,508.92699 C588.852202,485.601171 607.779593,466.516409 630.91307,466.516409 L799.156542,466.516409 Z M799.156555,508.92699 L630.913072,508.92699 L630.913072,551.337572 L799.156555,551.337572 L799.156555,508.92699 Z M799.156555,784.595776 L799.156555,593.748153 L630.913072,593.748153 L630.913072,784.595776 L799.156555,784.595776 Z M630.913072,848.211648 L799.156555,848.211648 L799.156555,827.006358 L630.913072,827.006358 L630.913072,848.211648 Z" id="path-1"></path>
</svg>
