<?xml version="1.0" encoding="UTF-8" standalone="no"?>
<svg
   xmlns:svg="http://www.w3.org/2000/svg"
   xmlns="http://www.w3.org/2000/svg"
   viewBox="0 0 938 1214"
   version="1.1"
   id="svg7">
  <!-- Generator: sketchtool 56.3 (101010) - https://sketch.com -->
  <title
     id="title2">1E5C337C-0ED2-4A48-817D-9E8ADCA981C2</title>
  <desc
     id="desc4">Created with sketchtool.</desc>
  <path opacity="0.08" fill="#1C7396"
     d="M 863.98211,173.67194 H 19.426554 c -8.481488,0 -15.3555557,6.87391 -15.3555557,15.35556 v 844.5556 c 0,8.4816 6.8740677,15.3555 15.3555557,15.3555 H 863.98211 c 8.48164,0 15.35555,-6.8739 15.35555,-15.3555 V 189.0275 c 0,-8.48149 -6.87391,-15.35556 -15.35555,-15.35556 z M 848.62655,1018.2275 H 34.782109 V 204.38305 H 848.62655 Z m 92.13334,-476.02223 v 138.2 c 0,8.48057 -6.87499,15.35556 -15.35556,15.35556 -8.48057,0 -15.35555,-6.87499 -15.35555,-15.35556 v -138.2 c 0,-8.48056 6.87498,-15.35555 15.35555,-15.35555 8.48057,0 15.35556,6.87499 15.35556,15.35555 z M 172.98211,142.96083 h 537.44444 c 8.48164,0.002 15.35556,-6.87407 15.35556,-15.35556 C 725.70441,59.792376 670.75072,4.8383741 602.93766,4.7608286 H 280.471 C 212.65795,4.8383741 157.7041,59.792376 157.62655,127.60527 c 0,8.48164 6.87407,15.35771 15.35556,15.35556 z M 280.471,35.47194 h 322.46666 c 44.93973,0.05835 83.30466,32.477461 90.85882,76.77778 H 189.61218 C 197.1665,67.949401 235.53128,35.530291 280.471,35.47194 Z M 710.42655,1079.6497 H 172.98211 c -8.48149,-0 -15.35556,6.8741 -15.35556,15.3557 0.0776,67.8128 55.03155,122.7666 122.84445,122.8443 h 322.46666 c 67.8129,-0.077 122.76675,-55.0315 122.84445,-122.8444 0,-8.4815 -6.87392,-15.3577 -15.35556,-15.3556 z M 602.93766,1187.1386 H 280.471 c -44.93972,-0.058 -83.3045,-32.4776 -90.85882,-76.7778 h 504.1843 c -7.55416,44.3003 -45.91909,76.7195 -90.85882,76.7778 z M 265.11544,833.96083 c 25.44201,0 46.06667,-20.62482 46.06667,-46.06667 0,-25.44185 -20.62466,-46.06667 -46.06667,-46.06667 -25.44185,0 -46.06666,20.62482 -46.06666,46.06667 0.0276,25.43049 20.63617,46.03903 46.06666,46.06667 z m 0,-61.42222 c 8.48057,0 15.35556,6.87499 15.35556,15.35555 0,8.48057 -6.87499,15.35556 -15.35556,15.35556 -8.48056,0 -15.35555,-6.87499 -15.35555,-15.35556 0.008,-8.47703 6.87852,-15.34695 15.35555,-15.35555 z M 234.40433,649.69416 c -0.002,-8.48149 6.87392,-15.3577 15.35556,-15.35555 93.24338,0.10534 168.80577,75.66772 168.91111,168.91111 0,8.48056 -6.87499,15.35555 -15.35556,15.35555 -8.48056,0 -15.35555,-6.87499 -15.35555,-15.35555 -0.086,-76.29009 -61.90992,-138.11401 -138.2,-138.2 -8.48164,0.002 -15.35786,-6.87392 -15.35556,-15.35556 z m 0,-122.84444 c 0,-8.48164 6.87392,-15.35556 15.35556,-15.35556 161.05643,0.18273 291.57281,130.69912 291.7557,291.75556 0,8.48056 -6.87514,15.35555 -15.35571,15.35555 -8.48057,0 -15.35555,-6.87499 -15.35555,-15.35555 C 510.6434,659.14551 393.86409,542.36605 249.75989,542.20527 c -8.48164,0.002 -15.35556,-6.87391 -15.35556,-15.35555 z m 0,-122.84445 c 0,-8.48164 6.87392,-15.35555 15.35556,-15.35555 228.86933,0.26027 414.33957,185.73066 414.6,414.6 0,8.48056 -6.87499,15.35555 -15.35556,15.35555 -8.48056,0 -15.35555,-6.87499 -15.35555,-15.35555 C 633.4103,591.33246 461.677,419.5993 249.75989,419.36083 c -8.48164,0.002 -15.35556,-6.87392 -15.35556,-15.35556 z"
     id="path-1"/>
</svg>
