<?xml version="1.0" encoding="UTF-8"?>
<svg viewBox="0 0 1107 984" version="1.1" xmlns="http://www.w3.org/2000/svg" xmlns:xlink="http://www.w3.org/1999/xlink">
    <!-- Generator: sketchtool 56.3 (101010) - https://sketch.com -->
    <title>15FC9A9E-6A8A-4D9A-AFF0-E14CD3D352A8</title>
    <desc>Created with sketchtool.</desc>
    <path opacity="0.08" fill="#1C7396" d="M1032.33735,0 L73.2626506,0 C32.8312117,0.074093048 0.0733119466,33.1810115 0,74.0432268 L0,908.712329 C0.0733119466,949.574544 32.8312117,982.681463 73.2626506,982.755556 L1032.33735,982.755556 C1072.76879,982.681463 1105.52669,949.574544 1105.6,908.712329 L1105.6,74.0432268 C1105.52669,33.1810115 1072.76879,0.074093048 1032.33735,0 Z M1065.63856,908.712322 C1065.63856,927.300024 1050.7291,942.368334 1032.33736,942.368334 L73.2626503,942.368334 C54.8709026,942.368334 39.9614452,927.300024 39.9614452,908.712322 L39.9614452,201.936079 L1065.63856,201.936079 L1065.63856,908.712322 Z M1065.63856,161.548857 L39.9614452,161.548857 L39.9614452,74.0432262 C39.9614452,55.4555241 54.8709026,40.3872143 73.2626503,40.3872143 L1032.33736,40.3872143 C1050.7291,40.3872143 1065.63856,55.4555241 1065.63856,74.0432262 L1065.63856,161.548857 Z M1032.33736,100.968039 C1032.33736,115.838201 1020.4098,127.892849 1005.6964,127.892849 C990.983001,127.892849 979.055435,115.838201 979.055435,100.968039 C979.055435,86.0978777 990.983001,74.0432299 1005.6964,74.0432299 C1020.4098,74.0432299 1032.33736,86.0978777 1032.33736,100.968039 Z M925.77352,100.968039 C925.77352,115.838201 913.845954,127.892849 899.132556,127.892849 C884.419157,127.892849 872.491591,115.838201 872.491591,100.968039 C872.491591,86.0978777 884.419157,74.0432299 899.132556,74.0432299 C913.845954,74.0432299 925.77352,86.0978777 925.77352,100.968039 Z M819.209618,100.968039 C819.209618,115.838201 807.282051,127.892849 792.568653,127.892849 C777.855254,127.892849 765.927688,115.838201 765.927688,100.968039 C765.927688,86.0978777 777.855254,74.0432299 792.568653,74.0432299 C807.282051,74.0432299 819.209618,86.0978777 819.209618,100.968039 Z M743.045366,724.98112 C743.045366,737.018782 733.528609,746.777235 721.789093,746.777235 C710.049578,746.777235 700.53282,737.018782 700.53282,724.98112 L700.53282,681.388891 C700.53282,645.275907 671.982548,616.000548 636.764002,616.000548 L466.713819,616.000548 C431.495274,616.000548 402.945001,645.275907 402.945001,681.388891 L402.945001,724.98112 C402.945001,737.018782 393.428244,746.777235 381.688728,746.777235 C369.949213,746.777235 360.432455,737.018782 360.432455,724.98112 L360.432455,681.388891 C360.432455,621.200583 408.016243,572.408319 466.713819,572.408319 L636.764002,572.408319 C695.461579,572.408319 743.045366,621.200583 743.045366,681.388891 L743.045366,724.98112 Z M551.738911,533.659666 C493.041333,533.659666 445.457546,484.867403 445.457546,424.679097 C445.457546,364.490791 493.041333,315.698528 551.738911,315.698528 C610.436488,315.698528 658.020275,364.490791 658.020275,424.679097 C658.020275,484.867403 610.436488,533.659666 551.738911,533.659666 Z M551.738903,490.067437 C586.957448,490.067437 615.507719,460.79208 615.507719,424.679097 C615.507719,388.566114 586.957448,359.290757 551.738903,359.290757 C516.520359,359.290757 487.970087,388.566114 487.970087,424.679097 C487.970087,460.79208 516.520359,490.067437 551.738903,490.067437 Z" id="path-1"></path>
</svg>
