<?xml version="1.0" encoding="UTF-8"?>
<svg viewBox="0 0 1230 738" version="1.1" xmlns="http://www.w3.org/2000/svg" xmlns:xlink="http://www.w3.org/1999/xlink">
    <!-- Generator: sketchtool 56.3 (101010) - https://sketch.com -->
    <title>AD69683D-AB36-419E-A769-B4A9103492EC</title>
    <desc>Created with sketchtool.</desc>
    <path opacity="0.08" fill="#1C7396" d="M346.18765,267.688844 C346.18765,282.856512 347.82192,295.154621 350.681894,304.173235 C353.950436,313.191848 358.036113,323.030336 363.75606,333.688697 C365.798899,336.968193 366.616034,340.247688 366.616034,343.117247 C366.616034,347.216617 364.164628,351.315987 358.853248,355.415356 L333.113483,372.632709 C329.436374,375.092331 325.759265,376.322142 322.490723,376.322142 C318.405046,376.322142 314.319369,374.272457 310.233692,370.583024 C304.513745,364.43397 299.610932,357.874978 295.525255,351.315987 C291.439578,344.347058 287.353902,336.558256 282.859657,327.129705 C250.991377,364.843907 210.951743,383.701008 162.740755,383.701008 C128.421068,383.701008 101.047033,373.86252 81.0272158,354.185546 C61.0073987,334.508571 50.7932064,308.272604 50.7932064,275.477647 C50.7932064,240.633004 63.0502372,212.347353 87.9728666,191.03063 C112.895496,169.713907 145.989479,159.055546 188.071952,159.055546 C201.963253,159.055546 216.263123,160.285357 231.380127,162.335042 C246.497132,164.384727 262.022704,167.664222 278.365412,171.353655 L278.365412,141.428256 C278.365412,110.273046 271.828329,88.5463864 259.162731,75.8383402 C246.088564,63.130294 224.025909,56.9812394 192.566196,56.9812394 C178.266327,56.9812394 163.55789,58.6209873 148.440885,62.3104201 C133.323881,65.9998528 118.615444,70.5091595 104.315574,76.2482772 C97.7784912,79.117836 92.8756789,80.7575839 90.015705,81.5774578 C87.1557312,82.3973318 85.1128927,82.8072688 83.4786219,82.8072688 C77.7586742,82.8072688 74.8987003,78.707899 74.8987003,70.0992226 L74.8987003,50.0123108 C74.8987003,43.4533192 75.7158357,38.5340756 77.7586742,35.6645167 C79.8015127,32.7949579 83.4786219,29.9253991 89.1985696,27.0558403 C103.498439,19.6769748 120.658282,13.5279201 140.678099,8.60867646 C160.697916,3.2794958 181.943436,0.819873955 204.41466,0.819873955 C253.034215,0.819873955 288.579605,11.8881723 311.459395,34.0247688 C333.930619,56.1613654 345.370514,89.7761973 345.370514,134.869264 L345.370514,267.688844 L346.18765,267.688844 Z M180.309169,329.999262 C193.791903,329.999262 207.683205,327.53964 222.391642,322.620396 C237.100079,317.701153 250.174245,308.682539 261.205573,296.38443 C267.742656,288.595627 272.645468,279.986951 275.096875,270.148463 C277.548281,260.309976 279.182552,248.421803 279.182552,234.483946 L279.182552,217.266593 C267.334088,214.397034 254.66849,211.937412 241.594323,210.297664 C228.520157,208.657916 215.854558,207.838043 203.18896,207.838043 C175.814924,207.838043 155.795107,213.167223 142.312373,224.235522 C128.829639,235.30382 122.292556,250.881425 122.292556,271.378274 C122.292556,290.645312 127.195368,304.993106 137.409561,314.831594 C147.215185,325.080018 161.515055,329.999262 180.309169,329.999262 Z M508.389064,374.272457 C501.034844,374.272457 496.132032,373.042646 492.86349,370.173087 C489.594948,367.713465 486.734974,361.974348 484.283567,354.185545 L388.27015,37.3042643 C385.818744,29.1055248 384.593041,23.7763442 384.593041,20.9067854 C384.593041,14.3477938 387.861582,10.658361 394.398666,10.658361 L434.438304,10.658361 C442.201091,10.658361 447.512471,11.8881719 450.372446,14.7577308 C453.640987,17.2173526 456.092394,22.9564702 458.5438,30.7452727 L527.183179,302.12355 L590.919746,30.7452727 C592.962584,22.5465333 595.413991,17.2173526 598.682533,14.7577308 C601.951075,12.2981089 607.671023,10.658361 615.025242,10.658361 L647.710661,10.658361 C655.473448,10.658361 660.784828,11.8881719 664.05337,14.7577308 C667.321912,17.2173526 670.181886,22.9564702 671.816157,30.7452727 L736.369859,305.403045 L807.052077,30.7452727 C809.503483,22.5465333 812.363457,17.2173526 815.223431,14.7577308 C818.491973,12.2981089 823.803354,10.658361 831.157573,10.658361 L869.154372,10.658361 C875.691456,10.658361 879.368565,13.9378568 879.368565,20.9067854 C879.368565,22.9564702 878.959998,25.0061551 878.55143,27.465777 C878.142862,29.9253988 877.325727,33.2048946 875.691456,37.7142013 L777.226632,354.595482 C774.775226,362.794222 771.915252,368.123402 768.64671,370.583024 C765.378168,373.042646 760.066787,374.682394 753.121136,374.682394 L717.984311,374.682394 C710.221524,374.682394 704.910143,373.452583 701.641601,370.583024 C698.37306,367.713465 695.513085,362.384285 693.878815,354.185545 L630.550816,89.776197 L567.631385,353.775608 C565.588546,361.974348 563.13714,367.303528 559.868598,370.173087 C556.600056,373.042646 550.880108,374.272457 543.525889,374.272457 L508.389064,374.272457 Z M1033.39857,385.340744 C1012.15305,385.340744 990.90753,382.881122 970.479144,377.961879 C950.050757,373.042635 934.116616,367.713455 923.493855,361.5644 C916.956771,357.874968 912.462526,353.775598 910.828255,350.086165 C909.193984,346.396733 908.376849,342.297363 908.376849,338.60793 L908.376849,317.701145 C908.376849,309.092469 911.645391,304.9931 917.773907,304.9931 C920.225313,304.9931 922.67672,305.403037 925.128126,306.22291 C927.579532,307.042784 931.256642,308.682532 935.342319,310.32228 C949.233622,316.471334 964.350628,321.390578 980.284769,324.670074 C996.627478,327.949569 1012.56162,329.589317 1028.90433,329.589317 C1054.6441,329.589317 1074.66391,325.080011 1088.55522,316.061398 C1102.44652,307.042784 1109.80074,293.924802 1109.80074,277.117386 C1109.80074,265.639151 1106.12363,256.210601 1098.76941,248.421799 C1091.41519,240.632997 1077.52389,233.664068 1057.50407,227.105077 L998.261749,208.657914 C968.436305,199.229363 946.373648,185.291507 932.890913,166.844343 C919.408178,148.807117 912.462526,128.720206 912.462526,107.403484 C912.462526,90.1861316 916.139636,75.018464 923.493855,61.9004812 C930.848074,48.7824985 940.6537,37.3042635 952.910731,28.2856504 C965.167763,18.8571002 979.059066,11.8881719 995.401775,6.96892835 C1011.74448,2.04968481 1028.90433,0 1046.88131,0 C1055.8698,0 1065.26686,0.409936962 1074.25535,1.63974785 C1083.6524,2.86955873 1092.23233,4.50930658 1100.81225,6.14905443 C1108.9836,8.19873924 1116.74639,10.248424 1124.10061,12.7080458 C1131.45483,15.1676676 1137.17478,17.6272894 1141.26045,20.0869111 C1146.9804,23.3664068 1151.06608,26.6459025 1153.51749,30.3353352 C1155.96889,33.6148309 1157.1946,38.1241374 1157.1946,43.8632549 L1157.1946,63.1302921 C1157.1946,71.7389683 1153.92605,76.2482749 1147.79754,76.2482749 C1144.529,76.2482749 1139.21762,74.608527 1132.27196,71.3290313 C1108.9836,60.6706703 1082.83527,55.3414898 1053.82696,55.3414898 C1030.5386,55.3414898 1012.15305,59.0309225 999.487452,66.8197248 C986.821853,74.608527 980.284769,86.4966989 980.284769,103.304114 C980.284769,114.782349 984.370447,124.620836 992.541801,132.409639 C1000.71316,140.198441 1015.83016,147.987243 1037.48425,154.956172 L1095.50087,173.403335 C1124.91775,182.831885 1146.16327,195.949868 1158.82887,212.757283 C1171.49447,229.564699 1177.62298,248.831736 1177.62298,270.148458 C1177.62298,287.775747 1173.94587,303.763289 1167.00022,317.701145 C1159.646,331.639002 1149.84038,343.937111 1137.17478,353.775598 C1124.50918,364.024022 1109.39217,371.402887 1091.82376,376.732068 C1073.43821,382.471185 1054.23553,385.340744 1033.39857,385.340744 Z M1110.6178,584.570122 C976.199028,684.184801 780.903671,737.066667 612.98235,737.066667 C377.647359,737.066667 165.600727,649.750097 5.44219133,504.632418 C-7.22340713,493.154183 4.21648826,477.576579 19.3334929,486.595192 C192.566194,587.439681 406.247097,648.520286 627.282219,648.520286 C776.409427,648.520286 940.245071,617.365078 1091.00655,553.414915 C1113.47777,543.166491 1132.68045,568.172645 1110.6178,584.570122 Z M1166.59158,520.619943 C1149.43174,498.483347 1053.00975,509.961582 1009.29301,515.290762 C996.21884,516.93051 994.176002,505.452275 1006.02447,496.843599 C1082.8352,442.731918 1209.08262,458.309523 1223.79106,476.34675 C1238.4995,494.793914 1219.70538,621.464438 1147.79746,682.13511 C1136.76614,691.56366 1126.14338,686.644417 1131.04619,674.346307 C1147.3889,633.762547 1183.75142,542.346603 1166.59158,520.619943 Z" id="path-1"></path>
</svg>
