<?xml version="1.0" encoding="UTF-8"?>
<svg viewBox="0 0 1077 1260" version="1.1" xmlns="http://www.w3.org/2000/svg" xmlns:xlink="http://www.w3.org/1999/xlink">
    <!-- Generator: sketchtool 56.3 (101010) - https://sketch.com -->
    <title>E9A705FE-EC51-449D-82AB-2A6045029E56</title>
    <desc>Created with sketchtool.</desc>
    <path opacity="0.08" fill="#1C7396" d="M1003.34666,0 L441.333325,0 C401.40888,0 369.162214,32.2466668 369.162214,72.1711114 L369.162214,1186.98445 C369.162214,1226.90874 401.40888,1259.15544 441.333325,1259.15544 L1003.34666,1259.15544 C1043.2711,1259.15544 1075.51777,1228.4443 1075.51777,1188.51985 L1075.51777,72.1711114 C1075.51777,32.2466668 1043.2711,0 1003.34666,0 Z M878.966611,30.7111111 L863.611056,46.0666667 C854.397723,55.28 843.648681,59.8866667 831.364391,61.4222222 L625.599954,61.4222222 C613.315511,61.4222222 601.031067,56.8155556 593.353289,47.6022222 L574.926623,30.7111111 L878.966611,30.7111111 Z M1044.80666,1188.52 C1044.80666,1211.55333 1026.37999,1228.44444 1003.34666,1228.44444 L441.333325,1228.44444 C418.299992,1228.44444 399.873325,1210.01778 399.873325,1186.98444 L399.873325,72.1711111 C399.873325,49.1377778 418.299992,30.7111111 441.333325,30.7111111 L531.931103,30.7111111 L571.855547,69.1 C585.675547,84.4555556 605.637769,93.6688889 627.135547,92.1333333 L829.82888,92.1333333 C849.791103,90.5977778 869.753325,82.92 883.573325,69.1 L921.962214,30.7111111 L1003.34666,30.7111111 C1026.37999,30.7111111 1044.80666,49.1377778 1044.80666,72.1711111 L1044.80666,1188.52 Z M482.793318,945.902228 C482.793318,945.902228 484.328873,945.902228 484.328873,944.366673 L484.328873,944.366673 L745.373325,793.882228 C749.979992,790.811117 753.051103,786.20445 753.051103,780.062228 L753.051103,479.093339 C753.051103,472.951117 749.979992,468.34445 745.373325,465.273339 L484.328873,314.788895 C479.722206,311.717784 473.579984,311.717784 468.973317,314.788895 L422.906649,340.893339 C415.228871,345.500006 413.693316,354.713339 416.764427,362.391117 C421.371094,370.068895 430.584427,371.60445 438.262205,368.533339 L476.651095,347.035561 L706.984435,480.628895 L476.651095,614.222228 L438.262205,592.72445 C430.584427,588.117784 421.371094,591.188895 416.764427,598.866673 C412.15776,606.54445 415.228871,615.757784 422.906649,620.36445 L422.906649,620.36445 L461.295539,641.862228 L461.295539,907.513493 L438.262205,890.622228 C430.584427,886.015561 421.371094,889.086673 416.764427,896.76445 C412.15776,904.442228 415.228871,913.655561 422.906649,918.262228 L468.973317,944.366673 C472.044428,945.902228 473.579984,945.902228 476.651095,945.902228 L476.651095,945.902228 L476.651095,945.902228 C478.186651,945.902228 479.722206,945.902228 479.722206,945.902228 C479.722206,945.902228 479.722206,945.902228 482.793318,945.902228 C481.257762,945.902228 481.257762,945.902228 482.793318,945.902228 Z M492.006658,904.442246 L492.006658,638.791135 L722.339992,505.197801 L722.339992,770.848912 L492.006658,904.442246 Z M346.128875,420.742231 L246.317763,479.093344 L346.128875,537.444457 C353.806653,542.051124 355.342208,551.264457 352.271097,558.942235 C349.199986,566.620013 338.451097,568.155569 330.773319,565.084458 L330.773319,565.084458 L230.962208,505.197789 L230.962208,770.848908 L346.128875,836.877798 C353.806653,841.484465 355.342208,850.697799 352.271097,858.375577 C347.66443,866.053355 338.451097,867.58891 330.773319,864.517799 L215.606652,798.488908 L197.179985,809.237798 C189.502208,813.844464 180.288874,810.773353 175.682208,803.095575 C171.075541,795.417797 174.146652,786.204464 181.82443,781.597797 L181.82443,781.597797 L184.895541,780.062241 L181.82443,778.526686 C174.146652,773.920019 172.611097,764.706685 175.682208,757.028907 C178.753319,749.351129 189.502208,747.815574 197.179985,750.886685 L200.251097,752.42224 L200.251097,479.093344 C200.251097,477.557789 200.251097,476.022233 201.786652,474.486677 L201.786652,472.951122 C201.786652,471.415566 203.322208,469.880011 204.857763,468.344455 L204.857763,468.344455 C206.393319,466.809053 206.393319,466.809053 207.928874,465.273344 L330.773319,394.637786 C338.451097,390.031273 347.66443,393.102384 352.271097,400.780162 C356.877764,408.45794 353.806653,417.67112 346.128875,420.742231 L346.128875,420.742231 Z M55.908872,872.195546 C60.5155387,879.873324 57.4444276,889.086658 49.7666497,893.693324 L49.7666497,893.693324 L23.662205,909.04888 C15.9844271,913.655701 6.77109366,910.584436 2.16442695,902.906658 C-2.44223977,895.22888 0.628871373,886.015546 8.30664924,881.40888 L34.411094,866.053324 C42.0888718,862.982213 51.3022053,864.517768 55.908872,872.195546 L55.908872,872.195546 Z M144.971097,821.522216 C149.577764,829.199994 146.506653,838.413327 138.828875,843.019993 L138.828875,843.019993 L106.582207,859.911104 C98.9044289,864.517771 89.6910953,861.44666 85.0844285,853.768882 C80.4777616,846.091104 83.5488729,836.877771 91.2266509,832.271105 L123.473319,813.844438 C131.151097,810.773327 140.36443,813.844438 144.971097,821.522216 L144.971097,821.522216 Z M144.97109,740.13778 C140.364423,747.815558 131.15109,749.351113 123.473313,746.280002 L91.226647,727.853336 C83.5488694,723.246669 82.0133139,714.033335 85.0844249,706.355558 C89.6910915,698.67778 98.9044245,697.142224 106.582202,700.213335 L106.582202,700.213335 L138.828868,718.640002 C146.506645,723.246669 149.577756,732.460002 144.97109,740.13778 L144.97109,740.13778 Z M55.9088718,687.928879 C51.3022051,695.606657 42.0888717,697.142212 34.4110938,694.071101 L8.3066492,678.715546 C0.62887137,674.108879 -0.906684197,664.895546 2.16442694,657.217768 C6.77109364,649.53999 15.984427,648.004435 23.6622049,651.075546 L23.6622049,651.075546 L49.7666495,666.431101 C57.4444273,671.037768 60.5155385,680.251101 55.9088718,687.928879 L55.9088718,687.928879 L55.9088718,687.928879 Z M722.339992,1028.82222 C679.344436,1028.82222 645.562214,1062.60444 645.562214,1105.6 C645.562214,1148.59556 679.344436,1182.37778 722.339992,1182.37778 C765.335547,1182.37778 799.117769,1148.59556 799.117769,1105.6 C799.117769,1062.60444 765.335547,1028.82222 722.339992,1028.82222 Z M722.339992,1151.66667 C696.235547,1151.66667 676.273325,1131.70444 676.273325,1105.6 C676.273325,1079.49556 696.235547,1059.53333 722.339992,1059.53333 C748.444436,1059.53333 768.406658,1079.49556 768.406658,1105.6 C768.406658,1131.70444 748.444436,1151.66667 722.339992,1151.66667 Z" id="path-1"></path>
</svg>
