<?xml version="1.0" encoding="UTF-8"?>
<svg viewBox="0 0 892 1076" version="1.1" xmlns="http://www.w3.org/2000/svg" xmlns:xlink="http://www.w3.org/1999/xlink">
    <!-- Generator: sketchtool 56.3 (101010) - https://sketch.com -->
    <title>C2BCB62E-C3F5-4F28-A1FA-8138C4A40EAB</title>
    <desc>Created with sketchtool.</desc>
    <path opacity="0.08" fill="#1C7396" d="M178.12445,806.166689 L178.12445,358.296306 L712.497772,358.296306 L712.497772,806.166689 C712.497772,830.79956 692.458772,850.953727 667.966662,850.953727 L623.435552,850.953727 L623.435552,1007.70836 C623.435552,1044.8816 593.599708,1074.88892 556.638886,1074.88892 C519.678065,1074.88892 489.842221,1044.8816 489.842221,1007.70836 L489.842221,850.953727 L400.780001,850.953727 L400.780001,1007.70836 C400.780001,1044.8816 370.944157,1074.88892 333.983336,1074.88892 C297.022514,1074.88892 267.186671,1044.8816 267.186671,1007.70836 L267.186671,850.953727 L222.65556,850.953727 C198.16345,850.953727 178.12445,830.79956 178.12445,806.166689 Z M216.513339,396.685195 L216.513339,806.166689 C216.513339,809.647052 219.414451,812.564837 222.655561,812.564837 L305.575559,812.564837 L305.575559,1007.70836 C305.575559,1023.7291 318.273515,1036.50003 333.983336,1036.50003 C349.693157,1036.50003 362.391113,1023.7291 362.391113,1007.70836 L362.391113,812.564837 L528.231109,812.564837 L528.231109,1007.70836 C528.231109,1023.7291 540.929065,1036.50003 556.638886,1036.50003 C572.348707,1036.50003 585.046663,1023.7291 585.046663,1007.70836 L585.046663,812.564837 L667.966661,812.564837 C671.207771,812.564837 674.108883,809.647052 674.108883,806.166689 L674.108883,396.685195 L216.513339,396.685195 Z M66.7966652,358.296306 C103.757487,358.296306 133.59333,388.30362 133.59333,425.47686 L133.59333,738.986113 C133.59333,776.159353 103.757487,806.166667 66.7966652,806.166667 C29.8358438,806.166667 -2.72848411e-12,776.159353 -2.72848411e-12,738.986113 L-2.72848411e-12,425.47686 C-2.72848411e-12,388.30362 29.8358438,358.296306 66.7966652,358.296306 Z M66.796667,396.685195 C51.0868454,396.685195 38.3888889,409.456128 38.3888889,425.476861 L38.3888889,738.986112 C38.3888889,755.006845 51.0868454,767.777778 66.796667,767.777778 C82.5064887,767.777778 95.2044452,755.006845 95.2044452,738.986112 L95.2044452,425.476861 C95.2044452,409.456128 82.5064887,396.685195 66.796667,396.685195 Z M823.825542,358.296306 C860.786364,358.296306 890.622208,388.30362 890.622208,425.47686 L890.622208,738.986113 C890.622208,776.159353 860.786364,806.166667 823.825542,806.166667 C786.864721,806.166667 757.028877,776.159353 757.028877,738.986113 L757.028877,425.47686 C757.028877,388.30362 786.864721,358.296306 823.825542,358.296306 Z M823.825544,396.685195 C808.115723,396.685195 795.417766,409.456128 795.417766,425.476861 L795.417766,738.986112 C795.417766,755.006845 808.115723,767.777778 823.825544,767.777778 C839.535366,767.777778 852.233322,755.006845 852.233322,738.986112 L852.233322,425.476861 C852.233322,409.456128 839.535366,396.685195 823.825544,396.685195 Z M660.396373,38.5168507 L602.50593,96.739997 C669.302595,145.557866 712.497772,224.383049 712.497772,313.509249 L178.12445,313.509249 C178.12445,224.383049 221.319627,146.005736 287.22567,97.1878673 L228.889916,38.5168507 C219.983694,29.5594435 219.983694,15.6754625 228.889916,6.71805535 C237.796138,-2.23935178 251.600782,-2.23935178 260.507004,6.71805535 L326.858358,73.0028681 C362.483246,55.0880538 402.561245,44.7870356 445.311111,44.7870356 C487.615666,44.7870356 527.693665,55.0880538 562.873242,73.0028681 L628.779285,6.71805535 C637.685507,-2.23935178 651.490151,-2.23935178 660.396373,6.71805535 C669.302595,15.6754625 669.302595,29.5594435 660.396373,38.5168507 Z M579.854371,127.733758 L566.300573,117.828061 L545.452839,107.211581 C514.661559,91.5314582 480.464382,83.1759235 445.311118,83.1759235 C409.782782,83.1759235 375.524963,91.4992505 344.105193,107.299422 L325.31102,116.750515 L310.075369,128.035854 C261.900007,163.720268 229.560423,216.202686 219.694612,275.120368 L670.930444,275.120368 C661.026355,215.9289 628.448696,163.248576 579.854371,127.733758 Z M356.248879,223.935191 L311.717766,223.935191 L311.717766,179.148153 L356.248879,179.148153 L356.248879,223.935191 Z M578.904434,223.935191 L534.373322,223.935191 L534.373322,179.148153 L578.904434,179.148153 L578.904434,223.935191 Z" id="path-1"></path>
</svg>
