<?xml version="1.0" encoding="UTF-8" standalone="no"?>
<svg
   xmlns:svg="http://www.w3.org/2000/svg"
   xmlns="http://www.w3.org/2000/svg"
   viewBox="0 0 1260 836"
   version="1.1"
   id="svg7">
  <!-- Generator: sketchtool 56.3 (101010) - https://sketch.com -->
  <title
     id="title2">110BDDCE-EDD3-4221-9F92-5FCF5CFFB8FB</title>
  <desc
     id="desc4">Created with sketchtool.</desc>
  <path
      opacity="0.08" fill="#1C7396"
     d="m 1258.1675,231.58994 h -0.015 V 629.9591 c 0,0.38389 -0.1996,0.72171 -0.2304,1.1056 0.4761,3.65462 0.7987,7.3246 0.7987,10.97922 0,81.39965 -115.182,153.6784 -308.10935,193.3418 -1.04418,0.21498 -2.073,0.32247 -3.10182,0.32247 -7.14033,0 -13.5436,-4.99071 -15.03308,-12.26909 -0.1382,-0.691 0.0461,-1.33593 -0.0152,-2.01158 -0.0921,-0.73706 -0.41475,-1.39735 -0.41475,-2.16513 V 476.58782 c -89.72267,-17.48998 -193.83333,-27.62465 -303.67162,-27.62465 -108.30273,0 -211.43064,9.85827 -300.67713,27.05649 v 343.27359 c 0,0.76763 -0.32247,1.42807 -0.42996,2.16514 -0.0307,0.67549 0.1382,1.32042 0,2.01142 -1.50484,7.27869 -7.89275,12.26924 -15.03309,12.26924 -1.02882,0 -2.05764,-0.10764 -3.10182,-0.32262 C 116.20578,795.75319 1.0237257,723.47459 1.0237257,642.07479 c 0,-2.61045 0.1228291,-5.22104 0.3531778,-7.84684 0.076778,-0.78314 0.4606667,-1.41271 0.6449333,-2.14978 -0.1074888,-0.72171 -0.4299555,-1.35129 -0.4299555,-2.10371 V 231.48245 C 1.4229702,229.36338 1.0237257,227.27503 1.0237257,225.1406 1.0237257,99.639654 277.39305,1.3333912 630.21765,1.3333912 c 346.9127,0 623.23575,96.5250228 629.10845,219.7072788 0.055,1.382 -0.314,2.64116 -0.6056,3.91567 0,0.0768 0.015,0.1382 0.015,0.19962 0,2.16513 -0.3992,4.2842 -0.5683,6.43398 z M 962.77276,451.31257 c 124.68704,27.21005 219.20054,69.52996 264.68364,120.66395 V 296.46716 c -44.9917,49.56773 -137.0792,91.67266 -264.68364,119.32801 z M 297.00195,451.2051 V 415.79518 C 169.39728,388.15518 77.294651,346.05025 32.302871,296.46716 V 568.73652 C 79.33694,518.99988 174.28035,477.81628 297.00195,451.2051 Z m 0,350.0606 h 0.0153 V 482.37687 c -135.48207,29.836 -233.865118,77.26931 -260.568431,132.70287 -0.998111,2.0882 -2.456888,3.74675 -4.130644,5.12875 v 9.76614 c 0,1.25915 -0.4146,2.36475 -0.706356,3.53177 0.153556,1.16687 0.476023,2.27247 0.368534,3.47036 -0.153556,1.68911 -0.230334,3.40893 -0.230334,5.08269 0,61.45293 103.557871,123.10549 265.251881,159.20625 z M 628.39016,418.25208 c 110.80568,0 214.05644,9.65865 303.67145,26.78009 v -39.21809 c 0,-0.2764 0.1382,-0.49137 0.15356,-0.75242 -0.79849,-7.75455 4.1612,-15.01773 11.94662,-16.61471 167.69801,-34.44251 277.36721,-96.01829 283.29461,-158.03938 v -9.88898 c 0,-0.32247 0.1689,-0.58351 0.1843,-0.90598 -0.3225,-3.3168 -0.8446,-6.64895 -1.7659,-9.9504 -0.2304,-0.76777 -0.077,-1.5202 -0.1689,-2.30333 -28.331,-87.32705 -262.22682,-175.314378 -595.48843,-175.314378 -351.22761,0 -589.177289,96.079708 -598.0528,187.783088 0.01535,0.24569 0.1382,0.44531 0.1382,0.691 v 9.82756 c 5.850466,62.03644 115.5352,123.64293 283.29464,158.1008 7.80062,1.59698 12.74511,8.86016 11.96197,16.61471 0.0154,0.26105 0.15356,0.47602 0.15356,0.75242 v 39.12596 c 89.64573,-17.07538 192.20548,-26.68796 300.67712,-26.68796 z m 334.3826,383.01362 c 161.67864,-36.10091 265.26714,-97.75347 265.26714,-159.22176 0,-1.28986 -0.1996,-2.56438 -0.2917,-3.85424 -0.6449,-1.35129 -1.2285,-2.74865 -1.4741,-4.31491 C 1217.122,571.63872 1113.5489,516.55834 962.77276,483.00646 Z M 690.62627,163.68768 880.97374,348.19988 c 6.0808,5.89669 6.24987,15.63211 0.33782,21.71291 -5.91189,6.0808 -15.6318,6.2342 -21.71275,0.32247 l -179.49109,-173.97844 -91.56518,91.56517 51.28755,51.28756 c 6.00402,6.00402 6.00402,15.70873 0,21.71275 -2.99433,2.99433 -6.92535,4.49918 -10.85638,4.49918 -3.93102,0 -7.86204,-1.50485 -10.85637,-4.49918 l -62.09787,-62.08251 c -0.0154,-0.0154 -0.0461,-0.0307 -0.0614,-0.0461 L 515.25047,257.98615 392.3446,380.90737 c -2.99433,2.99433 -6.92536,4.49917 -10.85638,4.49917 -3.93102,0 -7.86204,-1.50484 -10.85638,-4.49917 -6.00402,-6.00402 -6.00402,-15.70874 0,-21.71276 L 504.39409,225.41702 c 5.75833,-5.75834 15.95442,-5.75834 21.71276,0 l 40.70757,40.70757 102.26801,-102.268 c 5.92724,-5.9426 15.52446,-6.01937 21.54384,-0.16891 z m -182.86932,13.48217 c -31.30998,0 -56.78485,-25.47487 -56.78485,-56.78484 0,-31.309978 25.47487,-56.784844 56.78485,-56.784844 31.30997,0 56.78484,25.474866 56.78484,56.784844 0,31.30997 -25.47487,56.78484 -56.78484,56.78484 z m 0,-82.858578 c -14.38816,0 -26.07374,11.700938 -26.07374,26.073738 0,14.3728 11.70094,26.07373 26.07374,26.07373 14.3728,0 26.07373,-11.70093 26.07373,-26.07373 0,-14.3728 -11.68558,-26.073738 -26.07373,-26.073738 z"
     id="path-1" />
</svg>
