<?xml version="1.0" encoding="UTF-8"?>
<svg width="1382px" height="1382px" viewBox="650 90 100 1200" version="1.1" xmlns="http://www.w3.org/2000/svg" xmlns:xlink="http://www.w3.org/1999/xlink">
    <title>94D38DDB-DFAA-43F8-BF3A-0BCCD71E61FF</title>
    <defs>
        <rect id="path-1" x="0" y="0" width="1382" height="1382"></rect>
        <path d="M769.567372,349.229849 C807.087819,357.959032 841.096515,373.452321 870.911388,395.654152 C893.328989,411.949647 913.504065,432.136142 934.190523,457.804097 C938.73397,463.506889 940.619822,470.270672 940.026103,476.945224 C939.414782,483.81765 936.192951,490.571767 930.658118,496.008708 C920.69706,505.715166 915.910824,510.304863 908.480055,517.396911 C896.24264,529.069962 890.25014,534.811033 884.8479,540.073379 L882.169789,542.689905 L880.81854,544.015585 C855.485285,569.370116 838.689503,599.427089 830.517816,633.896709 C824.7958,657.676889 823.951127,683.138192 827.169724,712.120985 C833.569847,764.661316 858.865911,809.835441 902.049275,849.260412 C914.8853,861.02872 930.167581,870.06005 950.874452,878.859864 C958.852853,882.057509 964.440715,887.398896 967.243198,894.090669 C970.115945,900.95022 970.053054,909.135979 966.938593,917.806483 C949.672161,971.813608 922.812938,1024.07983 885.879814,1078.49917 C850.359827,1130.00565 815.706788,1166.24991 773.028774,1192.18157 C735.060066,1215.1335 694.783988,1220.61471 651.051609,1209.03038 C638.562686,1205.70348 626.416611,1202.0154 608.616828,1196.28761 C605.826312,1195.38965 603.349109,1194.58879 598.085384,1192.88505 C583.105297,1188.03812 575.309105,1185.56695 566.315383,1182.87165 C534.004583,1173.23658 509.360584,1170.21936 484.419621,1174.37179 C469.165553,1176.80165 454.858744,1181.03899 433.014861,1189.00879 C394.341484,1203.51371 374.69534,1209.71672 350.866998,1213.34874 C324.578006,1217.57445 298.109729,1213.67328 271.887125,1202.28005 C235.597113,1186.43654 204.573592,1160.83696 173.918732,1124.27185 C125.350249,1066.11218 87.2581179,998.895703 56.9857544,920.773787 C44.1475663,887.98512 34.3212709,856.80175 27.3797611,825.890173 C16.3755877,775.256373 12.0594728,733.468005 13.7868884,676.227712 C13.7868884,648.197965 21.3544034,602.934331 33.7123197,563.481802 C45.387844,525.729892 62.9065321,490.835088 86.2544259,458.821974 C119.043021,413.730178 159.026874,382.10954 208.592019,363.561682 C247.47685,349.010523 288.697756,345.053319 334.80916,350.142707 C371.554545,354.291581 406.58274,362.551538 458.032056,377.774189 C490.261263,387.008046 522.111588,385.269686 558.512047,373.52129 C610.655737,356.059569 649.639746,346.331781 689.605778,342.532586 C714.648868,340.33616 739.860826,342.745026 769.567372,349.229849 Z M762.224927,382.990839 C734.971871,377.041392 713.264539,375.140181 692.889546,376.926237 C657.265911,380.312581 621.182416,388.97029 569.104469,406.40763 C525.838485,420.371816 487.135809,422.052634 448.213834,410.899862 C396.4738,395.591119 363.930773,388.200318 331.023637,384.484704 C289.375755,379.887955 253.704918,383.569769 220.700968,395.920234 C178.029643,411.888344 143.403373,438.976862 114.167411,479.182914 C93.0540186,508.132222 77.2664587,539.588258 66.6806442,573.815871 C55.6720402,608.960687 48.337248,651.186486 48.32031,677.324765 C46.7286362,730.037819 50.3590492,768.938398 61.0873694,818.307099 C67.5431247,847.055767 76.7698305,876.53886 89.204024,908.296349 C118.561032,984.056101 154.999669,1047.71479 200.392786,1102.07213 C228.598043,1135.71537 255.660325,1157.49661 285.651973,1170.59043 C306.250352,1179.54005 326.034236,1182.3469 345.67595,1179.19087 C365.412621,1176.1826 382.627083,1171.00711 421.188697,1156.54573 C445.928742,1147.51933 461.6226,1143.01762 478.731934,1140.29311 C508.848563,1135.27902 538.003728,1138.37568 576.236239,1149.77665 C585.175227,1152.45555 592.787062,1154.85723 608.722002,1160.01311 C614.355845,1161.83663 616.58954,1162.55839 619.200213,1163.39848 C637.190247,1169.18749 648.575768,1172.61597 659.895884,1175.63155 C694.81792,1184.8821 725.223308,1180.70776 755.084213,1162.65708 C791.892117,1140.29217 823.406501,1108.22847 857.295804,1059.09142 C891.808087,1008.23649 916.180332,960.773582 930.341867,907.583662 C909.157907,898.003372 892.92615,887.769136 878.75732,874.77879 C829.13485,829.475125 800.229063,776.684543 792.828493,715.914415 C789.114913,682.473654 790.313111,653.298917 796.898098,625.933177 C806.570132,585.134861 826.65441,549.345728 862.257569,513.846637 C866.990786,509.249272 872.39695,504.0684 881.859558,495.042651 C891.039527,486.286492 896.206479,481.335054 900.938084,471.770406 C883.908372,451.545193 867.661911,436.005259 850.25888,423.352263 C824.464949,404.144472 794.871878,390.589693 762.224927,382.990839 Z M712.962856,20.5593937 C720.422992,27.0200478 724.442954,37.3496775 723.625349,49.3968042 C723.306022,53.9451142 723.127422,57.5295591 722.776885,65.7133259 C722.214886,78.4087096 721.839598,84.2689745 721.19988,90.3434943 C720.239123,99.4035579 719.869004,102.792217 719.29913,107.541211 C716.770132,128.616377 713.726768,144.047671 708.521557,158.74782 C698.446026,187.539828 681.978438,214.648542 659.300039,241.588297 C641.838474,262.171412 622.770643,279.720582 601.340261,294.690254 C574.690851,313.014763 544.53004,321.652866 504.686723,324.959684 C487.662607,327.082431 475.320584,325.470537 467.093942,320.664216 C459.462117,316.205409 455.743773,308.935286 455.177047,299.897029 L455.100052,297.388995 L455.106223,287.32949 C459.282805,214.293771 480.362767,153.896122 521.829719,103.658487 C544.301002,76.2871342 573.788271,55.6934974 612.516048,38.0117707 C633.560257,28.3355867 656.296868,21.0155389 683.526287,14.5961114 C695.378797,11.801842 705.735753,14.3005506 712.962856,20.5593937 Z M683.963319,50.0455225 C661.644416,55.6445654 643.404828,61.8362797 626.860866,69.4431113 C591.674814,85.5078041 566.807797,103.32214 548.472008,125.656018 C512.716934,168.973643 493.629252,221.613512 493.848723,291.283744 C497.748184,290.919078 499.338948,290.768323 501.793238,290.531351 C537.2242,287.590512 561.393611,280.228455 581.543362,266.374372 C600.378183,253.21784 617.267209,237.727884 632.863878,219.343457 C653.401517,194.946743 667.499632,171.371412 675.955357,147.208928 C679.9861,135.825666 682.659762,122.887189 684.995231,103.42478 C685.516912,99.0773927 685.85516,96.0110318 686.839744,86.7263704 C687.36713,81.7185213 687.71103,76.6064366 688.258061,64.2457131 C688.451307,59.7342523 688.59416,56.5881563 683.963319,50.0455225 Z" id="path-3"></path>
    </defs>
    <g id="04-Capabilities" stroke="none" stroke-width="1" fill="none" fill-rule="evenodd" opacity="0.0776832217">
        <g id="04-Capabilities---iOS-Dev-Update" transform="translate(-323.000000, 140.000000)">
            <g id="Service-Icon/Apple-Dev" transform="translate(323.000000, -140.000000)">
                <mask id="mask-2" fill="white">
                    <use xlink:href="#path-1"></use>
                </mask>
                <g id="Mask"></g>
                <g id="Color" mask="url(#mask-2)">
                    <g transform="translate(199.622222, 76.777778)">
                        <mask id="mask-4" fill="white">
                            <use xlink:href="#path-3"></use>
                        </mask>
                        <use id="Combined-Shape" stroke="none" fill="#1C7396" fill-rule="nonzero" xlink:href="#path-3"></use>
                        <g id="Group" stroke="none" stroke-width="1" fill="none" fill-rule="evenodd" mask="url(#mask-4)">
                            <g transform="translate(-13.000000, -5.000000)" id="Color/Tertiary" fill="#1C7396">
                                <rect id="Base" x="0" y="0" width="1008.75556" height="1238.44444"></rect>
                            </g>
                        </g>
                    </g>
                </g>
            </g>
        </g>
    </g>
</svg>