<?xml version="1.0" encoding="UTF-8"?>
<svg viewBox="0 0 984 845" version="1.1" xmlns="http://www.w3.org/2000/svg" xmlns:xlink="http://www.w3.org/1999/xlink">
    <!-- Generator: sketchtool 56.3 (101010) - https://sketch.com -->
    <title>50D2A531-3A82-4B63-B13F-16256AB54252</title>
    <desc>Created with sketchtool.</desc>
    <path opacity="0.08" fill="#1C7396" d="M0.0331382637,194.400513 C0.0658576307,196.048049 0.396889202,197.676133 1.01027806,199.206294 L44.8981154,303.023551 L44.9258869,303.089454 L88.7917848,406.854376 L88.825666,406.934678 L132.68476,510.685202 L132.724612,510.779902 L176.596342,614.560054 C177.13451,615.830459 177.859941,617.013606 178.748632,618.070347 C179.260458,618.610222 179.816057,619.1071 180.409784,619.555929 C181.373061,620.629771 182.622045,621.409182 184.011746,621.803686 C185.65188,622.719062 187.520545,623.147172 189.396915,623.037425 L189.429824,623.030641 L607.840472,623.030641 L607.840472,706.101393 L219.039645,706.101393 C180.695223,706.101393 149.610926,737.094761 149.610926,775.327019 C149.610926,813.559277 180.695223,844.555556 219.039645,844.555556 C257.384068,844.555556 288.468364,813.559277 288.468364,775.327019 C288.415668,760.299813 283.412107,745.706198 274.227562,733.791643 L566.538299,733.791643 C557.353755,745.706198 552.350194,760.299813 552.297497,775.327019 C552.297135,811.757199 580.614477,841.953856 617.06925,844.397428 C653.524022,846.841001 685.640204,820.695219 690.53029,784.592799 C695.420377,748.490378 671.410819,714.786755 635.61196,707.500719 L635.61196,609.185515 C635.524656,608.277985 635.34317,607.381933 635.070416,606.511745 L760.17347,198.577448 C761.66453,197.084772 762.784851,195.26512 763.444951,193.263828 L814.221367,27.6902507 L968.869812,27.6902507 C976.538696,27.6902507 982.755556,21.4915769 982.755556,13.8451253 C982.755556,6.19867376 976.538696,0 968.869812,0 L803.948832,0 C797.84504,0 792.457438,3.97553793 790.673367,9.79570308 L738.481994,179.986629 L13.8655608,179.986629 L13.7003205,179.999367 C12.0795773,180.03946 10.4787508,180.365327 8.97194699,180.96188 C8.78809974,181.030275 8.59703191,180.998154 8.41429552,181.075133 C8.27779866,181.132591 8.19559506,181.252628 8.06256963,181.313408 C6.60150471,181.96959 5.26686199,182.875617 4.11901838,183.990501 C3.88934818,184.214377 3.71730381,184.462066 3.50624051,184.700341 C3.04869269,185.160245 2.62469891,185.65217 2.2375001,186.172355 C1.8611242,186.795731 1.53494305,187.447898 1.26202659,188.122717 C1.14510863,188.377883 0.992504304,188.601897 0.891693804,188.863847 C0.343869099,190.305659 0.0434401298,191.829152 0,193.370435 C0,193.718502 0.0188359475,194.050646 0.0331382637,194.400513 Z M673.148442,387.663512 L553.674669,387.663512 L563.141413,311.515325 L696.500098,311.515325 L673.148442,387.663512 Z M641.304675,491.501953 L540.765222,491.501953 L550.231967,415.353766 L664.656331,415.353766 L641.304675,491.501953 Z M609.46096,595.340395 L527.855833,595.340395 L537.322578,519.192208 L632.812476,519.192208 L609.46096,595.340395 Z M307.92396,595.340395 L289.620051,519.192208 L385.425296,519.192208 L389.843462,595.340395 L307.92396,595.340395 Z M383.819834,491.501953 L282.964483,491.501953 L264.660712,415.353766 L379.401113,415.353766 L383.819834,491.501953 Z M407.224947,415.353766 L522.254449,415.353766 L512.78701,491.501953 L411.642419,491.501953 L407.224947,415.353766 Z M254.402334,491.501953 L154.708661,491.501953 L122.519006,415.353766 L236.098423,415.353766 L254.402334,491.501953 Z M198.604281,595.340395 L166.414627,519.192208 L261.057915,519.192208 L279.361826,595.340395 L198.604281,595.340395 Z M413.248428,519.192208 L509.344299,519.192208 L499.877554,595.340395 L417.666594,595.340395 L413.248428,519.192208 Z M525.696317,387.663512 L405.618234,387.663512 L401.200207,311.515325 L535.1632,311.515325 L525.696317,387.663512 Z M399.594042,283.82507 L395.175876,207.676883 L548.071798,207.676883 L538.605748,283.82507 L399.594042,283.82507 Z M371.770887,283.82507 L233.045638,283.82507 L214.741728,207.676883 L367.35286,207.676883 L371.770887,283.82507 Z M373.376906,311.515325 L377.795072,387.663512 L258.005122,387.663512 L239.701213,311.515325 L373.376906,311.515325 Z M229.442849,387.663512 L110.813187,387.663512 L78.6235326,311.515325 L211.138939,311.515325 L229.442849,387.663512 Z M260.696872,775.327012 C260.696872,798.266366 242.046155,816.862387 219.0395,816.862387 C196.032846,816.862387 177.382268,798.266366 177.382268,775.327012 C177.382268,752.387659 196.032846,733.791638 219.0395,733.791638 C242.035803,733.81659 260.67177,752.39798 260.696872,775.327012 L260.696872,775.327012 Z M663.38345,775.327012 C663.38345,798.266366 644.732733,816.862387 621.726078,816.862387 C598.719424,816.862387 580.068846,798.266366 580.068846,775.327012 C580.068846,752.387659 598.719424,733.791638 621.726078,733.791638 C644.722381,733.81659 663.358348,752.39798 663.38345,775.327012 L663.38345,775.327012 Z M704.99237,283.82507 L566.583999,283.82507 L576.050743,207.676883 L728.344025,207.676883 L704.99237,283.82507 Z M186.179309,207.676883 L204.483496,283.82507 L66.9174342,283.82507 L34.7280588,207.676883 L186.179309,207.676883 Z" id="path-1"></path>
</svg>
