<?xml version="1.0" encoding="UTF-8"?>
<svg viewBox="0 0 1106 984" version="1.1" xmlns="http://www.w3.org/2000/svg" xmlns:xlink="http://www.w3.org/1999/xlink">
    <!-- Generator: sketchtool 56.3 (101010) - https://sketch.com -->
    <title>7BA474EE-5A68-403B-A27C-E73E50E81BDA</title>
    <desc>Created with sketchtool.</desc>
    <path opacity="0.08" fill="#1C7396" d="M1032.33735,0 L73.2626506,0 C32.8312117,0.074093048 0.0733119466,33.1810115 0,74.0432268 L0,908.712329 C0.0733119466,949.574544 32.8312117,982.681463 73.2626506,982.755556 L1032.33735,982.755556 C1072.76879,982.681463 1105.52669,949.574544 1105.6,908.712329 L1105.6,74.0432268 C1105.52669,33.1810115 1072.76879,0.074093048 1032.33735,0 Z M1065.63856,908.712322 C1065.63856,927.300024 1050.7291,942.368334 1032.33736,942.368334 L73.2626503,942.368334 C54.8709026,942.368334 39.9614452,927.300024 39.9614452,908.712322 L39.9614452,201.936079 L1065.63856,201.936079 L1065.63856,908.712322 Z M1065.63856,161.548857 L39.9614452,161.548857 L39.9614452,74.0432262 C39.9614452,55.4555241 54.8709026,40.3872143 73.2626503,40.3872143 L1032.33736,40.3872143 C1050.7291,40.3872143 1065.63856,55.4555241 1065.63856,74.0432262 L1065.63856,161.548857 Z M1032.33736,100.968039 C1032.33736,115.838201 1020.4098,127.892849 1005.6964,127.892849 C990.983001,127.892849 979.055435,115.838201 979.055435,100.968039 C979.055435,86.0978777 990.983001,74.0432299 1005.6964,74.0432299 C1020.4098,74.0432299 1032.33736,86.0978777 1032.33736,100.968039 Z M925.77352,100.968039 C925.77352,115.838201 913.845954,127.892849 899.132556,127.892849 C884.419157,127.892849 872.491591,115.838201 872.491591,100.968039 C872.491591,86.0978777 884.419157,74.0432299 899.132556,74.0432299 C913.845954,74.0432299 925.77352,86.0978777 925.77352,100.968039 Z M819.209618,100.968039 C819.209618,115.838201 807.282051,127.892849 792.568653,127.892849 C777.855254,127.892849 765.927688,115.838201 765.927688,100.968039 C765.927688,86.0978777 777.855254,74.0432299 792.568653,74.0432299 C807.282051,74.0432299 819.209618,86.0978777 819.209618,100.968039 Z M289.853688,536.746096 L326.351808,561.786169 L326.351808,586.556994 L290.519712,612.539436 C283.249716,617.686566 280.211163,627.063862 283.060242,635.560149 L299.710844,685.909543 C302.48294,694.410042 310.587355,699.944342 319.425157,699.371948 L363.649157,697.75646 L378.301687,717.680819 L363.915566,760.625891 C361.039016,769.092397 364.020988,778.4624 371.241831,783.646604 L414.400192,814.475511 C421.504449,819.860473 431.272802,819.860473 438.377059,814.475511 L473.143517,787.550701 L496.587565,794.955024 L509.908046,837.765472 C512.49135,846.27474 520.282653,852.071111 529.08954,852.035783 L529.08954,852.035783 L582.371467,852.035783 C591.239468,851.958572 598.996074,845.983201 601.419756,837.3616 L613.541394,794.416528 L636.852237,786.608333 L672.151514,813.533143 C679.255771,818.918105 689.024124,818.918105 696.128381,813.533143 L738.753923,781.627243 C745.887754,776.314994 748.707507,766.888743 745.680573,758.471906 L730.495224,716.469203 L744.748139,696.275595 L788.972139,697.083339 L788.972139,697.083339 C797.516686,697.174059 805.17256,691.76326 808.020428,683.620934 L824.005006,632.463795 C826.706513,623.917687 823.50509,614.594968 816.145922,609.577707 L779.248187,582.518273 L779.248187,557.747448 L815.080283,531.765006 C822.350279,526.617876 825.388832,517.24058 822.539753,508.744293 L805.889151,458.394899 C803.157036,449.863927 795.025696,444.31124 786.174838,444.932494 L741.950838,446.547982 L727.298308,426.623623 L741.684429,383.678551 C744.560979,375.212045 741.579007,365.842042 734.358164,360.657838 L691.199803,329.828931 C684.095546,324.443969 674.327193,324.443969 667.222936,329.828931 L632.456478,356.753741 L609.01243,349.349418 L595.691949,306.53897 C593.108645,298.029702 585.317342,292.233331 576.510455,292.268659 L576.510455,292.268659 L523.228528,292.268659 C514.360527,292.34587 506.603921,298.321242 504.180239,306.942843 L492.058601,349.887914 L468.747758,357.696109 L433.448481,330.771299 C426.344224,325.386337 416.575871,325.386337 409.471614,330.771299 L366.846072,362.677199 C359.712241,367.989448 356.892488,377.415699 359.919422,385.832536 L375.104771,427.835239 L360.851855,448.028847 L316.627856,447.221103 C307.937551,446.954318 300.074049,452.397664 297.179953,460.683508 L281.195375,511.840647 C277.569752,521.163748 281.254846,531.763839 289.853688,536.746096 L289.853688,536.746096 Z M331.546807,489.358418 L371.508253,490.166162 C378.092888,490.243801 384.303564,487.08027 388.158856,481.684847 L414.79982,444.124738 C418.655511,438.694789 419.603106,431.688522 417.330711,425.411996 L404.010229,387.582639 L422.658904,374.120234 L454.494857,398.352563 C459.741677,402.386253 466.619481,403.544767 472.877122,401.448916 L516.168689,386.774895 C522.554693,384.817144 527.552059,379.766534 529.489171,373.31249 L539.479533,334.136892 L562.657171,334.136892 L574.245991,372.63937 C576.183103,379.093414 581.180469,384.144024 587.566473,386.101774 L631.12445,399.564179 C637.425479,401.584648 644.307447,400.324632 649.506715,396.198578 L680.809848,371.427753 L699.724932,384.890158 L686.40445,422.988763 C684.255329,429.269399 685.301372,436.21663 689.201752,441.566881 L715.842716,478.588494 C719.655788,484.074954 726.003231,487.180663 732.626523,486.800561 L772.58797,485.319696 L779.914235,507.532664 L747.279054,530.688 C742.055695,534.641671 739.071887,540.924169 739.286764,547.516006 L739.286764,593.55743 C739.342769,600.202792 742.630331,606.39489 748.078283,610.116187 L781.113078,632.598403 L774.186428,654.945995 L734.224981,654.138251 C727.635104,654.037646 721.414523,657.206223 717.574378,662.619566 L690.933414,700.179675 C687.077723,705.609624 686.130128,712.615891 688.402523,718.892417 L701.723005,756.721774 L683.07433,770.184179 L651.238378,745.95185 C645.991558,741.918159 639.113753,740.759645 632.856112,742.855497 L590.230569,757.93339 C583.844565,759.891141 578.847199,764.941751 576.910087,771.395795 L566.120497,810.16752 L542.942858,810.16752 L531.354038,771.665043 C529.416927,765.210999 524.419561,760.160389 518.033556,758.202638 L474.47558,744.740234 C468.17455,742.719765 461.292582,743.979781 456.093314,748.105835 L424.790181,772.87666 L406.274711,759.279631 L419.595193,721.181026 C421.744315,714.90039 420.698272,707.953158 416.797892,702.602907 L390.156928,665.581295 C386.310226,660.134961 379.986128,657.040674 373.37312,657.369228 L333.411674,658.850092 L326.085409,636.637125 L358.72059,613.616413 C363.793787,609.576938 366.622166,603.308266 366.313265,596.788407 L366.313265,550.746983 C366.25726,544.10162 362.969698,537.909522 357.521747,534.188225 L324.486951,511.70601 L331.546807,489.358418 Z M520.564426,675.408866 C576.642778,692.957852 636.2027,661.364089 653.766733,604.751249 C671.330766,548.13841 640.282858,487.831522 584.329889,469.878397 C528.37692,451.925271 468.595358,483.088523 450.631896,539.573201 C441.923205,566.956988 444.414734,596.723676 457.551251,622.239806 C470.687768,647.755935 493.377626,666.901113 520.564426,675.408866 Z M488.728475,551.689365 C500.017077,516.448993 537.356725,497.048466 572.282821,508.277108 C607.208917,519.50575 626.595484,557.143596 615.663839,592.498728 C604.732194,627.85386 567.590684,647.639059 532.552862,636.771759 C515.496931,631.481707 501.254089,619.496973 493.015984,603.50319 C484.777879,587.509408 483.233338,568.843894 488.728475,551.689365 L488.728475,551.689365 Z" id="path-1"></path>
</svg>
