<?xml version="1.0" encoding="UTF-8" standalone="no"?>
<svg
   xmlns:svg="http://www.w3.org/2000/svg"
   xmlns="http://www.w3.org/2000/svg"
   viewBox="0 0 66 64"
   version="1.1"
   id="svg8">
  <!-- Generator: sketchtool 56.3 (101010) - https://sketch.com -->
  <title
     id="title2">6A5F3604-FD2C-44FE-8837-9854EDBD6323</title>
  <desc
     id="desc4">Created with sketchtool.</desc>
  <path
     fill="#1c7396"
     shape-rendering="geometricPrecision"
     d="M37.6234484,51 C37.4553558,51.7592266 37.3450324,53.5229286 38.9385387,55.9473515 C39.8996267,57.4069984 40.9406293,58.8124427 42.056768,60.1572469 C42.6371733,60.8546592 42.7628693,61.8244299 42.379456,62.6467733 C41.996032,63.4691121 41.1723947,63.9962524 40.2650667,64 L25.7349333,64 C24.8275947,63.9963053 24.003936,63.4691244 23.620608,62.6467285 C23.2372693,61.8243285 23.363168,60.8545451 23.9437867,60.1572917 C25.0595947,58.8123499 26.100416,57.4069173 27.0614933,55.947392 C28.6530276,53.5258255 28.5395199,51.7505983 28.3765868,51 L3.3,51 C1.4782845,50.9980508 0.0019884832,49.5527338 0,47.7692308 L0,39 L0,3.16216216 C0.0019884832,1.41654324 1.4782845,0.00190783784 3.3,0 L62.7,0 C64.521721,0.00190783784 65.998009,1.41654324 66,3.16216216 L66,38.69937 L66,47.7692308 C65.998009,49.5527338 64.521721,50.9980508 62.7,51 L37.6234484,51 Z M64,39 L2,39 L2,47.8888889 C2.00079271,48.5022111 2.49601329,48.9992 3.10714286,49 L62.8928571,49 C63.5039889,48.9992 63.9992029,48.5022111 64,47.8888889 L64,39 Z M64,37 L64,3.06060606 C63.9992029,2.47516212 63.5039889,2.00076364 62.8928571,2 L3.10714286,2 C2.49601329,2.00076364 2.00079271,2.47516212 2,3.06060606 L2,37 L64,37 Z M10.6,35.2 L8.46666667,35.2 C6.70015467,35.1980693 5.2685952,33.7665173 5.26666667,32 L5.26666667,7.46666667 C5.2685952,5.70014933 6.70015467,4.26859733 8.46666667,4.26666667 L10.6,4.26666667 C12.3665173,4.26859733 13.7980693,5.70014933 13.8,7.46666667 L13.8,32 C13.7980693,33.7665173 12.3665173,35.1980693 10.6,35.2 Z M8.46666667,6.4 C7.87787947,6.400768 7.40076373,6.87787733 7.4,7.46666667 L7.4,32 C7.40076373,32.5887893 7.87787947,33.0658987 8.46666667,33.0666667 L10.6,33.0666667 C11.1887872,33.0658987 11.6659029,32.5887893 11.6666667,32 L11.6666667,7.46666667 C11.6659029,6.87787733 11.1887872,6.400768 10.6,6.4 L8.46666667,6.4 Z M57.5333333,13.8666667 L55.4,13.8666667 C53.6334827,13.864736 52.2019307,12.433184 52.2,10.6666667 L52.2,7.46666667 C52.2019307,5.70014933 53.6334827,4.26859733 55.4,4.26666667 L57.5333333,4.26666667 C59.2998507,4.26859733 60.7314027,5.70014933 60.7333333,7.46666667 L60.7333333,10.6666667 C60.7314027,12.433184 59.2998507,13.864736 57.5333333,13.8666667 Z M55.4,6.4 C54.8112107,6.400768 54.3341013,6.87787733 54.3333333,7.46666667 L54.3333333,10.6666667 C54.3341013,11.255456 54.8112107,11.7325653 55.4,11.7333333 L57.5333333,11.7333333 C58.1221227,11.7325653 58.599232,11.255456 58.6,10.6666667 L58.6,7.46666667 C58.599232,6.87787733 58.1221227,6.400768 57.5333333,6.4 L55.4,6.4 Z M57.5333333,24.5333333 L55.4,24.5333333 C53.6334827,24.5314027 52.2019307,23.0998507 52.2,21.3333333 L52.2,19.2 C52.2019307,17.4334827 53.6334827,16.0019307 55.4,16 L57.5333333,16 C59.2998507,16.0019307 60.7314027,17.4334827 60.7333333,19.2 L60.7333333,21.3333333 C60.7314027,23.0998507 59.2998507,24.5314027 57.5333333,24.5333333 Z M55.4,18.1333333 C54.8112107,18.1341013 54.3341013,18.6112107 54.3333333,19.2 L54.3333333,21.3333333 C54.3341013,21.9221227 54.8112107,22.399232 55.4,22.4 L57.5333333,22.4 C58.1221227,22.399232 58.599232,21.9221227 58.6,21.3333333 L58.6,19.2 C58.599232,18.6112107 58.1221227,18.1341013 57.5333333,18.1333333 L55.4,18.1333333 Z M57.5333333,35.2 L55.4,35.2 C53.6334827,35.1980693 52.2019307,33.7665173 52.2,32 L52.2,29.8666667 C52.2019307,28.1001493 53.6334827,26.6685973 55.4,26.6666667 L57.5333333,26.6666667 C59.2998507,26.6685973 60.7314027,28.1001493 60.7333333,29.8666667 L60.7333333,32 C60.7314027,33.7665173 59.2998507,35.1980693 57.5333333,35.2 Z M55.4,28.8 C54.8112107,28.800768 54.3341013,29.2778773 54.3333333,29.8666667 L54.3333333,32 C54.3341013,32.5887893 54.8112107,33.0658987 55.4,33.0666667 L57.5333333,33.0666667 C58.1221227,33.0658987 58.599232,32.5887893 58.6,32 L58.6,29.8666667 C58.599232,29.2778773 58.1221227,28.800768 57.5333333,28.8 L55.4,28.8 Z M30.5562667,51.2 C30.6968747,53.3126613 30.0911467,55.4076213 28.8448107,57.1192747 C27.8403093,58.6446165 26.7523627,60.1133419 25.585952,61.5187499 C25.5283413,61.5818933 25.51648,61.6743616 25.5562667,61.7500043 C25.5845867,61.8232299 25.6565013,61.8701867 25.7349333,61.8666667 L40.2650667,61.8666667 C40.343488,61.8701781 40.415392,61.8232213 40.443712,61.7500043 C40.4834027,61.6744224 40.4717653,61.5821131 40.4145493,61.5187499 C39.247808,60.1134763 38.1596907,58.6447424 37.1551787,57.1192747 C35.9088427,55.4076213 35.3031253,53.3126613 35.4437333,51.2 L30.5562667,51.2 Z M30.8146342,20.8218898 L33,22.1331093 L35.2974359,20.7546478 L37.2666667,19.5729173 L37.2666667,13.3145813 L33,10.7541333 L28.7333333,13.3145493 L28.7333333,19.572896 L30.8146342,20.8218898 Z M26.6,19.5731093 L26.6,12.7104 C26.599936,12.3357653 26.7964693,11.988576 27.1177067,11.7958187 L32.45104,8.59581867 C32.788832,8.39269333 33.211168,8.39269333 33.54896,8.59581867 L38.8822933,11.7958187 C39.2035307,11.988576 39.4000533,12.3357653 39.4,12.7104 L39.4,19.5731093 L44.2156267,22.4624853 C44.536864,22.6552427 44.7333333,23.002432 44.7333333,23.3770667 L44.7333333,30.8437333 C44.7333333,31.218368 44.536864,31.5655573 44.2156267,31.7583147 L38.8822933,34.9583147 C38.716512,35.0579093 38.5267307,35.1104001 38.3333333,35.1104001 C38.139936,35.1104001 37.9501547,35.0579093 37.7843733,34.9583147 L33,32.0876907 L28.2156267,34.9583147 C28.0498453,35.0579093 27.860064,35.1104001 27.6666667,35.1104001 C27.4732693,35.1104001 27.283488,35.0579093 27.1177067,34.9583147 L21.7843733,31.7583147 C21.463136,31.5655573 21.2666667,31.218368 21.2666667,30.8437333 L21.2666667,23.3770667 C21.2666667,23.002432 21.463136,22.6552427 21.7843733,22.4624853 L26.6,19.5731093 Z M38.33352,21.420912 L36.0358974,22.7994855 L34.0666667,23.981216 L34.0666667,30.2395627 L38.3333333,32.8 L42.6,30.239584 L42.6,23.981248 L38.33352,21.420912 Z M29.8,22.701024 L27.66648,21.420912 L23.4,23.981216 L23.4,30.2395627 L27.6666667,32.8 L31.9333333,30.239584 L31.9333333,23.981248 L29.8,22.701024 Z"
     id="path-1" />
  <path
     d="m 31.957648,22.509236 v -5.867388 l -4.51465,-2.709 c -0.30633,-0.18387 -0.49129,-0.51719 -0.48522,-0.87441 0.0061,-0.35722 0.20225,-0.68407 0.51465,-0.85742 0.31239,-0.17335 0.69354,-0.16688 0.99987,0.01699 l 4.485365,2.691219 4.485365,-2.691219 c 0.30633,-0.18387 0.68748,-0.19034 0.99987,-0.01699 0.3124,0.17335 0.50858,0.5002 0.51465,0.85742 0.0061,0.35722 -0.17889,0.69054 -0.48522,0.87441 l -4.51468,2.708808 v 5.867562 l 4.000015,2.400009 4.485365,-2.691219 c 0.30633,-0.18387 0.68748,-0.19034 0.99987,-0.01699 0.3124,0.17335 0.50858,0.5002 0.51465,0.85742 0.0061,0.35722 -0.17889,0.69054 -0.48522,0.87441 l -4.51468,2.708808 v 6.433772 c 0,0.55228 -0.44772,1 -1,1 -0.55228,0 -1,-0.44772 -1,-1 v -6.43358 l -4.000005,-2.400189 -3.999995,2.399997 v 6.433772 c 0,0.55228 -0.44772,1 -1,1 -0.55228,0 -1,-0.44772 -1,-1 v -6.43358 l -4.51465,-2.709 c -0.30633,-0.18387 -0.49129,-0.51719 -0.48522,-0.87441 0.0061,-0.35722 0.20225,-0.68407 0.51465,-0.85742 0.31239,-0.17335 0.69354,-0.16688 0.99987,0.01699 l 4.485365,2.691219 z m 2,0.545436 c 6.94e-4,0.03501 -4.55e-4,0.06996 -0.0034,0.104708 0.0022,-0.02768 0.0034,-0.05568 0.0034,-0.08395 z m -0.0066,0.136672 c -0.01469,0.127221 -0.05325,0.247171 -0.11109,0.355254 0.05894,-0.110615 0.09654,-0.231298 0.11109,-0.355254 z m -0.416531,0.701051 c -0.01664,0.01177 -0.03365,0.02304 -0.05102,0.0338 0.01742,-0.01088 0.03445,-0.02212 0.05102,-0.0338 z m -1.576869,-1.383159 0.467079,-0.280248 1.033512,1.712313 z"
     id="path-3"
     style="fill:#1c7396;shape-rendering:geometricPrecision" />
</svg>
