<?xml version="1.0" encoding="UTF-8"?>
<svg width="35px" height="36px" viewBox="0 0 35 36" version="1.1" xmlns="http://www.w3.org/2000/svg" xmlns:xlink="http://www.w3.org/1999/xlink">
    <title>3C995C7F-AAEA-4D09-AD9C-0AD912807855</title>
    <defs>
        <rect id="path-1" x="0" y="0" width="33.6342857" height="36"></rect>
        <path d="M12.2578286,0.141979962 C12.5158844,0.141979962 12.9803563,0.196996664 13.4465906,0.472575638 C14.1681959,0.883892482 15.9701582,2.3415328 16.6289694,2.8756178 L16.6929533,2.92749272 L23.5643844,2.97602442 C23.6707715,2.97602442 23.7680661,3.01946478 23.8414739,3.09040304 C23.9018889,3.14878561 23.9462315,3.22583578 23.9658991,3.31283833 L23.9746699,3.36616442 L23.9771864,15.2675442 C24.8308516,15.756396 25.5488696,16.4948767 26.0440091,17.3899774 C26.5083603,18.2294199 26.7766286,19.2067001 26.7766286,20.2451546 C26.7766286,21.7969016 26.1866086,23.2005081 25.2320242,24.2161905 C24.2771582,25.2321724 22.9575594,25.86 21.4987636,25.86 C20.4339471,25.86 19.4435263,25.5300746 18.614606,24.9593055 C17.7806175,24.3850466 17.1100977,23.5670796 16.6918601,22.5964332 L16.6310277,22.4497025 L0.543584416,22.3319038 C0.437197325,22.3319038 0.339902695,22.2884635 0.266494943,22.2175252 C0.206080963,22.1591436 0.161738754,22.082095 0.14207067,21.9950942 L0.133299533,21.9417692 L0.1308,3.41440083 C0.1308,3.30162265 0.171572421,3.19854036 0.237979513,3.12074334 C0.293049971,3.05622737 0.365766591,3.00896973 0.447833709,2.98802164 L0.498129675,2.97868233 L7.2715468,2.97600789 L9.99456966,0.898115632 C10.5633708,0.479126082 11.2047978,0.214157416 11.8587746,0.153394991 L11.9897195,0.143980126 L12.2578286,0.141979962 Z M21.4987636,15.5070621 C20.2667713,15.5070621 19.1538551,16.0360086 18.3488865,16.8924991 C17.5436366,17.7492888 17.0464675,18.9338894 17.0464675,20.2451546 C17.0464675,21.5564199 17.5436366,22.7410204 18.3488865,23.5978102 C19.1538551,24.4543006 20.2667713,24.9832472 21.4987636,24.9832472 C22.730756,24.9832472 23.8436722,24.4543006 24.6486408,23.5978102 C25.4538907,22.7410204 25.9510597,21.5564199 25.9510597,20.2451546 C25.9510597,18.9338894 25.4538907,17.7492888 24.6486408,16.8924991 C23.8436722,16.0360086 22.730756,15.5070621 21.4987636,15.5070621 L21.4987636,15.5070621 Z M24.4705958,17.7918924 L24.5155948,17.7928775 C24.6214718,17.8009242 24.7254855,17.8492353 24.797983,17.9373926 C24.8639165,18.0175682 24.8940097,18.1209869 24.8951935,18.2256381 C24.896128,18.3138766 24.8766763,18.4035125 24.8387873,18.4832524 L24.8069445,18.5410254 L23.5870769,19.6769917 L20.4653605,22.5941538 C20.3820373,22.6600959 20.2992106,22.7078485 20.194161,22.7078485 C20.1236425,22.7078485 20.0533167,22.6868193 19.9895898,22.6454902 L19.943132,22.6106985 L18.220755,20.7820805 C18.1386997,20.6947733 18.0962649,20.5860167 18.0962649,20.4765052 C18.0962649,20.3669937 18.1386997,20.2582371 18.220755,20.1709299 C18.297772,20.0889835 18.3924582,20.0441527 18.4888943,20.0386984 C18.5679026,20.0342299 18.647485,20.0562352 18.7185496,20.1037382 L18.7600935,20.1352918 L20.1883903,21.6507529 L24.2209908,17.8926861 C24.2795736,17.8381452 24.3513287,17.8065352 24.4257252,17.795826 L24.4705958,17.7918924 Z M23.1516,5.96385118 L0.956368831,5.96385118 L0.956368831,21.455151 L16.3714394,21.455151 L16.3319476,21.3072794 C16.2480943,20.9625528 16.2208987,20.6185445 16.2208987,20.2451546 C16.2208987,18.6934077 16.8109187,17.2898011 17.7655031,16.2741188 C18.720369,15.2581368 20.0399679,14.6303093 21.4987636,14.6303093 C21.9885361,14.6303093 22.4782082,14.7107378 23.1516,14.9025678 L23.1516,14.9025678 L23.1516,5.96385118 Z M11.1434805,15.9316562 C11.2570847,15.9316562 11.3603133,15.9811922 11.4351722,16.0608425 C11.5097487,16.1401921 11.5562649,16.2495729 11.5562649,16.3700326 C11.5562649,16.4828108 11.5154925,16.5858931 11.4490854,16.6636901 C11.3940153,16.7282057 11.3212993,16.7754631 11.2392328,16.7964114 L11.1889372,16.8057509 L3.80509091,16.808409 C3.69148675,16.808409 3.58825814,16.758873 3.5133992,16.6792228 C3.43882276,16.5998731 3.39230649,16.4904924 3.39230649,16.3700326 C3.39230649,16.2572544 3.43307891,16.1541722 3.49948601,16.0763751 C3.55455611,16.0118596 3.62727215,15.9646021 3.70933862,15.9436538 L3.75963419,15.9343144 L11.1434805,15.9316562 Z M11.1434805,12.89518 C11.2570847,12.89518 11.3603133,12.944716 11.4351722,13.0243663 C11.5097487,13.1037159 11.5562649,13.2130967 11.5562649,13.3335564 C11.5562649,13.4463346 11.5154925,13.5494169 11.4490854,13.6272139 C11.3940153,13.6917295 11.3212993,13.7389869 11.2392328,13.7599352 L11.1889372,13.7692747 L3.80509091,13.7719328 C3.69148675,13.7719328 3.58825814,13.7223968 3.5133992,13.6427466 C3.43882276,13.5633969 3.39230649,13.4540162 3.39230649,13.3335564 C3.39230649,13.2207782 3.43307891,13.117696 3.49948601,13.0398989 C3.55455611,12.9753834 3.62727214,12.9281259 3.70933861,12.9071776 L3.75963418,12.8978382 L11.1434805,12.89518 Z M11.1434805,9.82978498 C11.2570847,9.82978498 11.3603133,9.87932098 11.4351722,9.95897124 C11.5097487,10.0383209 11.5562649,10.1477017 11.5562649,10.2681614 C11.5562649,10.3809396 11.5154925,10.4840219 11.4490854,10.5618189 C11.3940153,10.6263344 11.3212993,10.6735919 11.2392328,10.6945402 L11.1889372,10.7038797 L3.80509091,10.7065378 C3.69148675,10.7065378 3.58825814,10.6570018 3.5133992,10.5773516 C3.43882276,10.4980019 3.39230649,10.3886211 3.39230649,10.2681614 C3.39230649,10.1553832 3.43307891,10.0523009 3.49948601,9.97450391 C3.55455611,9.90998836 3.62727214,9.86273091 3.70933861,9.84178261 L3.75963418,9.83244313 L11.1434805,9.82978498 Z M23.1516,3.82385843 L0.956368831,3.82385843 L0.956368831,5.08709835 L23.1516,5.08709835 L23.1516,3.82385843 Z M12.2306494,0.989813979 C11.6744884,0.989813979 11.0929231,1.17225001 10.4986825,1.59274829 L10.4986825,1.59274829 L8.72334086,2.94710559 L15.3858848,2.94710559 L15.0514779,2.69295523 L14.9473929,2.6137088 L14.9473929,2.6137088 L14.8425891,2.53368131 L14.5264087,2.29156435 L14.4204609,2.21045122 C13.8571056,1.77945965 13.3251427,1.3784467 13.0257572,1.20855465 C12.8220893,1.08465584 12.5264461,0.989813979 12.2306494,0.989813979 L12.2306494,0.989813979 Z" id="path-3"></path>
    </defs>
    <g id="10-Technologies" stroke="none" stroke-width="1" fill="none" fill-rule="evenodd">
        <g transform="translate(-771.000000, -3377.000000)" id="Our-Process">
            <g transform="translate(0.000000, 2994.000000)">
                <g id="Content-Copy" transform="translate(743.000000, 226.000000)">
                    <g id="Rows/-Row-Process-Copy-2" transform="translate(0.000000, 140.000000)">
                        <g id="Service-Icon/Design" transform="translate(28.962857, 17.000000)">
                            <mask id="mask-2" fill="white">
                                <use xlink:href="#path-1"></use>
                            </mask>
                            <g id="Mask"></g>
                            <g id="Color" mask="url(#mask-2)">
                                <g transform="translate(3.425714, 4.688889)">
                                    <mask id="mask-4" fill="white">
                                        <use xlink:href="#path-3"></use>
                                    </mask>
                                    <use id="Mask" stroke="none" fill="#000000" fill-rule="nonzero" xlink:href="#path-3"></use>
                                    <g id="Color" stroke="none" stroke-width="1" fill="none" fill-rule="evenodd" mask="url(#mask-4)">
                                        <g transform="translate(-18.000000, -20.000000)" id="Color/Primary">
                                            <rect id="Base" fill="#F15924" x="0" y="0" width="61.7824286" height="67.3125"></rect>
                                        </g>
                                    </g>
                                </g>
                            </g>
                        </g>
                    </g>
                </g>
            </g>
        </g>
    </g>
</svg>