<?xml version="1.0" encoding="UTF-8"?>
<svg width="35px" height="36px" viewBox="0 0 35 36" version="1.1" xmlns="http://www.w3.org/2000/svg" xmlns:xlink="http://www.w3.org/1999/xlink">
    <title>1071BF01-5913-4A1C-8DB1-A06B96C80BBF</title>
    <defs>
        <rect id="path-1" x="0" y="0" width="33.6342857" height="36"></rect>
        <path d="M14.5396109,8.95068702 C16.5394892,8.95068702 18.3500344,9.81866066 19.6606089,11.2219928 C20.9711841,12.6253256 21.7817885,14.564017 21.7817885,16.7054108 C21.7795468,18.8457922 20.9684754,20.7832485 19.6582134,22.1862056 C18.3479669,23.5891462 16.5385414,24.4575997 14.5396109,24.46 C12.5397384,24.46 10.7291979,23.5920314 9.41862424,22.1887204 C8.10804247,20.7854006 7.29743331,18.8467324 7.29743331,16.7053435 C7.29743331,14.5639547 8.10804247,12.6252864 9.41862424,11.2219667 C10.7291979,9.81865563 12.5397384,8.95068702 14.5396109,8.95068702 Z M14.5396109,9.80351145 C12.7596945,9.80351145 11.1482776,10.576021 9.98183881,11.8249912 C8.81540023,13.0739611 8.09393996,14.7993917 8.09393996,16.70523 C8.09596097,18.6102794 8.81783757,20.3346629 9.98396453,21.5833405 C11.1501078,22.8320355 12.7605133,23.6050116 14.5395685,23.6071755 C16.3195334,23.6071755 17.9309551,22.8346608 19.0973949,21.585669 C20.2638264,20.336686 20.9852818,18.6112322 20.9852818,16.7053435 C20.9852818,14.7994548 20.2638264,13.0740011 19.0973949,11.8250181 C17.9309551,10.5760262 16.3195334,9.80351145 14.5396109,9.80351145 L14.5396109,9.80351145 Z M14.5395151,10.7824563 C15.6581203,10.7824563 16.7216503,11.1432153 17.6125445,11.7806195 C18.5034438,12.4180275 19.2217053,13.3320836 19.6497681,14.438673 C20.0778293,15.5452582 20.1735452,16.7354152 19.9645006,17.8606588 C19.7554564,18.9858998 19.2416531,20.0462281 18.4506735,20.8931588 C18.400373,20.9470185 18.3385637,20.9844663 18.2721503,21.00352 C18.2057392,21.022573 18.1347245,21.0232328 18.0660112,21.003518 C17.9973005,20.9838038 17.9361123,20.9452147 17.8874993,20.8931634 C17.8388831,20.8411086 17.8028437,20.7755901 17.7844339,20.7020209 C17.7476166,20.5548908 17.7868997,20.3979036 17.8874936,20.2901918 C18.8119417,19.3002569 19.2741502,18.0028147 19.2741228,16.7053829 C19.2740955,15.4079512 18.8118324,14.1105313 17.8873426,13.120641 C16.9628573,12.1307555 15.7511859,11.6358142 14.5395151,11.6358142 C13.3278443,11.6358142 12.1161729,12.1307555 11.1916876,13.120641 C10.2671983,14.1105309 9.80493516,15.40795 9.80490644,16.7053801 C9.80487772,18.0028114 10.2670843,19.3002523 11.191532,20.2901869 C11.2692939,20.3734379 11.3081752,20.4825525 11.3081783,20.5916683 C11.3081813,20.7007855 11.2693052,20.8099047 11.1915487,20.8931626 C11.1137895,20.9764233 11.0118709,21.018058 10.9099521,21.018058 C10.8080332,21.018058 10.7061153,20.9764212 10.6283572,20.8931592 C9.83737753,20.0462285 9.32357401,18.9859001 9.11452977,17.860659 C8.90548502,16.7354153 9.0012009,15.5452583 9.42926211,14.438673 C9.85732491,13.3320836 10.5755864,12.4180275 11.4664858,11.7806195 C12.3573799,11.1432153 13.4209099,10.7824563 14.5395151,10.7824563 Z M14.4447577,15.563502 C14.5822932,15.5861396 14.7080524,15.6442475 14.8151887,15.7333001 L14.8599442,15.7733469 L17.3380827,17.910986 C17.3974917,17.9620407 17.4352562,18.0323754 17.4488081,18.1077029 C17.4623605,18.1830329 17.4516989,18.2633564 17.4142534,18.3343864 C17.379851,18.399644 17.3274936,18.448234 17.2670667,18.4762517 C17.2186426,18.4987041 17.1650372,18.5079528 17.11134,18.5019784 L17.0711293,18.4946116 L14.099323,17.3290847 C13.8607191,17.1951079 13.6990728,17.0527078 13.5975143,16.9032599 C13.4863621,16.7396943 13.4481093,16.568109 13.4587097,16.3915935 C13.4688017,16.2235432 13.5220507,16.065941 13.6083154,15.9333381 C13.6949744,15.8001291 13.8149501,15.692146 13.9563291,15.624861 C14.1266546,15.5567511 14.2928351,15.5384963 14.4447577,15.563502 Z M27.7494726,0.339999976 C28.0367723,0.340335798 28.2978812,0.46035277 28.4916555,0.656008584 C28.6688435,0.834917121 28.7897436,1.07706405 28.8228283,1.34702056 L28.8300878,1.42880637 L28.8320571,16.8885496 C28.8320571,16.997865 28.7936407,17.0975784 28.7304647,17.1730457 C28.6776158,17.2361766 28.6074482,17.2823573 28.5279516,17.3029847 L28.479198,17.3122259 L22.9586644,17.3149618 C22.8486892,17.3149618 22.7491292,17.2672347 22.6770619,17.1900741 C22.6049877,17.1129062 22.560411,17.0062995 22.560411,16.8885496 C22.560411,16.7792343 22.5988274,16.6795208 22.6620034,16.6040536 C22.7148525,16.5409224 22.7850205,16.4947416 22.8645175,16.4741143 L22.9132713,16.4648732 L28.0352983,16.4619789 L28.0352983,4.8568 L7.95787067,4.8568 L7.95808812,11.3923664 C7.95808812,11.4934213 7.92526154,11.5862724 7.87038748,11.6593459 C7.8151303,11.7329296 7.73753795,11.7864874 7.64859388,11.8081514 C7.50781557,11.812271 7.39472786,11.776818 7.31285036,11.7138637 C7.23878349,11.6569149 7.19095287,11.5775844 7.17149284,11.4870943 L7.16413693,11.4409713 L7.16158139,1.49917118 C7.161895,1.19155266 7.27398006,0.911968856 7.45670145,0.704481541 C7.62377525,0.514762681 7.84990063,0.385307491 8.10198421,0.34988183 L8.17835494,0.342108783 L27.7494726,0.339999976 Z M27.7516221,1.1928154 L8.06307005,1.26625644 L8.03251942,1.30040408 C7.99445259,1.3500796 7.96757257,1.41616933 7.95808835,1.49666852 L7.95808835,1.49666852 L7.95786849,4.004 L28.0363446,4.004 L27.9667014,1.304853 L27.9347916,1.27224519 C27.8883853,1.23161771 27.8266971,1.20293916 27.7516221,1.1928154 L27.7516221,1.1928154 Z M26.7228227,2.17206107 C26.8327979,2.17206107 26.9323579,2.21978817 27.0044252,2.2969488 C27.0764994,2.37411675 27.1210761,2.48072336 27.1210761,2.59847328 C27.1210761,2.70778864 27.0826597,2.80750211 27.0194837,2.88296934 C26.9666323,2.94610318 26.8964607,2.99228521 26.8169595,3.0129112 L26.7682032,3.02215123 L24.6696454,3.0248855 C24.5596703,3.0248855 24.4601103,2.9771584 24.3880429,2.89999776 C24.3159688,2.82282982 24.2713921,2.7162232 24.2713921,2.59847328 C24.2713921,2.48915793 24.3098085,2.38944446 24.3729845,2.31397723 C24.4258358,2.25084338 24.4960075,2.20466136 24.5755086,2.18403537 L24.6242649,2.17479533 L26.7228227,2.17206107 Z M22.9586644,2.17206107 C23.0686395,2.17206107 23.1681995,2.21978817 23.2402669,2.2969488 C23.312341,2.37411675 23.3569177,2.48072336 23.3569177,2.59847328 C23.3569177,2.70778864 23.3185013,2.80750211 23.2553253,2.88296934 C23.202474,2.94610318 23.1323024,2.99228521 23.0528012,3.0129112 L23.0040449,3.02215123 L20.9054871,3.0248855 C20.7955119,3.0248855 20.6959519,2.9771584 20.6238846,2.89999776 C20.5518104,2.82282982 20.5072337,2.7162232 20.5072337,2.59847328 C20.5072337,2.48915793 20.5456502,2.38944446 20.6088262,2.31397723 C20.6616775,2.25084338 20.7318491,2.20466136 20.8113503,2.18403537 L20.8601066,2.17479533 L22.9586644,2.17206107 Z M19.194506,2.17206107 C19.3044812,2.17206107 19.4040412,2.21978817 19.4761085,2.2969488 C19.5481827,2.37411675 19.5927594,2.48072336 19.5927594,2.59847328 C19.5927594,2.70778864 19.554343,2.80750211 19.491167,2.88296934 C19.4383156,2.94610318 19.368144,2.99228521 19.2886428,3.0129112 L19.2398865,3.02215123 L17.1413287,3.0248855 C17.0313536,3.0248855 16.9317936,2.9771584 16.8597262,2.89999776 C16.7876521,2.82282982 16.7430754,2.7162232 16.7430754,2.59847328 C16.7430754,2.48915793 16.7814918,2.38944446 16.8446678,2.31397723 C16.8975191,2.25084338 16.9676908,2.20466136 17.0471919,2.18403537 L17.0959482,2.17479533 L19.194506,2.17206107 Z M6.19104991,12.0651908 C6.30102507,12.0651908 6.40058508,12.1129179 6.47265242,12.1900786 C6.54472658,12.2672465 6.58930327,12.3738531 6.58930327,12.4916031 C6.58930327,12.6009184 6.55088685,12.7006319 6.48771085,12.7760991 C6.42428925,12.8518597 6.33592643,12.9032097 6.23643043,12.915281 L6.23643043,12.915281 L4.13787263,12.9180153 C4.02789748,12.9180153 3.92833747,12.8702882 3.85627013,12.7931275 C3.78419597,12.7159596 3.73961928,12.609353 3.73961928,12.4916031 C3.73961928,12.3822877 3.7780357,12.2825742 3.8412117,12.207107 C3.9046333,12.1313464 3.99299611,12.0799964 4.09249212,12.0679251 L4.09249212,12.0679251 L6.19104991,12.0651908 Z M6.19104991,8.76748092 C6.30102507,8.76748092 6.40058508,8.81520801 6.47265242,8.89236865 C6.54472658,8.96953659 6.58930327,9.07614321 6.58930327,9.19389313 C6.58930327,9.30320849 6.55088685,9.40292196 6.48771085,9.47838919 C6.42429217,9.55414631 6.33593457,9.60549507 6.23644416,9.61756941 L6.23644416,9.61756941 L0.715910499,9.62030534 C0.605935345,9.62030534 0.506375332,9.57257825 0.434307997,9.49541761 C0.362233835,9.41824966 0.317657143,9.31164305 0.317657143,9.19389313 C0.317657143,9.08457777 0.356073561,8.9848643 0.419249563,8.90939707 C0.482668244,8.83363995 0.571025847,8.78229119 0.67051625,8.77021685 L0.67051625,8.77021685 L6.19104991,8.76748092 Z M6.19104991,5.46977099 C6.30102507,5.46977099 6.40058508,5.51749809 6.47265242,5.59465873 C6.54472658,5.67182667 6.58930327,5.77843329 6.58930327,5.89618321 C6.58930327,6.00549856 6.55088685,6.10521203 6.48771085,6.18067926 C6.42429111,6.25643765 6.33593161,6.30778686 6.23643917,6.31986009 L6.23643917,6.31986009 L2.76908778,6.32259542 C2.65911263,6.32259542 2.55955261,6.27486832 2.48748528,6.19770769 C2.41541112,6.12053974 2.37083442,6.01393313 2.37083442,5.89618321 C2.37083442,5.78686785 2.40925084,5.68715438 2.47242684,5.61168715 C2.53584659,5.53592876 2.62420609,5.48457955 2.72369853,5.47250632 L2.72369853,5.47250632 L6.19104991,5.46977099 Z" id="path-3"></path>
    </defs>
    <g id="10-Technologies" stroke="none" stroke-width="1" fill="none" fill-rule="evenodd">
        <g transform="translate(-771.000000, -3517.000000)" id="Our-Process">
            <g transform="translate(0.000000, 2994.000000)">
                <g id="Content-Copy" transform="translate(743.000000, 226.000000)">
                    <g id="Rows/-Row-Process" transform="translate(0.000000, 280.000000)">
                        <g id="Service-Icon/Design" transform="translate(28.962857, 17.000000)">
                            <mask id="mask-2" fill="white">
                                <use xlink:href="#path-1"></use>
                            </mask>
                            <g id="Mask"></g>
                            <g id="Color" mask="url(#mask-2)">
                                <g transform="translate(2.242286, 6.400000)">
                                    <mask id="mask-4" fill="white">
                                        <use xlink:href="#path-3"></use>
                                    </mask>
                                    <use id="Mask" stroke="none" fill="#979797" fill-rule="nonzero" xlink:href="#path-3"></use>
                                    <g id="Color" stroke="none" stroke-width="1" fill="none" fill-rule="evenodd" mask="url(#mask-4)">
                                        <g transform="translate(-100.000000, -83.000000)" id="Color/Primary">
                                            <rect id="Base" fill="#F15924" x="0" y="0" width="189.032779" height="199.431048"></rect>
                                        </g>
                                    </g>
                                </g>
                            </g>
                        </g>
                    </g>
                </g>
            </g>
        </g>
    </g>
</svg>