<?xml version="1.0" encoding="UTF-8"?>
<svg width="36px" height="36px" viewBox="0 0 36 36" version="1.1" xmlns="http://www.w3.org/2000/svg" xmlns:xlink="http://www.w3.org/1999/xlink">
    <title>426BF598-87C9-4A84-BA0C-2FC3062BFE25</title>
    <defs>
        <rect id="path-1" x="0" y="0" width="36" height="36"></rect>
        <path d="M12.7819738,0.185170555 C12.8832199,0.1944266 12.9514688,0.215059269 13.0071886,0.248509205 L13.0392808,0.270128764 L19.8831325,6.77353926 C19.9561924,6.85833081 19.993214,6.9277307 20.0089084,6.99757855 L20.0158834,7.03966773 L20.0185945,21.7765881 C19.993273,22.548107 19.6913054,23.2282459 19.2145229,23.7229167 C18.7597183,24.1947852 18.145928,24.4977419 17.4640789,24.550065 L17.3430646,24.5566802 L3.07271718,24.5582471 C2.30435722,24.5328903 1.62695558,24.2298087 1.1342617,23.7512464 C0.664167459,23.2946354 0.362360635,22.67837 0.310228235,21.9937093 L0.303636741,21.8721955 L0.302075578,2.96679214 C0.327339883,2.19528125 0.629273407,1.5151486 1.10603352,1.0204798 C1.56082522,0.548604622 2.1746189,0.245643373 2.85647566,0.193319651 L2.97749135,0.186704461 L12.7819738,0.185170555 Z M12.4501439,1.04102853 L2.98377221,1.04306192 L2.88457724,1.05022476 C2.42499005,1.0953528 2.01326894,1.30316225 1.70607749,1.62582775 C1.38506086,1.96301483 1.17804987,2.42583634 1.15363044,2.9597082 L1.15363044,2.9597082 L1.15558064,21.8658111 L1.16271611,21.9653283 C1.20767374,22.4264124 1.4147193,22.8395285 1.73619014,23.147774 C2.07221863,23.4699783 2.53346456,23.6777565 3.06557937,23.7022796 L3.06557937,23.7022796 L17.3367765,23.7003227 L17.4359722,23.6931599 C17.895563,23.6480318 18.3072841,23.4402224 18.6144756,23.1175569 C18.9354922,22.7803698 19.1425032,22.3175483 19.1669856,21.7836764 L19.1669856,21.7836764 L19.1669856,7.47771179 L13.9649581,7.47565273 L13.8711775,7.46817134 C13.498884,7.42718307 13.1619135,7.25449937 12.9098909,6.98818421 C12.6421752,6.70528594 12.4704633,6.3169538 12.4500524,5.86879263 L12.4500524,5.86879263 L12.4501439,1.04102853 Z M10.7178853,11.7086184 L10.7719858,11.713015 C10.8896543,11.7428493 10.9830425,11.8018598 11.0459375,11.8794639 C11.0987292,11.9446018 11.1297055,12.0226545 11.1356703,12.106104 L11.1362222,12.1567613 L10.0309691,19.483802 C10.0019573,19.5982296 9.94672397,19.6893807 9.87403016,19.7522617 C9.80116099,19.8152944 9.71097442,19.8494275 9.61436654,19.8503403 C9.47595868,19.8309011 9.366675,19.7756883 9.29266003,19.6973374 C9.22944806,19.6304224 9.19258438,19.5469079 9.1851721,19.4568208 L9.18428373,19.4020601 L10.2895921,12.0749774 C10.3211915,11.9493944 10.3865421,11.8509525 10.4719383,11.7877739 C10.5290339,11.7455328 10.5949441,11.7193033 10.6648151,11.7112329 L10.7178853,11.7086184 Z M12.7304613,13.1658516 C12.8052278,13.1644739 12.8800806,13.1827694 12.9466735,13.2203394 L12.9949391,13.2521245 L14.8894777,15.5019204 C14.9504332,15.592233 14.9824112,15.6841261 14.9869301,15.7719575 C14.9905714,15.842732 14.9762271,15.9105875 14.9455612,15.9721341 L14.9195274,16.0170582 L13.0659971,18.2383222 C12.9535999,18.349049 12.848634,18.393119 12.737987,18.393119 C12.6386923,18.393119 12.5425556,18.358631 12.4648568,18.2931732 C12.380989,18.2225394 12.3307209,18.1258286 12.3166059,18.0242212 C12.3049131,17.9400511 12.3180188,17.8524993 12.3574528,17.7736038 L12.3842848,17.7274016 L14.0094099,15.7794069 L12.4143033,13.8713137 C12.3414429,13.7633693 12.3111861,13.6488081 12.3204179,13.5427645 C12.329767,13.4353746 12.3798207,13.3373542 12.4648599,13.2657169 C12.5421619,13.2005974 12.6362471,13.1675878 12.7304613,13.1658516 Z M7.5685564,13.1660192 C7.66960027,13.162706 7.77216504,13.1953525 7.8556932,13.2657169 C7.93954867,13.3363571 7.98981243,13.4330771 8.00392769,13.5346901 C8.01561975,13.6188591 8.00251979,13.7064075 7.96309352,13.7852956 L7.93626632,13.831493 L6.31114316,15.7794858 L7.90624975,17.687579 C7.97911015,17.7955234 8.00936697,17.9100846 8.00013512,18.0161282 C7.99078605,18.1235181 7.94073235,18.2215385 7.85569181,18.2931769 C7.77799769,18.3586308 7.68186091,18.393119 7.5825661,18.393119 C7.49301301,18.393119 7.4059795,18.3650808 7.33364092,18.3126972 L7.29209857,18.2783752 L5.43111714,16.0570341 C5.37013449,15.9667016 5.3381429,15.8747866 5.33362299,15.7869352 C5.32998169,15.7161607 5.34432598,15.6483052 5.37499188,15.5867586 L5.40102561,15.5418345 L7.25459334,13.3205257 C7.36464815,13.2116786 7.46531881,13.1694043 7.5685564,13.1660192 Z M13.3015055,1.69359304 L13.3040583,5.93494258 L13.3127311,6.00292639 C13.3400948,6.15939325 13.4168827,6.29993427 13.5333167,6.40792459 C13.6593383,6.52480724 13.8321924,6.60379105 14.0399076,6.62171561 L14.0399076,6.62171561 L18.4845339,6.62183406 L13.3015055,1.69359304 Z" id="path-3"></path>
    </defs>
    <g id="09-Industry-Landing-Page" stroke="none" stroke-width="1" fill="none" fill-rule="evenodd">
        <g id="09-Industries---Fintech---ALT" transform="translate(-672.000000, -4935.000000)">
            <g id="Our-Process" transform="translate(0.000000, 4554.000000)">
                <g id="Content" transform="translate(604.000000, 106.000000)">
                    <g id="Rows/-Row-Process" transform="translate(37.000000, 258.000000)">
                        <g id="Service-Icon/Design" transform="translate(31.000000, 17.000000)">
                            <mask id="mask-2" fill="white">
                                <use xlink:href="#path-1"></use>
                            </mask>
                            <g id="Mask"></g>
                            <g id="Color" mask="url(#mask-2)">
                                <g transform="translate(7.750000, 5.600000)">
                                    <mask id="mask-4" fill="white">
                                        <use xlink:href="#path-3"></use>
                                    </mask>
                                    <use id="Mask" stroke="none" fill="#979797" fill-rule="nonzero" xlink:href="#path-3"></use>
                                    <g id="Group" stroke="none" stroke-width="1" fill="none" fill-rule="evenodd" mask="url(#mask-4)">
                                        <g transform="translate(-25.000000, -19.000000)" id="Color/Primary" fill="#F15924">
                                            <rect id="Base" x="0" y="0" width="70.65" height="63.675"></rect>
                                        </g>
                                    </g>
                                </g>
                            </g>
                        </g>
                    </g>
                </g>
            </g>
        </g>
    </g>
</svg>