<?xml version="1.0" encoding="UTF-8"?>
<svg width="35px" height="36px" viewBox="0 0 35 36" version="1.1" xmlns="http://www.w3.org/2000/svg" xmlns:xlink="http://www.w3.org/1999/xlink">
    <title>7F6B3978-A524-461F-9AD5-DA75A8A51E6F</title>
    <defs>
        <rect id="path-1" x="0" y="0" width="33.6342857" height="36"></rect>
        <path d="M26.1690853,7.30410422 C26.6565969,7.30595256 27.0975948,7.5198032 27.4169467,7.86442214 C27.7365132,8.20927268 27.9342872,8.68504957 27.935143,9.21035605 L27.935143,9.21035605 L27.935143,19.7934222 C27.9342872,20.318903 27.7365132,20.7946799 27.4169467,21.1395304 C27.0975948,21.4841494 26.6565969,21.698 26.1694162,21.6998477 L26.1694162,21.6998477 L14.9164846,21.6998477 L11.4978473,25.3825176 C11.4404669,25.4409342 11.3698056,25.4784049 11.2952718,25.4930324 C11.2208011,25.5076476 11.1424752,25.4994536 11.0697154,25.4666154 C10.9968313,25.433721 10.9363972,25.379205 10.8937694,25.3116623 C10.8510479,25.2439712 10.8262043,25.1631954 10.8246301,25.0799092 L10.8246301,25.0799092 L10.8246301,21.6998477 L9.90690059,21.6998479 C9.4187801,21.698923 8.97700417,21.4853994 8.65702576,21.1407133 C8.33683216,20.7957955 8.13858283,20.3195566 8.13772383,19.7935965 L8.13772383,19.7935965 L8.13772383,16.1880057 C8.13772383,16.0689826 8.18246423,15.9611988 8.25488166,15.8831896 C8.32708313,15.8054129 8.42681412,15.7572515 8.53700424,15.7572515 C8.64719435,15.7572515 8.74692535,15.8054129 8.81912681,15.8831896 C8.89154424,15.9611988 8.93628464,16.0689826 8.93628464,16.1880057 L8.93628464,16.1880057 L8.93628528,19.7939666 C8.9372806,20.081843 9.04602021,20.3423049 9.22126769,20.5310844 C9.39672949,20.7200948 9.63884506,20.8372651 9.9067352,20.8383392 L9.9067352,20.8383392 L11.2206258,20.8383392 C11.3308159,20.8383392 11.4305469,20.8865006 11.5027484,20.9642773 C11.5751658,21.0422865 11.6199062,21.1500703 11.6199062,21.2690934 L11.6199062,21.2690934 L11.6199062,24.0415416 L14.4764115,20.9644667 C14.5511635,20.8838423 14.6525642,20.8384394 14.7582763,20.8383392 L14.7582763,20.8383392 L26.1697664,20.8383385 C26.4373064,20.8372651 26.6794219,20.7200948 26.8548837,20.5310844 C27.0301312,20.3423049 27.1388708,20.081843 27.1398668,19.7935965 L27.1398668,19.7935965 L27.1398661,9.20998599 C27.1388708,8.9221096 27.0301312,8.66164763 26.8548837,8.47286814 C26.6794219,8.28385778 26.4373064,8.1666875 26.1694162,8.16561342 L26.1694162,8.16561342 L21.6857645,8.16561342 C21.5755744,8.16561342 21.4758434,8.11745193 21.4036419,8.03967531 C21.3312245,7.96166605 21.2864841,7.85388231 21.2864841,7.73485913 C21.2864841,7.61583596 21.3312245,7.50805222 21.4036419,7.43004296 C21.4758434,7.35226634 21.5755744,7.30410422 21.6857645,7.30410422 L21.6857645,7.30410422 L26.1690853,7.30410422 Z M18.1151014,0.0999998433 C18.6032219,0.100924756 19.0449978,0.314448355 19.3649762,0.659134403 C19.6638236,0.981057738 19.8564439,1.41737624 19.8814968,1.90174631 L19.8842783,2.0062512 L19.8842783,12.5893169 C19.8834191,13.1154518 19.6851698,13.5916906 19.3649762,13.9366085 C19.0663297,14.2583155 18.661584,14.4657654 18.2122197,14.4927474 L18.1152668,14.4957429 L17.2072255,14.4957429 L17.2072447,17.8738058 C17.2056519,17.9590905 17.1808083,18.0398664 17.1380868,18.1075575 C17.095459,18.1751002 17.0350249,18.2296161 16.9621408,18.2625105 C16.8893809,18.2953488 16.811055,18.3035427 16.7365843,18.2889276 C16.6769573,18.2772256 16.6198086,18.2509039 16.5709208,18.2119448 L16.5358941,18.180387 L13.1153711,14.4957429 L1.86277103,14.4957435 C1.37465114,14.493892 0.933223991,14.2795289 0.613809458,13.9342344 C0.315488742,13.6117429 0.123582514,13.1750576 0.0993233448,12.6904695 L0.0967132928,12.5859201 L0.0934284287,2.00642598 C0.09428757,1.4802911 0.292536905,1.00405226 0.612730504,0.659134403 C0.911377017,0.337427425 1.31612271,0.129977513 1.76548705,0.102995473 L1.86243994,0.0999998433 L18.1151014,0.0999998433 Z M18.1254712,0.961508573 L1.86243994,0.961508573 L1.78321567,0.965549811 C1.54813241,0.98774549 1.33743356,1.09941099 1.18023893,1.26874366 C1.0057909,1.45666196 0.897253169,1.71561843 0.895276662,2.00197408 L0.895276662,2.00197408 L0.891989391,12.5894585 L0.895479251,12.675064 C0.915398346,12.9291137 1.0192497,13.157078 1.17697243,13.3269796 C1.35243423,13.51599 1.5945498,13.6331602 1.86208974,13.6342336 L1.86208974,13.6342336 L13.2801493,13.6342343 L13.3251254,13.6370215 C13.4142892,13.6480256 13.497941,13.6912552 13.5620141,13.7603618 L13.5620141,13.7603618 L16.4119499,16.8341085 L16.4119499,14.0614502 L16.4146394,14.0111825 C16.4252978,13.9122393 16.4670357,13.8234991 16.5291078,13.7566341 C16.6013092,13.6788574 16.7010402,13.6306959 16.8112303,13.6306959 L16.8112303,13.6306959 L18.125121,13.6306959 L18.1975122,13.6275578 C18.4364813,13.6077245 18.6510777,13.4952688 18.8105885,13.3234412 C18.9858359,13.1346617 19.0945756,12.8741998 19.0955715,12.5863234 L19.0955715,12.5863234 L19.0955715,2.0062512 L19.0920817,1.9206547 C19.0721626,1.66662918 18.9683112,1.43866483 18.8105885,1.26876329 C18.6351267,1.07975293 18.3930111,0.962582651 18.1254712,0.961508573 L18.1254712,0.961508573 Z M9.99542281,3.00499513 C10.1056129,3.00499513 10.2053439,3.05315662 10.2775454,3.13093324 C10.3396175,3.19779832 10.3813554,3.28653853 10.3920138,3.38548165 L10.3947032,3.43574941 L10.3947032,6.85473289 L13.5692053,6.85473289 C13.6793954,6.85473289 13.7791264,6.90289438 13.8513278,6.980671 C13.9237453,7.05868026 13.9684857,7.166464 13.9684857,7.28548717 C13.9684857,7.40451034 13.9237453,7.51229409 13.8513278,7.59030335 C13.7894409,7.65696902 13.7073281,7.70187664 13.6157395,7.71334687 L13.5692053,7.71624146 L10.3947032,7.71624146 L10.3947032,11.1352249 C10.3947032,11.2542481 10.3499628,11.3620318 10.2775454,11.4400411 C10.2053439,11.5178177 10.1056129,11.5659792 9.99542281,11.5659792 C9.8852327,11.5659792 9.7855017,11.5178177 9.71330024,11.4400411 C9.65122815,11.373176 9.60949021,11.2844358 9.59883187,11.1854927 L9.59614241,11.1352249 L9.59614241,7.7127031 L6.42164035,7.7127031 C6.31145024,7.7127031 6.21171924,7.6645416 6.13951778,7.58676499 C6.06710035,7.50875573 6.02235995,7.40097198 6.02235995,7.28194881 C6.02235995,7.16292564 6.06710035,7.0551419 6.13951778,6.97713263 C6.20140475,6.91046696 6.2835175,6.86555934 6.37510614,6.85408912 L6.42164035,6.85119452 L9.59614241,6.85119452 L9.59614241,3.43574941 C9.59614241,3.31672624 9.64088281,3.2089425 9.71330024,3.13093324 C9.7855017,3.05315662 9.8852327,3.00499513 9.99542281,3.00499513 Z" id="path-3"></path>
    </defs>
    <g id="10-Technologies" stroke="none" stroke-width="1" fill="none" fill-rule="evenodd">
        <g transform="translate(-73.000000, -3573.000000)" id="Our-Process">
            <g transform="translate(0.000000, 2994.000000)">
                <g id="Content" transform="translate(45.000000, 226.000000)">
                    <g id="Rows/-Row-Process" transform="translate(0.000000, 336.000000)">
                        <g id="Service-Icon/Design" transform="translate(28.962857, 17.000000)">
                            <mask id="mask-2" fill="white">
                                <use xlink:href="#path-1"></use>
                            </mask>
                            <g id="Mask"></g>
                            <g id="Color" mask="url(#mask-2)">
                                <g transform="translate(2.616000, 6.800000)">
                                    <mask id="mask-4" fill="white">
                                        <use xlink:href="#path-3"></use>
                                    </mask>
                                    <use id="Mask" stroke="none" fill="#000000" fill-rule="nonzero" xlink:href="#path-3"></use>
                                    <g id="Color" stroke="none" stroke-width="1" fill="none" fill-rule="evenodd" mask="url(#mask-4)">
                                        <g transform="translate(-7.000000, -17.000000)" id="Color/Primary">
                                            <rect id="Base" fill="#F15924" x="0" y="0" width="43.0285714" height="51.6"></rect>
                                        </g>
                                    </g>
                                </g>
                            </g>
                        </g>
                    </g>
                </g>
            </g>
        </g>
    </g>
</svg>