<?xml version="1.0" encoding="UTF-8"?>
<svg width="36px" height="36px" viewBox="0 0 36 36" version="1.1" xmlns="http://www.w3.org/2000/svg" xmlns:xlink="http://www.w3.org/1999/xlink">
    <title>EF6BFA81-3623-4C32-BAEC-12B390C62241</title>
    <defs>
        <rect id="path-1" x="0" y="0" width="36" height="36"></rect>
        <path d="M29.1297474,7.56923226 C29.662693,7.57110398 30.1448335,7.78758638 30.4939624,8.13657796 C30.819706,8.46219336 31.0296642,8.90316653 31.0569062,9.39040121 L31.0569062,9.39040121 L31.0600002,20.4119003 C31.0590655,20.9435475 30.8429825,21.4248653 30.4939624,21.7737481 C30.1681193,22.0994631 29.7264169,22.3097677 29.2382348,22.3378153 L29.2382348,22.3378153 L16.5879445,22.3410973 L12.7723025,26.1485906 C12.7135468,26.2039999 12.6411787,26.239508 12.564865,26.2533813 C12.4885198,26.2672603 12.4082204,26.2594885 12.3336273,26.2283035 C12.2590966,26.1971445 12.1972661,26.1455355 12.1536707,26.0815493 L12.1536707,26.0815493 L12.0831318,22.3410929 L11.0255622,22.3410932 C10.4919504,22.3401566 10.0089589,22.1240052 9.65914461,21.7749453 C9.33276172,21.4492662 9.12230816,21.0078817 9.09500029,20.520036 L9.09500029,20.520036 L9.09189873,16.6938809 C9.09189873,16.5814315 9.13759948,16.4796414 9.2114455,16.4059546 C9.28540102,16.3321585 9.38757674,16.2865406 9.50042194,16.2865406 C9.61326714,16.2865406 9.71544286,16.3321585 9.78939838,16.4059546 C9.85217934,16.4686002 9.8946337,16.551554 9.90593066,16.6441136 L9.90593066,16.6441136 L9.90894612,20.412669 C9.91009241,20.7197799 10.0352509,20.9976884 10.2370939,21.1990962 C10.4204982,21.3821049 10.6672243,21.5019343 10.9449714,21.5231875 L10.9449714,21.5231875 L12.488045,21.5264123 C12.6008902,21.5264123 12.7030659,21.5720302 12.7770214,21.6458263 C12.8398035,21.7084729 12.8822582,21.7914285 12.8935543,21.8839899 L12.8935543,21.8839899 L12.8966683,24.8801164 L16.1377683,21.6460056 C16.2028669,21.5809664 16.2877124,21.5401396 16.3782069,21.5293106 L16.3782069,21.5293106 L29.1307594,21.5264113 C29.4383824,21.525268 29.7167273,21.4003955 29.9184617,21.1990962 C30.1019631,21.0159905 30.2220731,20.7696538 30.2433784,20.4922768 L30.2433784,20.4922768 L30.2466094,9.49765713 C30.2454631,9.19054621 30.1203047,8.9126377 29.9184617,8.71122992 C29.7350574,8.52822114 29.4883312,8.40839181 29.210526,8.38713848 L29.210526,8.38713848 L24.1386779,8.38391384 C24.0258327,8.38391384 23.923657,8.33829586 23.8497015,8.26449982 C23.7758555,8.19081304 23.7301547,8.08902291 23.7301547,7.97657348 C23.7301547,7.86412406 23.7758555,7.76233392 23.8497015,7.68864715 C23.9125753,7.62590893 23.9958434,7.58352026 24.0887347,7.57224187 L24.0887347,7.57224187 L29.1297474,7.56923226 Z M20.1598105,0.139999784 C20.6934224,0.140936394 21.1764138,0.357087764 21.5262281,0.706147702 C21.8292979,1.00856398 22.0324083,1.41074668 22.081742,1.857238 L22.0903724,1.96103576 L22.0934742,12.9826665 C22.0925358,13.5149758 21.8759333,13.9967611 21.5262281,14.3457121 C21.223065,14.6482215 20.8198781,14.8509179 20.3721976,14.9001518 L20.2681222,14.9087649 L19.1168204,14.9119711 L19.1168498,18.4316011 C19.1152261,18.5121346 19.089877,18.5884002 19.0463293,18.6523162 C19.0027339,18.7163023 18.9409034,18.7679114 18.8663727,18.7990704 C18.8066982,18.8240184 18.7433717,18.8339819 18.6813394,18.8298634 L18.635135,18.8241482 L14.6120308,14.9118598 L2.07025279,14.9118607 C1.53664352,14.9099858 1.05403633,14.6929856 0.704840088,14.3433111 C0.402303962,14.0403606 0.199904682,13.6378185 0.15135863,13.1910699 L0.142911267,13.0872145 L0.139999784,2.0691927 C0.140934506,1.53754552 0.357017464,1.05622764 0.706037589,0.707344833 C1.00860622,0.404895248 1.41107389,0.201957626 1.8578889,0.152053198 L1.96176201,0.143277718 L20.1598105,0.139999784 Z M20.1752039,0.954680992 L1.98961875,0.95818812 L1.90735851,0.967746776 C1.66361784,1.00502945 1.44808707,1.118822 1.28371055,1.28346067 C1.10156633,1.46589539 0.981492169,1.71059983 0.957140752,2.06583985 L0.957140752,2.06583985 L0.956621627,13.0630052 L0.965941925,13.1452655 C1.00258279,13.3890561 1.11638721,13.605068 1.28153835,13.769863 C1.46434714,13.9522776 1.70991769,14.0726659 2.06665762,14.0970851 L2.06665762,14.0970851 L14.8291047,14.1000775 L14.8670617,14.1066288 C14.9301617,14.1210302 14.9934716,14.1537979 15.0722574,14.2192441 L15.0722574,14.2192441 L18.3033316,17.4475304 L18.3064457,14.4511079 L18.3168758,14.3968093 C18.3355368,14.3261765 18.3727529,14.2630615 18.4229786,14.2129442 C18.4871808,14.1488804 18.5729335,14.1070911 18.715786,14.0933463 L18.715786,14.0933463 L20.2550286,14.0903055 L20.3373898,14.0810076 C20.5814877,14.0444546 20.7978422,13.930922 20.9629061,13.7662141 C21.1458099,13.5837047 21.266482,13.338527 21.2909607,12.9823804 L21.2909607,12.9823804 L21.2878228,1.98881614 L21.2785025,1.90656646 C21.2418617,1.66280418 21.1280574,1.44679194 20.9629061,1.28199679 C20.7611717,1.08069747 20.4828269,0.955824959 20.1752039,0.954680992 L20.1752039,0.954680992 Z M10.5279887,9.35356269 C10.7448437,9.35356269 10.9411826,9.44124804 11.0832988,9.58305781 C11.2253055,9.72475832 11.3131646,9.92050855 11.3131646,10.1367434 C11.3131646,10.3624906 11.2262411,10.5635641 11.0844762,10.708378 C10.9424111,10.8534986 10.7455228,10.9418178 10.5279887,10.9418178 C10.3111338,10.9418178 10.1147949,10.8541324 9.9726787,10.7123227 C9.83067197,10.5706222 9.74281294,10.3748719 9.74281294,10.158637 C9.74281294,9.93288984 9.82973639,9.7318164 9.97150131,9.58700243 C10.1135664,9.44188183 10.3104546,9.35356269 10.5279887,9.35356269 Z M10.7144866,3.61743574 C11.4546764,3.61743574 12.0734958,3.80545568 12.5011323,4.17121084 C12.9063846,4.51782085 13.1342616,5.02365446 13.1342616,5.66679717 C13.1342616,6.2474291 12.9562395,6.67171776 12.6558235,6.98037955 C12.2899971,7.35624716 11.7503948,7.5617253 11.1512544,7.68242655 C11.0153421,7.99099741 10.9545723,8.14259693 10.867051,8.24466033 C10.7864943,8.33860187 10.6828388,8.3849553 10.5733324,8.38757041 C10.437259,8.38614949 10.3200148,8.34484813 10.2334928,8.27357125 C10.1753748,8.22569357 10.1317068,8.16446087 10.106065,8.09522223 L10.0902695,8.04187572 L9.97420122,7.25226233 C9.94832086,7.14084184 9.97391305,7.02379618 10.0437758,6.93327454 C10.1130926,6.8434602 10.2188026,6.78902517 10.3357327,6.78432519 C10.8373795,6.72139705 11.1942388,6.61017191 11.4293302,6.44933217 C11.691414,6.27002538 11.8162307,6.03063359 11.8162307,5.72153121 C11.8162307,5.42456277 11.7049731,5.19675714 11.5080857,5.04076417 C11.3199789,4.89172801 11.0464083,4.80795679 10.7006203,4.8079589 C10.2219,4.80535685 9.75652125,4.96522685 9.38242631,5.26005482 C9.26836946,5.3473418 9.12938875,5.39608423 8.98974276,5.39909024 C8.82549163,5.39759336 8.67639706,5.33169123 8.56697966,5.2251858 C8.4577185,5.11883245 8.38796543,4.97198932 8.38247522,4.8128904 C8.38240333,4.63236367 8.46527391,4.46181022 8.60954453,4.34800843 C9.19965043,3.8606463 9.9457421,3.60134695 10.7144866,3.61743574 Z" id="path-3"></path>
    </defs>
    <g id="09-Industry-Landing-Page" stroke="none" stroke-width="1" fill="none" fill-rule="evenodd">
        <g id="09-Industries---Fintech---ALT" transform="translate(-672.000000, -4677.000000)">
            <g id="Our-Process" transform="translate(0.000000, 4554.000000)">
                <g id="Content" transform="translate(604.000000, 106.000000)">
                    <g id="Rows/-Row-Process" transform="translate(37.000000, 0.000000)">
                        <g id="Service-Icon/Design" transform="translate(31.000000, 17.000000)">
                            <mask id="mask-2" fill="white">
                                <use xlink:href="#path-1"></use>
                            </mask>
                            <g id="Mask"></g>
                            <g id="Color" mask="url(#mask-2)">
                                <g transform="translate(2.400000, 4.800000)">
                                    <mask id="mask-4" fill="white">
                                        <use xlink:href="#path-3"></use>
                                    </mask>
                                    <use id="Mask" stroke="none" fill="#000000" fill-rule="nonzero" xlink:href="#path-3"></use>
                                    <g id="Group" stroke="none" stroke-width="1" fill="none" fill-rule="evenodd" mask="url(#mask-4)">
                                        <g transform="translate(-6.000000, -12.000000)" id="Color/Primary" fill="#F15924">
                                            <rect id="Base" x="0" y="0" width="43.2" height="50.4"></rect>
                                        </g>
                                    </g>
                                </g>
                            </g>
                        </g>
                    </g>
                </g>
            </g>
        </g>
    </g>
</svg>