<?xml version="1.0" encoding="UTF-8"?>
<svg width="35px" height="36px" viewBox="0 0 35 36" version="1.1" xmlns="http://www.w3.org/2000/svg" xmlns:xlink="http://www.w3.org/1999/xlink">
    <title>450104C4-76E0-4BCC-A866-489471A5F3A7</title>
    <defs>
        <rect id="path-1" x="0" y="0" width="33.6342857" height="36"></rect>
        <path d="M19.4493913,12.252381 C19.694856,12.252381 19.9188201,12.3565665 20.0854251,12.525772 C20.2359977,12.6786948 20.339822,12.8847523 20.3703232,13.1154248 L20.3777381,13.1931882 L20.3796149,22.0952381 C20.3796149,22.3605719 20.2830291,22.6027289 20.1259782,22.7828426 C19.9845088,22.9450867 19.7939227,23.0570733 19.5805127,23.0899762 L19.5085667,23.0979752 L15.3547826,23.1 C15.1093179,23.1 14.8853539,22.9958145 14.7187488,22.826609 C14.5681762,22.6736862 14.464352,22.4676286 14.4338508,22.2369562 L14.4264358,22.1591928 L14.424559,13.2571429 C14.424559,12.9918091 14.5211449,12.749652 14.6781957,12.5695383 C14.8196652,12.4072943 15.0102512,12.2953076 15.2236612,12.2624048 L15.2956072,12.2544057 L19.4493913,12.252381 Z M19.5428199,21.4428571 L15.261354,21.4428571 L15.261354,22.1952381 L19.5428199,22.1952381 L19.5428199,21.4428571 Z M19.5428199,15.3666667 L15.261354,15.3666667 L15.261354,20.5380952 L19.5428199,20.5380952 L19.5428199,15.3666667 Z M19.5428199,13.1571429 L15.261354,13.1571429 L15.261354,14.4619048 L19.5428199,14.4619048 L19.5428199,13.1571429 Z M22.5203478,0.1 C22.7658125,0.1 22.9897766,0.204185528 23.1563816,0.373391004 C23.3236837,0.543304356 23.4332722,0.77881537 23.4486944,1.04080301 L23.4486944,1.04080301 L23.4505714,15.4666667 C23.4505714,15.7320004 23.3539856,15.9741575 23.1969347,16.1542712 C23.0397338,16.3345569 22.8218853,16.4527864 22.5794646,16.4694078 L22.5794646,16.4694078 L21.5901242,16.4712541 L21.5901242,15.5666667 L22.6137764,15.5666667 L22.6137764,1.0047619 L0.930223602,1.0047619 L0.930223602,15.5666667 L13.2140497,15.5666667 L13.2140497,16.4714286 L10.1430932,16.4714286 L10.1430932,17.7761905 L13.2140497,17.7761905 L13.2140497,18.6809524 L7.07213665,18.6809524 L7.07213665,19.9857143 L13.2140497,19.9857143 L13.2140497,20.8904762 L6.23534161,20.8904762 L6.23534161,18.7809524 C6.23534161,18.5156186 6.33192746,18.2734615 6.48897834,18.0933479 C6.64617094,17.9130717 6.86400466,17.7948451 7.10640996,17.7782139 L7.10640996,17.7782139 L9.30629814,17.7761008 L9.30629814,16.4714286 L1.02365217,16.4714286 C0.778187451,16.4714286 0.554223421,16.367243 0.387618377,16.1980376 C0.220316336,16.0281242 0.110727783,15.7926132 0.0953056213,15.5306256 L0.0953056213,15.5306256 L0.0934285714,1.1047619 C0.0934285714,0.839428128 0.190014417,0.597271062 0.3470653,0.417157395 C0.504249949,0.23689032 0.722069586,0.118666621 0.964460141,0.102025929 L0.964460141,0.102025929 L22.5203478,0.1 Z" id="path-3"></path>
    </defs>
    <g id="10-Technologies" stroke="none" stroke-width="1" fill="none" fill-rule="evenodd">
        <g transform="translate(-73.000000, -3237.000000)" id="Our-Process">
            <g transform="translate(0.000000, 2994.000000)">
                <g id="Content" transform="translate(45.000000, 226.000000)">
                    <g id="Service-Icon/Design" transform="translate(28.962857, 17.000000)">
                        <mask id="mask-2" fill="white">
                            <use xlink:href="#path-1"></use>
                        </mask>
                        <g id="Mask"></g>
                        <g id="Color" mask="url(#mask-2)">
                            <g transform="translate(5.232000, 6.400000)">
                                <mask id="mask-4" fill="white">
                                    <use xlink:href="#path-3"></use>
                                </mask>
                                <g id="Combined-Shape" stroke="none" fill="none"></g>
                                <g id="Color" stroke="none" stroke-width="1" fill="none" fill-rule="evenodd" mask="url(#mask-4)">
                                    <g transform="translate(-19.625000, -22.000000)" id="Color/Primary">
                                        <rect id="Base" fill="#F15924" x="0" y="0" width="61.794" height="66.075"></rect>
                                    </g>
                                </g>
                            </g>
                        </g>
                    </g>
                </g>
            </g>
        </g>
    </g>
</svg>