<?xml version="1.0" encoding="UTF-8"?>
<svg width="36px" height="36px" viewBox="0 0 36 36" version="1.1" xmlns="http://www.w3.org/2000/svg" xmlns:xlink="http://www.w3.org/1999/xlink">
    <title>A6A17D4D-9BC2-4FA3-B24B-10E1F22F68D7</title>
    <defs>
        <rect id="path-1" x="0" y="0" width="36" height="36"></rect>
        <path d="M26.891383,0.0999998321 C27.3903234,0.10091417 27.8418677,0.305729579 28.1689352,0.636281761 C28.4745529,0.945155695 28.6715119,1.36378942 28.697151,1.82850344 L28.7000002,1.92876712 L28.7000002,23.6710535 C28.6990945,24.1758458 28.4963827,24.6327819 28.1689352,24.9637182 C27.8636722,25.2722336 27.4499761,25.4712183 26.9906653,25.4971216 L26.8915663,25.5000002 L1.90861699,25.5000002 C1.40967657,25.4990858 0.958132283,25.2942704 0.631064838,24.9637182 C0.325447104,24.6548443 0.128488117,24.2362106 0.102849014,23.7714966 L0.0999998391,23.6712329 L0.0999998391,1.92894654 C0.1009055,1.42415424 0.303617266,0.967218119 0.631064838,0.636281761 C0.936327787,0.327766391 1.3500239,0.128781722 1.8093347,0.102878357 L1.90843373,0.0999998321 L26.891383,0.0999998321 Z M27.8590361,5.16027397 L0.940963855,5.16027397 L0.940963855,23.6712329 L0.944168246,23.7513008 C0.963269766,23.9889528 1.06664299,24.2025085 1.22395552,24.3614971 C1.39912877,24.5385367 1.64115411,24.6479452 1.90843373,24.6479452 L1.90843373,24.6479452 L26.8915663,24.6479452 L26.9709509,24.6447047 C27.2065824,24.6253872 27.4183886,24.5208328 27.5760445,24.3614971 C27.7508362,24.1848431 27.8590361,23.9408223 27.8590361,23.6712329 L27.8590361,23.6712329 L27.8590361,5.16027397 Z M15.8449525,10.3619939 C15.9812553,10.4031877 16.091189,10.497036 16.1601819,10.6177083 C16.2195175,10.7214893 16.2486751,10.8451342 16.2386651,10.9734013 L16.2303545,11.0378494 L14.3198502,17.8880225 C14.29188,18.0176627 14.2212463,18.1259651 14.1254711,18.2021373 C14.0308054,18.2774269 13.9117389,18.3213679 13.7852566,18.3240096 C13.5687089,18.2676226 13.4131099,18.1724701 13.3172399,18.0516703 C13.2298708,17.941582 13.194557,17.8111931 13.2057776,17.6764005 L13.2134193,17.618409 L15.1233489,10.7702683 C15.1664978,10.6108835 15.2665462,10.4871648 15.3958629,10.4142111 C15.5268212,10.3403312 15.6871937,10.3186835 15.8449525,10.3619939 Z M18.1800241,12.066036 L18.2300863,12.1034577 L20.004323,13.9207193 C20.1127301,14.0299295 20.1711307,14.1645041 20.177917,14.3011007 C20.1837038,14.4175794 20.1519319,14.5350305 20.083388,14.6387038 L20.0460553,14.689324 L18.276323,16.4763541 C18.161071,16.5924598 18.0172796,16.6516034 17.8729412,16.6516034 C17.7286027,16.6516034 17.5848113,16.5924598 17.4695594,16.4763541 C17.3611522,16.367144 17.3027516,16.2325694 17.2959654,16.0959728 C17.2901783,15.9794887 17.3219534,15.8620321 17.3905039,15.7583553 L17.4278401,15.7077335 L18.7921029,14.3289567 L17.4695594,12.9606208 C17.3540103,12.8442158 17.2952941,12.6989443 17.2952941,12.5532034 C17.2952941,12.4074625 17.3540103,12.262191 17.4695594,12.145786 C17.5777016,12.0368427 17.7109203,11.9780317 17.846214,11.9712102 C17.9613964,11.9654027 18.0775017,11.997318 18.1800241,12.066036 L18.1800241,12.066036 Z M11.2997647,11.9705367 C11.4441031,11.9705367 11.5878946,12.0296803 11.7031465,12.145786 C11.8120142,12.2554601 11.8698255,12.3972583 11.8767125,12.5410523 C11.882614,12.66427 11.8511701,12.7890192 11.782222,12.8963316 L11.7446219,12.9484469 L10.3787275,14.3292306 L11.7031465,15.627386 C11.8186956,15.743791 11.8774119,15.8890625 11.8774119,16.0348034 C11.8774119,16.1805443 11.8186956,16.3258158 11.7031465,16.4422208 C11.5878946,16.5583265 11.4441031,16.6174701 11.2997647,16.6174701 C11.1959874,16.6174701 11.092399,16.5869186 10.9995515,16.5265124 L10.9452163,16.4866918 L9.16838288,14.7014208 C9.05997578,14.5922107 9.00157516,14.4576361 8.9947889,14.3210394 C8.98900211,14.2045607 9.02077394,14.0871096 9.08931788,13.9834363 L9.12665056,13.9328161 L10.8963829,12.145786 C11.0116348,12.0296803 11.1554263,11.9705367 11.2997647,11.9705367 Z M26.8915663,0.952054795 L1.90843373,0.952054795 L1.82904907,0.955295271 C1.59341756,0.9746128 1.38161145,1.07916723 1.22395552,1.2385029 C1.04916382,1.41515692 0.940963855,1.65917769 0.940963855,1.92876712 L0.940963855,1.92876712 L0.940963855,4.30821918 L27.8590361,4.30821918 L27.8590361,1.92876712 L27.8558318,1.84869915 C27.8367302,1.61104721 27.733357,1.39749152 27.5760445,1.2385029 C27.4008712,1.06146326 27.1588459,0.952054795 26.8915663,0.952054795 L26.8915663,0.952054795 Z M26.1975904,2.02876712 C26.3614921,2.02876712 26.5098282,2.09599152 26.6172211,2.20452859 C26.7249955,2.31345128 26.7915663,2.46395105 26.7915663,2.63013699 C26.7915663,2.79632292 26.7249955,2.94682269 26.6172211,3.05574538 C26.5098282,3.16428245 26.3614921,3.23150685 26.1975904,3.23150685 C26.0336886,3.23150685 25.8853525,3.16428245 25.7779597,3.05574538 C25.6701853,2.94682269 25.6036145,2.79632292 25.6036145,2.63013699 C25.6036145,2.46395105 25.6701853,2.31345128 25.7779597,2.20452859 C25.8853525,2.09599152 26.0336886,2.02876712 26.1975904,2.02876712 Z M23.4216867,2.02876712 C23.5855885,2.02876712 23.7339246,2.09599152 23.8413174,2.20452859 C23.9490918,2.31345128 24.0156627,2.46395105 24.0156627,2.63013699 C24.0156627,2.79632292 23.9490918,2.94682269 23.8413174,3.05574538 C23.7339246,3.16428245 23.5855885,3.23150685 23.4216867,3.23150685 C23.257785,3.23150685 23.1094489,3.16428245 23.0020561,3.05574538 C22.8942817,2.94682269 22.8277108,2.79632292 22.8277108,2.63013699 C22.8277108,2.46395105 22.8942817,2.31345128 23.0020561,2.20452859 C23.1094489,2.09599152 23.257785,2.02876712 23.4216867,2.02876712 Z M20.6457831,2.02876712 C20.8096849,2.02876712 20.958021,2.09599152 21.0654138,2.20452859 C21.1731882,2.31345128 21.239759,2.46395105 21.239759,2.63013699 C21.239759,2.79632292 21.1731882,2.94682269 21.0654138,3.05574538 C20.958021,3.16428245 20.8096849,3.23150685 20.6457831,3.23150685 C20.4818814,3.23150685 20.3335453,3.16428245 20.2261524,3.05574538 C20.118378,2.94682269 20.0518072,2.79632292 20.0518072,2.63013699 C20.0518072,2.46395105 20.118378,2.31345128 20.2261524,2.20452859 C20.3335453,2.09599152 20.4818814,2.02876712 20.6457831,2.02876712 Z" id="path-3"></path>
    </defs>
    <g id="09-Industry-Landing-Page" stroke="none" stroke-width="1" fill="none" fill-rule="evenodd">
        <g id="09-Industries---Fintech---ALT" transform="translate(-672.000000, -5075.000000)">
            <g id="Our-Process" transform="translate(0.000000, 4554.000000)">
                <g id="Content" transform="translate(604.000000, 106.000000)">
                    <g id="Rows/-Row-Process" transform="translate(37.000000, 398.000000)">
                        <g id="Service-Icon/Design" transform="translate(31.000000, 17.000000)">
                            <mask id="mask-2" fill="white">
                                <use xlink:href="#path-1"></use>
                            </mask>
                            <g id="Mask"></g>
                            <g id="Color" mask="url(#mask-2)">
                                <g transform="translate(3.600000, 5.200000)">
                                    <mask id="mask-4" fill="white">
                                        <use xlink:href="#path-3"></use>
                                    </mask>
                                    <use id="Shape" stroke="none" fill="#000000" fill-rule="nonzero" xlink:href="#path-3"></use>
                                    <g id="Group" stroke="none" stroke-width="1" fill="none" fill-rule="evenodd" mask="url(#mask-4)">
                                        <g transform="translate(-14.625000, -19.000000)" id="Color/Primary" fill="#F15924">
                                            <rect id="Base" x="0" y="0" width="58.05" height="62.475"></rect>
                                        </g>
                                    </g>
                                </g>
                            </g>
                        </g>
                    </g>
                </g>
            </g>
        </g>
    </g>
</svg>