<?xml version="1.0" encoding="UTF-8"?>
<svg viewBox="0 0 20 20" version="1.1" xmlns="http://www.w3.org/2000/svg" xmlns:xlink="http://www.w3.org/1999/xlink">
    <!-- Generator: sketchtool 56.3 (101010) - https://sketch.com -->
    <title>65BAAA23-D8FB-42F4-9C93-1D8F0FBDFFB4</title>
    <desc>Created with sketchtool.</desc>
    <path fill="#F15924" shape-rendering="geometricPrecision" d="M5.10784576,8.6153214 L9.26323376,15.5817981 C9.41803431,15.8412338 9.69779451,16.000184 9.99982505,16.000184 C10.3018556,16.000184 10.5816637,15.8414094 10.7365425,15.5820204 L14.8921482,8.6153214 C16.3178789,6.22307463 15.8058106,3.15034973 13.6814106,1.35014988 C11.5570107,-0.450049961 8.44298333,-0.450049961 6.31858336,1.35014988 C4.19418338,3.15034973 3.68211515,6.22307463 5.10784576,8.6153214 Z M7.16861307,2.37754822 C8.79311443,0.991166478 11.1820503,0.984871166 12.8138306,2.36267197 C14.445611,3.74047277 14.8405846,6.09737404 13.74718,7.93218965 L9.999997,14.2142408 L6.25281402,7.93219409 C5.15804243,6.10595221 5.54558253,3.75538221 7.16861307,2.37754377 L7.16861307,2.37754822 Z M9.999997,8.35426637 C11.533365,8.35365256 12.7759653,7.10978276 12.7755564,5.5758715 C12.7751473,4.04196023 11.5318838,2.79875376 9.99851567,2.79895828 C8.46514756,2.79916281 7.22221537,4.04270088 7.22221537,5.5766122 C7.22424512,7.11026029 8.46689133,8.35284948 9.999997,8.35426637 Z M9.999997,4.13223648 C10.7973484,4.13255566 11.4435005,4.77936796 11.4432879,5.57700182 C11.4430752,6.37463567 10.7965781,7.02110304 9.99922671,7.02099669 C9.20187529,7.02089034 8.55555055,6.37425054 8.55555055,5.57661665 C8.55663212,4.77913048 9.20279288,4.13299938 9.999997,4.13223648 L9.999997,4.13223648 Z M19.3333433,20 L0.666650703,20 C0.45321826,20.0000883 0.252658211,19.8978995 0.127225529,19.7251535 C0.00179284743,19.5524074 -0.0333327039,19.3300098 0.0327520448,19.126994 L2.20332839,12.460624 C2.29275582,12.1861124 2.54860871,12.000357 2.83722705,12.000357 L5.43923067,12.000357 C5.67760225,11.9999227 5.89805316,12.1268875 6.01736479,12.3333242 C6.13667642,12.5397609 6.13667642,12.7942272 6.01736479,13.0006639 C5.89805316,13.2071006 5.67760225,13.3340654 5.43923067,13.3336299 L3.3213855,13.3336299 L1.58483865,18.6667282 L18.4151554,18.6667282 L16.6786085,13.3336299 L14.5607678,13.3336299 C14.3223962,13.3340654 14.1019453,13.2071006 13.9826337,13.0006639 C13.863322,12.7942272 13.863322,12.5397609 13.9826337,12.3333242 C14.1019453,12.1268875 14.3223962,11.9999227 14.5607678,12.000357 L17.1627714,12.000357 C17.4513937,12.000357 17.7072497,12.1861162 17.7966745,12.4606329 L19.9672508,19.1270029 C20.0333326,19.3300191 19.9982043,19.5524156 19.87277,19.7251597 C19.7473356,19.8979038 19.5467752,20.0000902 19.3333433,20 Z" id="path-1"></path>
</svg>
