<?xml version="1.0" encoding="UTF-8"?>
<svg width="35px" height="36px" viewBox="0 0 35 36" version="1.1" xmlns="http://www.w3.org/2000/svg" xmlns:xlink="http://www.w3.org/1999/xlink">
    <title>E611AEC1-85B5-46BE-BF39-0B30AAAB566C</title>
    <defs>
        <rect id="path-1" x="0" y="0" width="33.6342857" height="36"></rect>
        <path d="M15.0650994,11.7160121 C16.6509169,11.8416538 18.071136,12.613563 19.0985336,13.7806033 C20.0894944,14.9062543 20.7150649,16.3996175 20.7709429,18.0346408 L20.7747771,18.2042772 L20.7747771,21.44 C20.7747771,22.5443716 20.3666298,23.5433205 19.7022784,24.2739828 C19.0638899,24.9760907 18.1889833,25.4304391 17.2147194,25.4926333 L17.0870893,25.4985098 L3.91652571,25.5 C2.88472713,25.5 1.95142339,25.0631451 1.26877604,24.3520656 C0.612806645,23.6687751 0.18831543,22.7323308 0.130208263,21.6895092 L0.124717948,21.5528978 L0.123325714,18.336 C0.123325714,16.6045507 0.754914531,15.014635 1.78687061,13.8251302 C2.82094979,12.6331782 4.25712818,11.8431654 5.86315418,11.7160121 C5.98973234,11.7169328 6.14116112,11.7705291 6.24404214,11.8805953 C7.39769969,13.0504074 8.88538334,13.7 10.464,13.7 C12.043082,13.7 13.5613186,13.0497336 14.6857668,11.8787107 C14.7869915,11.7703663 14.9136013,11.7167877 15.0650994,11.7160121 Z M5.75268877,12.5296819 C4.39279126,12.6824484 3.18204844,13.377198 2.30622451,14.4188695 C1.44095139,15.4479922 0.902539615,16.8157813 0.870754286,18.333761 L0.870754286,18.333761 L0.870754286,21.44 L0.872987003,21.5666832 C0.902676558,22.4071405 1.22686131,23.1637624 1.74952728,23.7231909 C2.29226392,24.3041016 3.0493527,24.6726438 3.91376888,24.7 L3.91376888,24.7 L16.9815771,24.7 L17.0999354,24.6976102 C17.8851627,24.6658324 18.5920638,24.3188457 19.1147297,23.7594173 C19.6574664,23.1785065 20.0017901,22.3681668 20.0273872,21.4429507 L20.0273872,21.4429507 L20.0273872,18.3269108 L20.0266936,18.1686848 C20.0021544,16.7486734 19.4857122,15.439688 18.6479713,14.4381049 C17.7754576,13.3949483 16.5544859,12.6853836 15.1047884,12.5563441 C13.8542518,13.8050343 12.1932064,14.5 10.464,14.5 C8.74981393,14.5 7.12152221,13.8162228 5.75268877,12.5296819 Z M11.5732449,15.8077826 C11.6917871,15.8458466 11.7875027,15.9323773 11.8477496,16.0437226 C11.8994803,16.1393287 11.925144,16.2532418 11.9170026,16.371513 L11.910079,16.4309471 L10.2238395,22.8557284 C10.1994894,22.9758633 10.1378709,23.0761929 10.0543588,23.1467608 C9.97178147,23.2165389 9.86795084,23.2572775 9.75765576,23.2598672 C9.56863533,23.2074809 9.43261174,23.1195511 9.34864271,23.007687 C9.27263355,22.9064271 9.24162538,22.7865041 9.25075292,22.6624247 L9.25710783,22.6090356 L10.9427994,16.1863117 C10.9804463,16.0385638 11.0677729,15.9239138 11.1805898,15.8562927 C11.2951335,15.7876365 11.4354047,15.7675786 11.5732449,15.8077826 Z M13.3406662,17.3166253 C13.4412415,17.3112375 13.5426249,17.3408194 13.6321652,17.4045218 L13.6758898,17.4392124 L15.2412732,19.1427107 C15.3357731,19.2438574 15.3867902,19.3684601 15.3927072,19.4950005 C15.3977465,19.6027685 15.3700421,19.7114034 15.3103899,19.8073192 L15.2779053,19.8541543 L13.7165189,21.5292893 C13.6158057,21.6370863 13.4901514,21.692 13.3640229,21.692 C13.2378943,21.692 13.11224,21.6370863 13.0115268,21.5292893 C12.9170269,21.4281426 12.8660098,21.3035399 12.8600928,21.1769995 C12.8550533,21.0692261 12.8827607,20.9605858 12.942419,20.8646665 L12.974907,20.8178298 L14.1828075,19.520823 L13.0115268,18.2332893 C12.9108137,18.1254924 12.8595086,17.991 12.8595086,17.856 C12.8595086,17.721 12.9108137,17.5865076 13.0115268,17.4787107 C13.1060268,17.377564 13.2224413,17.3229585 13.3406662,17.3166253 Z M7.56397714,17.316 C7.69010571,17.316 7.81576002,17.3709137 7.91647317,17.4787107 C8.01141402,17.5803293 8.06187544,17.7116985 8.06788196,17.8449427 C8.07302401,17.9590099 8.04562897,18.0744833 7.98559841,18.173843 L7.95286305,18.2220989 L6.74342075,19.521098 L7.91647317,20.7427107 C8.01718632,20.8505076 8.06849143,20.985 8.06849143,21.12 C8.06849143,21.255 8.01718632,21.3894924 7.91647317,21.4972893 C7.81576002,21.6050863 7.69010571,21.66 7.56397714,21.66 C7.47336322,21.66 7.38291174,21.6316795 7.30182537,21.5756821 L7.25437098,21.5387676 L5.68672683,19.8652893 C5.59222692,19.7641426 5.54120982,19.6395399 5.53529277,19.5129995 C5.53025352,19.4052315 5.55795792,19.2965966 5.61761005,19.2006808 L5.65009475,19.1538457 L7.21148112,17.4787107 C7.31219427,17.3709137 7.43784857,17.316 7.56397714,17.316 Z M10.464,0.1 C11.8904982,0.1 13.1917655,0.722725616 14.1356082,1.72724729 C15.0765794,2.72871292 15.6623657,4.10979036 15.6623657,5.632 C15.6623657,7.16834847 15.0779482,8.55611734 14.1387225,9.56140483 C13.1946519,10.571878 11.8920803,11.196 10.464,11.196 C9.03750183,11.196 7.73623454,10.5732744 6.79239184,9.56875271 C5.85142059,8.56728708 5.26563429,7.18620964 5.26563429,5.664 C5.26563429,4.12765153 5.85005178,2.73988266 6.78927752,1.73459517 C7.73334814,0.72412203 9.03591965,0.1 10.464,0.1 Z M10.464,0.9 C9.23976454,0.9 8.12618941,1.43502001 7.31910395,2.29887294 C6.51329688,3.16135758 6.01306286,4.35155783 6.01306286,5.664 C6.01306286,6.96325142 6.5148604,8.14624346 7.32220359,9.0044434 C8.12961871,9.86271982 9.2425333,10.396 10.464,10.396 C11.6882355,10.396 12.8018106,9.86097999 13.608896,8.99712706 C14.4147031,8.13464242 14.9149371,6.94444217 14.9149371,5.632 C14.9149371,4.33274858 14.4131396,3.14975654 13.6057964,2.2915566 C12.7983813,1.43328018 11.6854667,0.9 10.464,0.9 Z" id="path-3"></path>
    </defs>
    <g id="10-Technologies" stroke="none" stroke-width="1" fill="none" fill-rule="evenodd">
        <g transform="translate(-771.000000, -3307.000000)" id="Our-Process">
            <g transform="translate(0.000000, 2994.000000)">
                <g id="Content-Copy" transform="translate(743.000000, 226.000000)">
                    <g id="Rows/-Row-Process-Copy-3" transform="translate(0.000000, 70.000000)">
                        <g id="Service-Icon/Design-Copy" transform="translate(28.962857, 17.000000)">
                            <mask id="mask-2" fill="white">
                                <use xlink:href="#path-1"></use>
                            </mask>
                            <g id="Mask"></g>
                            <g id="Color" mask="url(#mask-2)">
                                <g transform="translate(5.605714, 4.800000)">
                                    <mask id="mask-4" fill="white">
                                        <use xlink:href="#path-3"></use>
                                    </mask>
                                    <use id="Mask" fill="#000000" fill-rule="nonzero" xlink:href="#path-3"></use>
                                    <g mask="url(#mask-4)" id="Color/Primary">
                                        <g transform="translate(-15.000000, -12.000000)">
                                            <rect id="Base" fill="#F15924" x="0" y="0" width="54.928" height="51.6"></rect>
                                        </g>
                                    </g>
                                </g>
                            </g>
                        </g>
                    </g>
                </g>
            </g>
        </g>
    </g>
</svg>