<?xml version="1.0" encoding="UTF-8"?>
<svg width="36px" height="36px" viewBox="0 0 36 36" version="1.1" xmlns="http://www.w3.org/2000/svg" xmlns:xlink="http://www.w3.org/1999/xlink">
    <title>6E888903-236A-4DB4-BD6A-6F24D434A5CC</title>
    <defs>
        <rect id="path-1" x="0" y="0" width="36" height="36"></rect>
        <path d="M15.0633422,11.359143 L17.8324265,13.1322886 C18.114789,12.8949503 18.4307594,12.6912794 18.7759886,12.5291711 C19.6670827,12.1107427 20.6379964,12.0229806 21.5403758,12.2266599 C22.4484055,12.4316145 23.2870393,12.9316422 23.9050535,13.6867269 C23.9940787,13.7954972 24.0197875,13.9320049 23.9915144,14.0562357 C23.9667555,14.1650252 23.9005906,14.2644836 23.799031,14.3277519 L23.753356,14.3525728 L20.6495384,15.8100232 C20.5152018,15.8731032 20.4188131,15.9847663 20.3716404,16.1143722 C20.3244678,16.2439781 20.3265301,16.3914745 20.3888908,16.5261465 C20.4514005,16.66114 20.5626054,16.7576771 20.6918015,16.8047007 C20.802541,16.8450065 20.9265379,16.8489495 21.0445044,16.8094347 L21.1028958,16.786023 L24.2067134,15.3285727 C24.3337848,15.2689042 24.4716252,15.2772627 24.584066,15.3351862 C24.6965985,15.393157 24.7835973,15.5007108 24.8090685,15.6390526 C24.9862781,16.6015286 24.8274852,17.5702343 24.3995553,18.4027504 C23.9743444,19.2299768 23.2833583,19.922759 22.3920296,20.3412975 C21.6822321,20.674595 20.9182683,20.7995111 20.1766996,20.7310602 C19.4537305,20.6643261 18.7520582,20.413832 18.1426525,19.993569 L18.0135036,19.9009193 L17.0954369,20.3314511 L24.8716713,25.0293018 C24.9733383,25.0907171 25.0405525,25.1877842 25.0671408,25.2949958 C25.0893285,25.384463 25.0832413,25.481026 25.0451993,25.5699542 L25.0185101,25.622277 L23.3161158,28.4707291 C23.2551107,28.5728031 23.1587646,28.6404218 23.0522322,28.6671258 C22.9635803,28.6893477 22.8679061,28.6832195 22.779798,28.6451124 L22.7279578,28.6183817 L12.5462962,22.4676905 L8.69023733,24.2787849 C8.6419243,25.0773493 8.37450624,25.8375555 7.93097021,26.4810677 C7.50627382,27.0972461 6.9200762,27.6064162 6.21012211,27.9397872 C5.31902802,28.3582156 4.34811437,28.4459778 3.44573494,28.2422985 C2.53770521,28.0373439 1.69907144,27.5373161 1.08105729,26.7822315 C0.992032052,26.6734612 0.966323291,26.5369535 0.99459634,26.4127227 C1.0193552,26.3039331 1.0855201,26.2044747 1.18707973,26.1412065 L1.23275479,26.1163855 L4.33657234,24.6589352 C4.4709089,24.5958552 4.5672976,24.4841921 4.6144703,24.3545861 C4.66164299,24.2249802 4.65958065,24.0774838 4.59721992,23.9428119 C4.53471029,23.8078183 4.4235053,23.7112812 4.29430921,23.6642577 C4.18356971,23.6239518 4.05957287,23.6200089 3.94160639,23.6595237 L3.88321498,23.6829354 L0.779397391,25.1403856 C0.652325937,25.2000542 0.514485577,25.1916956 0.402044772,25.1337721 C0.289512234,25.0758014 0.20251347,24.9682475 0.177042204,24.8299058 C-0.00016738319,23.8674298 0.158625509,22.898724 0.586555426,22.066208 C1.01176636,21.2389815 1.70275248,20.5461994 2.59408111,20.1276609 C3.30387869,19.7943634 4.0678424,19.6694472 4.80941113,19.7378982 C5.53240083,19.8046342 6.23409259,20.0551407 6.84351043,20.4754253 L6.97266174,20.5680798 L8.33877998,19.9260258 L2.55514619,16.4323397 L0.212331338,13.0320733 C0.162965799,12.9589283 0.139143939,12.8799478 0.137021559,12.8025319 C0.134722704,12.7186789 0.157630824,12.6368897 0.199583738,12.566694 C0.241451141,12.4966413 0.302373056,12.4379919 0.376951149,12.4007379 C0.43193619,12.3732712 0.494293446,12.3576273 0.56162585,12.3573048 L0.61302054,12.3599903 L4.52413837,12.7842087 L6.19424793,13.746508 L9.92276491,11.359143 C10.7057428,11.7537777 11.5761528,11.9735975 12.4930554,11.9735975 C13.4099572,11.9735975 14.2803665,11.753778 15.0633422,11.359143 Z M16.1587069,20.7731737 L14.1778656,21.701746 L13.4842406,22.0270595 L22.8019717,27.6558727 L24.0620766,25.5474608 L16.1587069,20.7731737 Z M20.9713931,13.0054866 C20.3608827,12.9378609 19.7267632,13.0336335 19.1365109,13.3107965 C18.5240774,13.5983751 18.0268122,14.0493859 17.6825185,14.5949541 C17.3352014,15.1453131 17.1435794,15.7919127 17.1464747,16.4640195 C17.1468385,16.5484658 17.1226843,16.6292323 17.0793723,16.6978433 C17.0361021,16.7663879 16.9737034,16.8228085 16.8974886,16.8585965 L16.8974886,16.8585965 L7.09267825,21.4626119 L7.04631983,21.4811868 C6.98363137,21.5021703 6.91785424,21.5080751 6.85403159,21.4995489 C6.77433215,21.4889017 6.69769189,21.4557496 6.6339554,21.4014161 C6.1242723,20.9669266 5.50889947,20.6989798 4.86664745,20.6130874 C4.23014145,20.5279635 3.56721656,20.6216233 2.95460342,20.9092862 C2.36451851,21.1863706 1.8841569,21.6138171 1.54325837,22.1280972 C1.15984827,22.7065103 0.952921414,23.3947853 0.964693596,24.1024619 L0.964693596,24.1024619 L3.52269268,22.90131 L3.61069965,22.8635473 C3.93555089,22.7369923 4.28229591,22.7407561 4.58971163,22.8526462 C4.92507424,22.9747082 5.21357811,23.2254302 5.37581513,23.5757914 C5.53820107,23.9264742 5.54336972,24.3105315 5.42055023,24.6479753 C5.29773074,24.985419 5.04690408,25.2763016 4.69709465,25.4405606 L4.69709465,25.4405606 L2.14072863,26.6409457 L2.24855744,26.7312825 C2.75931541,27.1415147 3.37401375,27.3925015 4.01471767,27.4634717 C4.62522805,27.5310974 5.25934755,27.4353249 5.84959985,27.1581619 C6.46203336,26.8705833 6.95929852,26.4195724 7.30359221,25.8740043 C7.65090932,25.3236453 7.84253129,24.6770456 7.83963599,24.0049389 C7.8392722,23.9204925 7.8634264,23.8397261 7.90673849,23.771115 C7.95000868,23.7025704 8.01240737,23.6461498 8.0886221,23.6103619 L8.0886221,23.6103619 L12.3897425,21.5873605 L16.0153225,19.8882596 L17.8934332,19.0063462 L17.9397913,18.9877714 C18.0024794,18.9667881 18.0682565,18.9608832 18.1320792,18.9694094 C18.2117786,18.9800566 18.2884188,19.0132088 18.3521553,19.0675422 C18.8618384,19.5020317 19.4772113,19.7699786 20.1194633,19.8558709 C20.7559693,19.9409948 21.4188942,19.847335 22.0315073,19.5596721 C22.6215922,19.2825877 23.1019538,18.8551413 23.4428524,18.3408612 C23.8262625,17.7624481 24.0331893,17.074173 24.0214171,16.3664964 L24.0214171,16.3664964 L21.4634181,17.5676484 L21.3754111,17.6054111 C21.0505599,17.731966 20.7038148,17.7282023 20.3963991,17.6163121 C20.0610365,17.4942501 19.7725326,17.2435282 19.6102956,16.893167 C19.4479097,16.5424841 19.442741,16.1584269 19.5655605,15.8209831 C19.68838,15.4835393 19.9392067,15.1926567 20.2890161,15.0283978 L20.2890161,15.0283978 L22.8453821,13.8280127 L22.7375533,13.7376759 C22.2267953,13.3274437 21.612097,13.0764568 20.9713931,13.0054866 Z M1.44289727,13.3186985 L3.07746653,15.7406434 L9.26724728,19.4797814 L11.9419077,18.2258791 L4.33845065,13.632764 L1.44289727,13.3186985 Z M9.99123402,12.3388914 L7.01640588,14.2433642 L12.8880951,17.7898993 L16.2958724,16.1901897 L16.3094313,16.0208524 C16.3879015,15.233096 16.6774985,14.4786058 17.1104176,13.6937914 C16.5815083,13.3549061 15.8936668,12.9144371 14.937743,12.3622397 C14.1634871,12.674456 13.3384357,12.8372963 12.4930554,12.8372963 C11.6268471,12.8372963 10.7819819,12.6663333 9.99123402,12.3388914 L9.99123402,12.3388914 Z M12.4930554,0.12 C13.9258232,0.12 15.2207392,0.724036801 16.1580628,1.69888122 C17.0985244,2.67698921 17.6791483,4.02825409 17.6791483,5.51849432 C17.6791483,7.00873455 17.0985244,8.35999943 16.1580628,9.33810743 C15.2207392,10.3129518 13.9258232,10.9169886 12.4930554,10.9169886 C11.0602875,10.9169886 9.76537153,10.3129518 8.82804792,9.33810743 C7.88758635,8.35999943 7.30696249,7.00873455 7.30696249,5.51849432 C7.30696249,4.02825409 7.88758635,2.67698921 8.82804792,1.69888122 C9.76537153,0.724036801 11.0602875,0.12 12.4930554,0.12 Z M12.4930554,0.983698864 C11.2984796,0.983698864 10.2145995,1.49152752 9.4300333,2.31459515 C8.64902004,3.13393543 8.16477481,4.26580148 8.16477481,5.51849432 C8.16477481,6.77118716 8.64902004,7.90305321 9.4300333,8.72239349 C10.2145995,9.54546112 11.2984796,10.0532898 12.4930554,10.0532898 C13.6876311,10.0532898 14.7715112,9.54546112 15.5560774,8.72239349 C16.3370907,7.90305321 16.8213359,6.77118716 16.8213359,5.51849432 C16.8213359,4.26580148 16.3370907,3.13393543 15.5560774,2.31459515 C14.7715112,1.49152752 13.6876311,0.983698864 12.4930554,0.983698864 L12.4930554,0.983698864 Z" id="path-3"></path>
    </defs>
    <g id="09-Industry-Landing-Page" stroke="none" stroke-width="1" fill="none" fill-rule="evenodd">
        <g id="09-Industries---Fintech---ALT" transform="translate(-672.000000, -5145.000000)">
            <g id="Our-Process" transform="translate(0.000000, 4554.000000)">
                <g id="Content" transform="translate(604.000000, 106.000000)">
                    <g id="Rows/-Row-Process" transform="translate(37.000000, 468.000000)">
                        <g id="Service-Icon/Design" transform="translate(31.000000, 17.000000)">
                            <mask id="mask-2" fill="white">
                                <use xlink:href="#path-1"></use>
                            </mask>
                            <g id="Mask"></g>
                            <g id="Color" mask="url(#mask-2)">
                                <g transform="translate(5.210811, 3.551351)">
                                    <mask id="mask-4" fill="white">
                                        <use xlink:href="#path-3"></use>
                                    </mask>
                                    <use id="Mask" stroke="none" fill="#000000" fill-rule="nonzero" xlink:href="#path-3"></use>
                                    <g id="Group" stroke="none" stroke-width="1" fill="none" fill-rule="evenodd" mask="url(#mask-4)">
                                        <g transform="translate(-13.000000, -9.000000)" id="Color/Primary" fill="#F15924">
                                            <rect id="Base" x="0" y="0" width="52.2" height="46.8"></rect>
                                        </g>
                                    </g>
                                </g>
                            </g>
                        </g>
                    </g>
                </g>
            </g>
        </g>
    </g>
</svg>