<?xml version="1.0" encoding="UTF-8"?>
<svg width="35px" height="36px" viewBox="0 0 35 36" version="1.1" xmlns="http://www.w3.org/2000/svg" xmlns:xlink="http://www.w3.org/1999/xlink">
    <title>0FEEDFBF-67B6-4B5B-87D4-122EE0D395BD</title>
    <defs>
        <rect id="path-1" x="0" y="0" width="33.6342857" height="36"></rect>
        <path d="M22.1548762,9.3777163 L22.3431354,9.432671 L22.9695548,9.61568898 C24.0552748,9.96177464 24.9692555,10.6620869 25.6187259,11.5806675 C26.2422354,12.4625302 26.6219356,13.5454198 26.6764046,14.7090236 L26.6818087,14.8681859 L26.6831323,19.5599792 L22.3668,19.5595792 L22.3668,21.36 L4.48457143,21.36 L4.48457143,19.5595789 L0.224228571,19.5599789 L0.224228571,15 C0.224228571,13.771041 0.586661834,12.6193211 1.22010269,11.6816713 C1.82460781,10.7868535 2.6758701,10.0871463 3.69368669,9.7013382 L3.83350469,9.65068482 L4.75296673,9.37815873 L6.92282971,11.7006973 C7.27779407,11.4461845 7.66476572,11.2313866 8.07539852,11.0641836 L8.25280832,10.9954621 L8.43742102,10.9311575 L9.23712631,10.6977156 L13.4537143,15.2108831 L17.6743386,10.6933953 L17.8667566,10.7551809 L18.4295994,10.9359196 C18.9252807,11.0991644 19.3874197,11.3285806 19.8080385,11.613537 L19.9638087,11.7229784 L22.1548762,9.3777163 Z M9.03742763,11.5022046 L8.62314461,11.6229144 L8.48480613,11.6706473 C7.52368998,12.01837 6.71608039,12.6500961 6.1369041,13.475116 C5.538037,14.3281849 5.18299319,15.3884141 5.15725714,16.5571421 L5.15725714,16.5571421 L5.15725714,20.64 L21.6941143,20.64 L21.6941143,16.56 L21.6920227,16.407399 C21.6627876,15.3425238 21.3280805,14.3491864 20.7507273,13.5260371 C20.1516914,12.671974 19.2908787,12.0007154 18.2372336,11.6258435 L18.2372336,11.6258435 L17.86589,11.5066047 L13.4537143,16.2291169 L9.03742763,11.5022046 Z M4.55288109,10.1822489 L4.13446009,10.304279 L3.9995353,10.3495673 C3.10701011,10.6655098 2.35513225,11.2603816 1.81466986,12.0452013 C1.2550942,12.8577758 0.921932083,13.8745889 0.896914286,14.997107 L0.896914286,14.997107 L0.896914286,18.8400286 L4.48457143,18.8395714 L4.48457143,16.56 L4.48653602,16.4020681 C4.5283734,14.7222271 5.23606576,13.1981436 6.38285418,12.1405833 L6.38285418,12.1405833 L4.55288109,10.1822489 Z M22.3544862,10.1822811 L20.5004415,12.1670483 L20.6049353,12.267482 C21.6714541,13.3188661 22.3250777,14.7896147 22.3668,16.5629963 L22.3668,16.5629963 L22.3668,18.8395719 L26.0105143,18.8400281 L26.0105143,15 L26.0081466,14.8391562 C25.9782109,13.8240027 25.6654647,12.8775137 25.1298773,12.0973156 C24.5704585,11.2824021 23.7676133,10.6484588 22.7879589,10.3088161 L22.7879589,10.3088161 L22.3544862,10.1822811 Z M18.1625143,0.24 C19.1523607,0.24 20.0492451,0.670319738 20.6986875,1.36544156 C21.3481298,2.06056338 21.7501714,3.02053136 21.7501714,4.08 C21.7501714,5.13946864 21.3481298,6.09943662 20.6986875,6.79455844 C20.0492451,7.48968026 19.1523607,7.92 18.1625143,7.92 C17.6054493,7.92 17.0941381,7.80627977 16.6444697,7.56798605 C15.6826943,8.53969225 14.6315269,9.12 13.4537143,9.12 C12.2758702,9.12 11.2246877,8.53965682 10.5360492,7.63162359 C9.81316936,7.8063163 9.30191199,7.92 8.74491429,7.92 C7.75506788,7.92 6.8581835,7.48968026 6.20874111,6.79455844 C5.55929873,6.09943662 5.15725714,5.13946864 5.15725714,4.08 C5.15725714,3.02053136 5.55929873,2.06056338 6.20874111,1.36544156 C6.8581835,0.670319738 7.75506788,0.24 8.74491429,0.24 C9.78249888,0.24 10.7467681,0.708562503 11.3994877,1.5062286 C12.2038234,1.25332523 12.8098643,1.08 13.4537143,1.08 C14.0976398,1.08 14.703744,1.25336865 15.2334141,1.55902808 C16.1607096,0.708524181 17.1249628,0.24 18.1625143,0.24 Z M13.4537143,1.8 C12.6023279,1.8 11.8315422,2.16936508 11.2736031,2.76654762 C10.7156639,3.36373016 10.3705714,4.18873016 10.3705714,5.1 C10.3705714,6.01126984 10.7156639,6.83626984 11.2736031,7.43345238 C11.8315422,8.03063492 12.6023279,8.4 13.4537143,8.4 C14.3051007,8.4 15.0758864,8.03063492 15.6338255,7.43345238 C16.1917646,6.83626984 16.5368571,6.01126984 16.5368571,5.1 C16.5368571,4.18873016 16.1917646,3.36373016 15.6338255,2.76654762 C15.0758864,2.16936508 14.3051007,1.8 13.4537143,1.8 L13.4537143,1.8 Z M8.74491429,0.96 C7.94095446,0.96 7.21216923,1.30966969 6.68440174,1.87455844 C6.15663425,2.43944719 5.82994286,3.21949254 5.82994286,4.08 C5.82994286,4.94050746 6.15663425,5.72055281 6.68440174,6.28544156 C7.21216923,6.85033031 7.94095446,7.2 8.74491429,7.2 C9.17043419,7.2 9.54664707,7.12178917 9.87317753,6.96809194 C9.94165645,6.93585905 10.0093262,6.89965853 10.0761672,6.85947613 C10.0454986,6.79214774 10.0166126,6.72406384 9.98959385,6.65532646 C9.80154178,6.17690965 9.69788571,5.65140943 9.69788571,5.1 C9.69788571,3.97872452 10.126786,2.96467157 10.8185617,2.23553016 C10.8684266,2.18297181 10.9196534,2.13189797 10.9721791,2.08237418 C10.9253976,2.01931058 10.8760032,1.95840165 10.8242634,1.89975343 C10.303561,1.30952474 9.55567695,0.96 8.74491429,0.96 Z M18.1625143,0.96 C17.3518043,0.96 16.6039496,1.30947022 16.0826923,1.89983804 C16.0309292,1.95846404 15.9815083,2.01934381 15.9345196,2.08229997 C15.9870703,2.1319893 16.0384206,2.1831306 16.088405,2.23576567 C16.7806658,2.96473681 17.2095429,3.97876182 17.2095429,5.1 C17.2095429,5.65145793 17.1058695,6.17700194 16.9181202,6.65545608 C16.8911908,6.72408201 16.8624042,6.79206421 16.8317615,6.85931473 C16.898485,6.89959315 16.9660927,6.93580985 17.0345017,6.96804696 C17.3606986,7.12176432 17.7369476,7.2 18.1625143,7.2 C18.9664741,7.2 19.6952593,6.85033031 20.2230268,6.28544156 C20.7507943,5.72055281 21.0774857,4.94050746 21.0774857,4.08 C21.0774857,3.21949254 20.7507943,2.43944719 20.2230268,1.87455844 C19.6952593,1.30966969 18.9664741,0.96 18.1625143,0.96 Z" id="path-3"></path>
    </defs>
    <g id="10-Technologies" stroke="none" stroke-width="1" fill="none" fill-rule="evenodd">
        <g transform="translate(-771.000000, -3237.000000)" id="Our-Process">
            <g transform="translate(0.000000, 2994.000000)">
                <g id="Content-Copy" transform="translate(743.000000, 226.000000)">
                    <g id="Service-Icon/Design" transform="translate(28.962857, 17.000000)">
                        <mask id="mask-2" fill="white">
                            <use xlink:href="#path-1"></use>
                        </mask>
                        <g id="Mask"></g>
                        <g id="Color" mask="url(#mask-2)">
                            <g transform="translate(3.373529, 7.551351)">
                                <mask id="mask-4" fill="white">
                                    <use xlink:href="#path-3"></use>
                                </mask>
                                <use id="Mask" stroke="none" fill="#000000" fill-rule="nonzero" xlink:href="#path-3"></use>
                                <g id="Color" stroke="none" stroke-width="1" fill="none" fill-rule="evenodd" mask="url(#mask-4)">
                                    <g transform="translate(-9.000000, -19.000000)" id="Color/Primary">
                                        <rect id="Base" fill="#F15924" x="0" y="0" width="44.9074286" height="57.6"></rect>
                                    </g>
                                </g>
                            </g>
                        </g>
                    </g>
                </g>
            </g>
        </g>
    </g>
</svg>