<?xml version="1.0" encoding="UTF-8"?>
<svg viewBox="0 0 20 14" version="1.1" xmlns="http://www.w3.org/2000/svg" xmlns:xlink="http://www.w3.org/1999/xlink">
    <!-- Generator: sketchtool 56.3 (101010) - https://sketch.com -->
    <title>35E059F1-CE11-4DF7-B5F5-293495097CCF</title>
    <desc>Created with sketchtool.</desc>
    <path fill="#F15924" shape-rendering="geometricPrecision" d="M3.06760848,11.0730994 C3.06760848,10.7865497 3.28960646,10.5614035 3.57214934,10.5614035 L8.21392533,10.5614035 C8.49646821,10.5614035 8.7184662,10.7865497 8.7184662,11.0730994 L8.7184662,11.1549708 L11.2815338,11.1549708 L11.2815338,11.0730994 C11.2815338,10.7865497 11.5035318,10.5614035 11.7860747,10.5614035 L16.4480323,10.5614035 C16.7305752,10.5614035 16.9525732,10.7865497 16.9525732,11.0730994 C16.9525732,11.3596491 16.7305752,11.5847953 16.4480323,11.5847953 L12.209889,11.5847953 C12.0484359,11.9327485 11.7053481,12.1783626 11.2815338,12.1783626 L8.73864783,12.1783626 C8.33501514,12.1783626 7.97174571,11.9327485 7.81029263,11.5847953 L3.57214934,11.5847953 C3.30978809,11.5847953 3.06760848,11.3596491 3.06760848,11.0730994 Z M0,12.0350877 L0,11.0730994 C0,10.7865497 0.221997982,10.5614035 0.504540868,10.5614035 L1.4530777,10.5614035 L1.4530777,1.33040936 C1.4530777,0.593567251 2.03834511,0 2.76488396,0 L17.1947528,0 C17.90111,0 18.4863774,0.552631579 18.5469223,1.28947368 C18.5469223,1.30994152 18.5469223,1.33040936 18.5469223,1.33040936 L18.5469223,10.5614035 L19.4954591,10.5614035 C19.778002,10.5614035 20,10.7865497 20,11.0730994 L20,12.0350877 C20,13.119883 19.1321897,14 18.0625631,14 L1.93743693,14 C0.867810293,14 0,13.119883 0,12.0350877 Z M1.00908174,12.0350877 C1.00908174,12.5467836 1.43289606,12.9766082 1.93743693,12.9766082 L18.0827447,12.9766082 C18.5872856,12.9766082 19.0110999,12.5467836 19.0110999,12.0350877 L19.0110999,11.5847953 L18.0625631,11.5847953 C17.7800202,11.5847953 17.5580222,11.3596491 17.5580222,11.0730994 L17.5580222,1.37134503 C17.5378406,1.1871345 17.3763875,1.02339181 17.2149344,1.02339181 L2.76488396,1.02339181 C2.60343088,1.02339181 2.46215943,1.16666667 2.46215943,1.33040936 L2.46215943,11.0730994 C2.46215943,11.3596491 2.24016145,11.5847953 1.95761857,11.5847953 L1.00908174,11.5847953 L1.00908174,12.0350877 Z M6.43794147,6.61111111 C6.3370333,6.50877193 6.29667003,6.38596491 6.29667003,6.24269006 C6.29667003,6.0994152 6.35721493,5.97660819 6.43794147,5.87426901 L7.68920283,4.62573099 C7.89101917,4.42105263 8.21392533,4.42105263 8.39556004,4.62573099 L9.22300706,5.48538012 L11.7053481,2.96783626 C11.9071645,2.76315789 12.2300706,2.76315789 12.4117053,2.96783626 L13.6427851,4.23684211 C13.8446014,4.44152047 13.8446014,4.76900585 13.6427851,4.95321637 L9.58627649,9.0877193 C9.48536831,9.19005848 9.36427851,9.23099415 9.22300706,9.23099415 C9.22300706,9.23099415 9.22300706,9.23099415 9.22300706,9.23099415 C9.08173562,9.23099415 8.96064581,9.16959064 8.85973764,9.0877193 L6.43794147,6.61111111 Z M7.50756811,6.24269006 L9.22300706,7.98245614 L12.5933401,4.58479532 L12.0686176,4.05263158 L9.58627649,6.57017544 C9.38446014,6.7748538 9.06155399,6.7748538 8.87991927,6.57017544 L8.05247225,5.71052632 L7.50756811,6.24269006 Z" id="path-1"></path>
</svg>
