<?xml version="1.0" encoding="UTF-8"?>
<svg width="35px" height="36px" viewBox="0 0 35 36" version="1.1" xmlns="http://www.w3.org/2000/svg" xmlns:xlink="http://www.w3.org/1999/xlink">
    <title>1D9C49F2-F347-403A-B4D9-B45579CA820D</title>
    <defs>
        <rect id="path-1" x="0" y="0" width="33.6342857" height="36"></rect>
        <path d="M10.7296514,4.32301176 C12.5350373,4.32301176 14.1695476,5.10306341 15.3526851,6.36436828 C16.5354977,7.62532673 17.2671599,9.36730168 17.2671599,11.2914824 C17.2671599,12.8969747 16.757827,14.3756527 15.9019868,15.5538592 C15.0239813,16.7625801 13.7814525,17.6552436 12.350065,18.0442881 L12.1959874,18.0840357 L12.1957891,19.8811875 L13.8862914,19.8812816 L13.8862914,25.0476471 C13.8862914,25.987358 13.5387993,26.8287078 12.9702014,27.4348718 C12.401281,28.0413795 11.6115863,28.4118824 10.7296514,28.4118824 C9.84771649,28.4118824 9.05802177,28.0413795 8.48910139,27.4348718 C7.94634878,26.8562607 7.60505839,26.0633584 7.57515338,25.1751669 L7.57301138,25.0476471 L7.57301138,19.8812816 L9.26326515,19.8811875 L9.26337315,18.0840498 C7.76710501,17.7186267 6.46669804,16.80577 5.55732383,15.5538701 C4.70147889,14.3756617 4.19214281,12.8969796 4.19214281,11.2914824 C4.19214281,9.36730168 4.92380506,7.62532673 6.10661763,6.36436828 C7.28975514,5.10306341 8.92426542,4.32301176 10.7296514,4.32301176 Z M13.2077923,20.6027059 L8.25151042,20.6027059 L8.25151042,25.0476471 L8.25401645,25.1706414 C8.28232138,25.8630831 8.54875337,26.4768823 8.96950688,26.9254341 C9.41468946,27.4000289 10.0334884,27.6904706 10.7296514,27.6904706 C11.4258144,27.6904706 12.0446133,27.4000289 12.4897959,26.9254341 C12.9352996,26.4504969 13.2077923,25.7902996 13.2077923,25.0476471 L13.2077923,25.0476471 L13.2077923,20.6027059 Z M11.0689009,24.6869412 L11.0689009,25.4083529 L10.3904019,25.4083529 L10.3904019,24.6869412 L11.0689009,24.6869412 Z M11.0689009,22.2841176 L11.0689009,23.0055294 L10.3904019,23.0055294 L10.3904019,22.2841176 L11.0689009,22.2841176 Z M11.5174842,18.2098856 C11.2592011,18.24295 10.9962892,18.2599529 10.7296514,18.2599529 C10.462992,18.2599529 10.2000591,18.2429473 9.94175578,18.2098856 L9.94175578,18.2098856 L9.94154001,19.8812 L11.5170945,19.8812 L11.5174842,18.2098856 Z M10.7296514,5.04442353 C9.11183338,5.04442353 7.64721414,5.7435704 6.58702312,6.87380596 C5.52650715,8.00438794 4.87064185,9.56629534 4.87064185,11.2914824 C4.87064185,13.0166694 5.52650715,14.5785768 6.58702312,15.7091587 C7.64721414,16.8393943 9.11183338,17.5385412 10.7296514,17.5385412 C12.3474694,17.5385412 13.8120886,16.8393943 14.8722796,15.7091587 C15.9327956,14.5785768 16.5886609,13.0166694 16.5886609,11.2914824 C16.5886609,9.56629534 15.9327956,8.00438794 14.8722796,6.87380596 C13.8120886,5.7435704 12.3474694,5.04442353 10.7296514,5.04442353 L10.7296514,5.04442353 Z M11.3485936,8.39119774 L11.9867906,8.63612782 L10.1107092,14.191767 L9.47251215,13.9468369 L11.3485936,8.39119774 Z M13.1566117,9.34326605 L14.980328,11.2874714 L13.1578624,13.2930166 L12.6711621,12.7903753 L14.0295812,11.2954933 L12.6774759,9.85405732 L13.1566117,9.34326605 Z M8.30269105,9.34326605 L8.78182685,9.85405732 L7.42972152,11.2954933 L8.78814064,12.7903753 L8.30144035,13.2930166 L6.47897476,11.2874714 L8.30269105,9.34326605 Z M4.75277905,17.0923719 L5.23191485,17.6031632 L3.57748408,19.3668987 L3.09834829,18.8561074 L4.75277905,17.0923719 Z M16.7065237,17.0923719 L18.3609545,18.8561074 L17.8818187,19.3668987 L16.2273879,17.6031632 L16.7065237,17.0923719 Z M3.12820803,14.2268306 L3.37573387,14.8985234 L2.2156212,15.384393 L1.96809536,14.7127001 L3.12820803,14.2268306 Z M18.3310947,14.2268306 L19.4912074,14.7127001 L19.2436816,15.384393 L18.0835689,14.8985234 L18.3310947,14.2268306 Z M2.61672947,10.8707059 L2.61672947,11.5921176 L0.247796139,11.5921176 L0.247796139,10.8707059 L2.61672947,10.8707059 Z M21.2115066,10.8707059 L21.2115066,11.5921176 L18.8425733,11.5921176 L18.8425733,10.8707059 L21.2115066,10.8707059 Z M2.2156212,7.07843056 L3.37573387,7.56430009 L3.12820803,8.23599297 L1.96809536,7.75012344 L2.2156212,7.07843056 Z M19.2436816,7.07843056 L19.4912074,7.75012344 L18.3310947,8.23599297 L18.0835689,7.56430009 L19.2436816,7.07843056 Z M3.57748408,3.09592488 L5.23191485,4.85966033 L4.75277905,5.37045159 L3.09834829,3.60671614 L3.57748408,3.09592488 Z M17.8818187,3.09592488 L18.3609545,3.60671614 L16.7065237,5.37045159 L16.2273879,4.85966033 L17.8818187,3.09592488 Z M7.46496302,1.8913948 L7.92024056,3.12684836 L7.2889504,3.39124049 L6.83367286,2.15578693 L7.46496302,1.8913948 Z M13.9943397,1.8913948 L14.6256299,2.15578693 L14.1703524,3.39124049 L13.5390622,3.12684836 L13.9943397,1.8913948 Z M11.0689009,0.058 L11.0689009,2.58152941 L10.3904019,2.58152941 L10.3904019,0.058 L11.0689009,0.058 Z" id="path-3"></path>
    </defs>
    <g id="10-Technologies" stroke="none" stroke-width="1" fill="none" fill-rule="evenodd">
        <g transform="translate(-73.000000, -3643.000000)" id="Our-Process">
            <g transform="translate(0.000000, 2994.000000)">
                <g id="Content" transform="translate(45.000000, 226.000000)">
                    <g id="Rows/-Row-Process" transform="translate(0.000000, 406.000000)">
                        <g id="Service-Icon/Design" transform="translate(28.962857, 17.000000)">
                            <mask id="mask-2" fill="white">
                                <use xlink:href="#path-1"></use>
                            </mask>
                            <g id="Mask"></g>
                            <g id="Color" mask="url(#mask-2)">
                                <g transform="translate(5.605714, 3.600000)">
                                    <mask id="mask-4" fill="white">
                                        <use xlink:href="#path-3"></use>
                                    </mask>
                                    <use id="Mask" stroke="none" fill="#000000" fill-rule="nonzero" xlink:href="#path-3"></use>
                                    <g id="Color" stroke="none" stroke-width="1" fill="none" fill-rule="evenodd" mask="url(#mask-4)">
                                        <g transform="translate(-66.294118, -61.941176)" id="Color/Primary">
                                            <rect id="Base" fill="#F15924" x="0" y="0" width="160.419361" height="152.682353"></rect>
                                        </g>
                                    </g>
                                </g>
                            </g>
                        </g>
                    </g>
                </g>
            </g>
        </g>
    </g>
</svg>