<?xml version="1.0" encoding="UTF-8"?>
<svg width="35px" height="36px" viewBox="0 0 35 36" version="1.1" xmlns="http://www.w3.org/2000/svg" xmlns:xlink="http://www.w3.org/1999/xlink">
    <title>A44D9D04-D0BC-4481-92E9-05432E2A4899</title>
    <defs>
        <rect id="path-1" x="0" y="0" width="33.6342857" height="36"></rect>
        <path d="M19.0543383,16.7389666 C20.8922293,16.7389666 22.5564281,17.5439374 23.7611759,18.8450675 C24.9661659,20.1464591 25.7115429,21.9441926 25.7115429,23.9294833 C25.7115429,25.914774 24.9661659,27.7125075 23.7611759,29.0138991 C22.5564281,30.3150291 20.8922293,31.12 19.0543383,31.12 C17.2164472,31.12 15.5522484,30.3150291 14.3475006,29.0138991 C13.1425106,27.7125075 12.3971336,25.914774 12.3971336,23.9294833 C12.3971336,21.9441926 13.1425106,20.1464591 14.3475006,18.8450675 C15.5522484,17.5439374 17.2164472,16.7389666 19.0543383,16.7389666 Z M19.0543383,17.5272948 C17.4238948,17.5272948 15.9415941,18.2475129 14.8669562,19.408124 C13.7925611,20.5684728 13.125728,22.1689636 13.125728,23.9294833 C13.125728,25.6900029 13.7925611,27.2904937 14.8669562,28.4508426 C15.9415941,29.6114536 17.4238948,30.3316717 19.0543383,30.3316717 C20.6958942,30.3316717 22.175161,29.6145963 23.2455135,28.4586134 C24.3204666,27.2976619 24.9829485,25.6939729 24.9829485,23.9294833 C24.9829485,22.1689636 24.3161154,20.5684728 23.2417203,19.408124 C22.1670824,18.2475129 20.6847817,17.5272948 19.0543383,17.5272948 L19.0543383,17.5272948 Z M22.6251973,20.7693617 C22.722914,20.7693617 22.8207424,20.8087287 22.8940718,20.8879246 C22.9618893,20.9611677 22.9987798,21.0512444 23.0035871,21.1428521 C23.0073994,21.2154986 22.991016,21.2887835 22.9548763,21.3548836 L22.9240741,21.4029893 L17.5030466,27.2614088 L15.2731433,24.8531088 C15.2002331,24.7743656 15.163086,24.6761211 15.163086,24.5775076 C15.163086,24.4788941 15.2002331,24.3806496 15.2731433,24.3019064 C15.3407237,24.2289194 15.4238001,24.189101 15.5083542,24.1839255 C15.5753489,24.1798248 15.6429045,24.1975049 15.70384,24.2363935 L15.7481881,24.2695275 L17.4736878,26.1292217 L22.3563228,20.8879246 C22.4296523,20.8087287 22.5274807,20.7693617 22.6251973,20.7693617 Z M9.68815048,0.08 C11.1685626,0.08 12.5085938,0.716742994 13.4867835,1.75099554 C14.4673085,2.78771726 15.0842683,4.22379805 15.1148346,5.81679904 L15.1148346,5.81679904 L15.116108,7.38212766 L17.8835648,7.38212766 C18.2599565,7.38212766 18.603758,7.54376943 18.8585232,7.8055833 C19.1148569,8.06900899 19.2811802,8.43389955 19.2997182,8.83429619 L19.2997182,8.83429619 L19.3015581,15.5525836 C19.3015581,15.6577713 19.2583351,15.7560035 19.1915007,15.8281848 C19.1249141,15.9000985 19.0343357,15.9467477 18.9372609,15.9467477 C18.8469004,15.9467477 18.7621428,15.9062848 18.6971553,15.8427136 C18.6317994,15.7787822 18.5859747,15.6911041 18.5753202,15.595069 L18.5753202,15.595069 L18.5729637,8.91428571 C18.5729637,8.71384449 18.5066282,8.53743274 18.3960103,8.40675593 C18.2835376,8.27388795 18.1249175,8.1878109 17.9412144,8.17279443 L17.9412144,8.17279443 L14.4167179,8.17050447 L14.4167179,5.94285714 C14.4167179,4.54583819 13.8889038,3.27727626 13.0376977,2.35797201 C12.1862491,1.43840577 11.0112897,0.868328267 9.71741982,0.868328267 C8.44448023,0.868328267 7.28663766,1.42011137 6.43871674,2.31361982 C5.58886839,3.20915934 5.05042845,4.447957 5.01950522,5.82001106 L5.01950522,5.82001106 L5.01816727,8.17045593 L1.52200551,8.17045593 C1.33605664,8.17045593 1.17236798,8.24215494 1.05112834,8.3618622 C0.928327978,8.48311046 0.84866459,8.65406677 0.834770536,8.85212472 L0.834770536,8.85212472 L0.832606583,24.087538 C0.832606583,24.2879792 0.898942113,24.464391 1.00955998,24.5950678 C1.12203568,24.7279393 1.2806613,24.8140174 1.46437068,24.8290305 L1.46437068,24.8290305 L11.297964,24.8313678 C11.398468,24.8313678 11.4984262,24.8806727 11.5727854,24.9559615 C11.6430863,25.0271413 11.6915305,25.1226634 11.6915305,25.2255319 C11.6915305,25.3234717 11.6540222,25.4154021 11.5949291,25.4858643 C11.5359392,25.5562035 11.4550909,25.6056454 11.366457,25.6171504 L11.366457,25.6171504 L1.52200551,25.619696 C1.14868401,25.619696 0.807457283,25.4607014 0.550129734,25.2061668 C0.287714902,24.9466002 0.112251361,24.5875605 0.0793571051,24.1952265 L0.0793571051,24.1952265 L0.0747428571,8.91428571 C0.0747428571,8.5074185 0.224452102,8.13572164 0.467106893,7.86030794 C0.710804924,7.58371017 1.04833238,7.40411718 1.41870038,7.38411471 L1.41870038,7.38411471 L4.26025802,7.382074 L4.26025802,5.94285714 C4.26025802,4.32113269 4.86658903,2.85529158 5.84841689,1.79491553 C6.83000292,0.734800652 8.18689508,0.08 9.68815048,0.08 Z M9.68815048,15.4745289 C10.1644717,15.4745289 10.5850307,15.6707314 10.8863264,15.9961313 C11.18786,16.3217882 11.3695678,16.7763789 11.3695678,17.2911854 C11.3695678,17.6892551 11.2403341,18.0872441 11.0198481,18.4039055 L10.9628474,18.4813295 L10.9031506,20.9728875 L8.44577318,20.9728875 L8.44577318,18.5581758 C8.15318172,18.1889349 8.00673313,17.7558978 8.00673313,17.2911854 C8.00673313,16.7915227 8.19602813,16.3373022 8.50095054,16.0079854 C8.80563017,15.6789308 9.22583638,15.4745289 9.68815048,15.4745289 Z M9.68815048,16.2312462 C9.42819611,16.2312462 9.18483944,16.3477477 9.01316395,16.539551 C8.84863052,16.7233749 8.74965276,16.9761368 8.76459747,17.2618687 C8.76519311,17.6089558 8.90108573,17.8682474 9.20363691,18.151304 L9.20363691,18.151304 L9.20363691,20.1213374 L10.1726641,20.1213374 L10.2912151,18.0488757 L10.345128,17.9957005 C10.5352035,17.7957455 10.6409734,17.5417976 10.6409734,17.2595745 C10.6409734,16.968302 10.5373052,16.7116464 10.3668708,16.5275769 C10.1961984,16.3432504 9.95819734,16.2312462 9.68815048,16.2312462 Z M9.68815048,2.57726444 C10.5712789,2.57726444 11.3718068,2.9708051 11.9586704,3.60816267 C12.5224962,4.22050029 12.8892147,5.05780858 12.9431718,5.98637326 L12.9487399,6.11963171 L12.9500545,7.94917933 L6.42618894,7.94917933 L6.42618894,6.22735562 C6.42618894,5.22080682 6.79190357,4.30711758 7.38376184,3.64548112 C7.97350958,2.986204 8.78791008,2.57726444 9.68815048,2.57726444 Z M9.68815048,3.36559271 C9.00560554,3.36559271 8.38108856,3.68007692 7.92243833,4.19900786 C7.47000554,4.7109042 7.17906957,5.42195524 7.15477968,6.22477081 L7.15477968,6.22477081 L7.15477968,7.16085106 L12.2215176,7.16085106 L12.2215176,6.22735562 L12.2191755,6.10284668 C12.1911684,5.3600228 11.9137449,4.69516181 11.4822232,4.20692484 C11.021472,3.68561686 10.3851269,3.36559271 9.68815048,3.36559271 L9.68815048,3.36559271 Z" id="path-3"></path>
    </defs>
    <g id="10-Technologies" stroke="none" stroke-width="1" fill="none" fill-rule="evenodd">
        <g transform="translate(-73.000000, -3713.000000)" id="Our-Process">
            <g transform="translate(0.000000, 2994.000000)">
                <g id="Content" transform="translate(45.000000, 226.000000)">
                    <g id="Rows/-Row-Process" transform="translate(0.000000, 476.000000)">
                        <g id="Service-Icon/Design" transform="translate(28.962857, 17.000000)">
                            <mask id="mask-2" fill="white">
                                <use xlink:href="#path-1"></use>
                            </mask>
                            <g id="Mask"></g>
                            <g id="Color" mask="url(#mask-2)">
                                <g transform="translate(4.251000, 2.400000)">
                                    <mask id="mask-4" fill="white">
                                        <use xlink:href="#path-3"></use>
                                    </mask>
                                    <use id="Mask" stroke="none" fill="#000000" fill-rule="nonzero" xlink:href="#path-3"></use>
                                    <g id="Color" stroke="none" stroke-width="1" fill="none" fill-rule="evenodd" mask="url(#mask-4)">
                                        <g transform="translate(-17.000000, -12.000000)" id="Color/Primary">
                                            <rect id="Base" fill="#F15924" x="0" y="0" width="58.0362857" height="54.075"></rect>
                                        </g>
                                    </g>
                                </g>
                            </g>
                        </g>
                    </g>
                </g>
            </g>
        </g>
    </g>
</svg>