<?xml version="1.0" encoding="UTF-8"?>
<svg width="35px" height="36px" viewBox="0 0 35 36" version="1.1" xmlns="http://www.w3.org/2000/svg" xmlns:xlink="http://www.w3.org/1999/xlink">
    <title>69900682-A17A-4C90-B999-6AF3104ABB9A</title>
    <defs>
        <rect id="path-1" x="0" y="0" width="33.6342857" height="36"></rect>
        <path d="M11.9420155,0.185170555 C12.0366083,0.1944266 12.1003723,0.215059269 12.1524305,0.248509205 L12.1824138,0.270128764 L18.5765266,6.77353926 C18.6447854,6.85833081 18.6793742,6.9277307 18.6940372,6.99757855 L18.7005539,7.03966773 L18.7030869,21.7765881 C18.6794294,22.548107 18.3973053,23.2282459 17.9518543,23.7229167 C17.5269368,24.1947852 16.9534813,24.4977419 16.3164395,24.550065 L16.2033775,24.5566802 L2.87079577,24.5582471 C2.15292803,24.5328903 1.52004136,24.2298087 1.0597245,23.7512464 C0.620522169,23.2946354 0.338548364,22.67837 0.289841808,21.9937093 L0.28368347,21.8721955 L0.282224897,2.96679214 C0.305828977,2.19528125 0.587921154,1.5151486 1.03335132,1.0204798 C1.45825671,0.548604622 2.03171538,0.245643373 2.6687644,0.193319651 L2.78182763,0.186704461 L11.9420155,0.185170555 Z M11.6319916,1.04102853 L2.78769575,1.04306192 L2.69501931,1.05022476 C2.26563356,1.0953528 1.88096841,1.30316225 1.59396382,1.62582775 C1.29404257,1.96301483 1.10063516,2.42583634 1.07782044,2.9597082 L1.07782044,2.9597082 L1.07964249,21.8658111 L1.08630905,21.9653283 C1.12831232,22.4264124 1.32175203,22.8395285 1.62209764,23.147774 C1.93604426,23.4699783 2.36697975,23.6777565 2.86412701,23.7022796 L2.86412701,23.7022796 L16.1975026,23.7003227 L16.2901798,23.6931599 C16.7195689,23.6480318 17.104234,23.4402224 17.3912386,23.1175569 C17.6911599,22.7803698 17.8845673,22.3175483 17.9074408,21.7836764 L17.9074408,21.7836764 L17.9074408,7.47771179 L13.0472609,7.47565273 L12.959643,7.46817134 C12.6118145,7.42718307 12.2969877,7.25449937 12.0615266,6.98818421 C11.8114037,6.70528594 11.6509757,6.3169538 11.6319061,5.86879263 L11.6319061,5.86879263 L11.6319916,1.04102853 Z M10.0135671,11.7086184 L10.0641124,11.713015 C10.1740485,11.7428493 10.2612997,11.8018598 10.3200616,11.8794639 C10.3693841,11.9446018 10.3983249,12.0226545 10.4038977,12.106104 L10.4044134,12.1567613 L9.37179113,19.483802 C9.34468586,19.5982296 9.29308211,19.6893807 9.22516532,19.7522617 C9.1570847,19.8152944 9.07282467,19.8494275 8.98256531,19.8503403 C8.85325283,19.8309011 8.75115064,19.7756883 8.68199951,19.6973374 C8.62294148,19.6304224 8.58850027,19.5469079 8.58157508,19.4568208 L8.58074508,19.4020601 L9.61341895,12.0749774 C9.64294179,11.9493944 9.70399789,11.8509525 9.78378231,11.7877739 C9.83712599,11.7455328 9.89870487,11.7193033 9.96398443,11.7112329 L10.0135671,11.7086184 Z M11.8938882,13.1658516 C11.9637414,13.1644739 12.0336753,13.1827694 12.0958921,13.2203394 L12.1409859,13.2521245 L13.9110263,15.5019204 C13.9679761,15.592233 13.9978527,15.6841261 14.0020747,15.7719575 C14.0054767,15.842732 13.992075,15.9105875 13.9634243,15.9721341 L13.9391014,16.0170582 L12.2073744,18.2383222 C12.1023633,18.349049 12.0042952,18.393119 11.9009192,18.393119 C11.8081496,18.393119 11.7183305,18.358631 11.6457377,18.2931732 C11.5673811,18.2225394 11.5204164,18.1258286 11.5072289,18.0242212 C11.4963046,17.9400511 11.508549,17.8524993 11.5453916,17.7736038 L11.5704603,17.7274016 L13.0887915,15.7794069 L11.5985062,13.8713137 C11.5304338,13.7633693 11.5021653,13.6488081 11.5107905,13.5427645 C11.5195252,13.4353746 11.5662896,13.3373542 11.6457405,13.2657169 C11.7179627,13.2005974 11.8058651,13.1675878 11.8938882,13.1658516 Z M7.07119412,13.1660192 C7.16559797,13.162706 7.26142277,13.1953525 7.33946193,13.2657169 C7.4178069,13.3363571 7.46476761,13.4330771 7.4779553,13.5346901 C7.48887902,13.6188591 7.47663992,13.7064075 7.43980451,13.7852956 L7.41474025,13.831493 L5.8964109,15.7794858 L7.3866962,17.687579 C7.45476863,17.7955234 7.48303714,17.9100846 7.47441195,18.0161282 C7.46567725,18.1235181 7.4189128,18.2215385 7.33946063,18.2931769 C7.26687213,18.3586308 7.17705291,18.393119 7.08428318,18.393119 C7.00061501,18.393119 6.91930084,18.3650808 6.85171595,18.3126972 L6.81290352,18.2783752 L5.07421516,16.0570341 C5.01723994,15.9667016 4.98735065,15.8747866 4.98312777,15.7869352 C4.97972575,15.7161607 4.99312741,15.6483052 5.02177813,15.5867586 L5.04610107,15.5418345 L6.77786292,13.3205257 C6.88068556,13.2116786 6.97474072,13.1694043 7.07119412,13.1660192 Z M12.4274066,1.69359304 L12.4297916,5.93494258 L12.4378945,6.00292639 C12.46346,6.15939325 12.5352018,6.29993427 12.6439845,6.40792459 C12.7617246,6.52480724 12.9232197,6.60379105 13.1172851,6.62171561 L13.1172851,6.62171561 L17.269836,6.62183406 L12.4274066,1.69359304 Z" id="path-3"></path>
    </defs>
    <g id="10-Technologies" stroke="none" stroke-width="1" fill="none" fill-rule="evenodd">
        <g transform="translate(-771.000000, -3447.000000)" id="Our-Process">
            <g transform="translate(0.000000, 2994.000000)">
                <g id="Content-Copy" transform="translate(743.000000, 226.000000)">
                    <g id="Rows/-Row-Process" transform="translate(0.000000, 210.000000)">
                        <g id="Service-Icon/Design" transform="translate(28.962857, 17.000000)">
                            <mask id="mask-2" fill="white">
                                <use xlink:href="#path-1"></use>
                            </mask>
                            <g id="Mask"></g>
                            <g id="Color" mask="url(#mask-2)">
                                <g transform="translate(7.240714, 5.600000)">
                                    <mask id="mask-4" fill="white">
                                        <use xlink:href="#path-3"></use>
                                    </mask>
                                    <use id="Mask" stroke="none" fill="#979797" fill-rule="nonzero" xlink:href="#path-3"></use>
                                    <g id="Color" stroke="none" stroke-width="1" fill="none" fill-rule="evenodd" mask="url(#mask-4)">
                                        <g transform="translate(-25.000000, -19.000000)" id="Color/Primary">
                                            <rect id="Base" fill="#F15924" x="0" y="0" width="69.3094286" height="63.675"></rect>
                                        </g>
                                    </g>
                                </g>
                            </g>
                        </g>
                    </g>
                </g>
            </g>
        </g>
    </g>
</svg>