<?xml version="1.0" encoding="UTF-8"?>
<svg width="35px" height="36px" viewBox="0 0 35 36" version="1.1" xmlns="http://www.w3.org/2000/svg" xmlns:xlink="http://www.w3.org/1999/xlink">
    <title>6E903B67-BB38-4F87-B760-CA39ECF9C045</title>
    <defs>
        <rect id="path-1" x="0" y="0" width="33.6342857" height="36"></rect>
        <path d="M5.17742198,0.150669967 C5.24959862,0.154985958 5.32090678,0.180004433 5.37880742,0.227010112 L5.41183858,0.257862262 L11.96129,7.26891199 L16.7384774,2.22560736 C16.8219818,2.15376899 16.8889172,2.12537177 16.9628359,2.11801913 C17.1016461,1.87856915 17.1356857,1.80045626 17.1922855,1.7398674 C17.7543178,1.13796607 18.5012562,0.806535476 19.2960729,0.806535476 C20.0910988,0.806535476 20.8379669,1.13785727 21.3998604,1.7398674 C21.9798648,2.36074985 22.2698229,3.17631108 22.2698254,3.99184637 C22.2698279,4.8073835 21.9798734,5.62294348 21.3997774,6.24392421 C21.3406782,6.30737517 21.2632858,6.34452728 21.1791302,6.35347496 C21.0519315,6.57128891 21.0124492,6.65449926 20.9644216,6.71230649 L20.951039,6.72752432 L16.2362755,11.7737589 L22.7800021,18.8508872 C22.8502378,18.9439006 22.8852746,19.0461026 22.8852746,19.1440145 C22.8852746,19.2252555 22.8608494,19.302834 22.8141718,19.3676885 L22.7835123,19.4050019 L17.9948152,24.5325483 C17.899164,24.6164166 17.8188477,24.65 17.7343708,24.65 C17.6541062,24.65 17.5764773,24.62148 17.5133808,24.5697431 L17.4773619,24.5359574 L10.9290234,17.526099 L6.60660293,22.0807539 L2.24988336,23.8461278 C1.9456753,23.9539586 1.76072998,23.9881401 1.5917448,23.9881401 C1.2821699,23.9881401 1.04975121,23.8772361 0.885724005,23.7013191 C0.741877402,23.5473343 0.646719211,23.347172 0.621397916,23.0958047 C0.60004389,22.8838209 0.62774842,22.6369783 0.714518829,22.3519553 L0.74984599,22.2432754 L2.2955211,17.752069 L6.65427799,13.0212319 L0.110000166,5.94298229 C0.0397632063,5.84996796 0.00472558476,5.74776512 0.00472558476,5.64985246 C0.00472558476,5.5686113 0.0291505663,5.49103282 0.0758312108,5.426175 L0.106492868,5.38885925 L4.89403059,0.26174588 C4.99611422,0.174597741 5.08722503,0.145276405 5.17742198,0.150669967 Z M15.654712,12.394931 L11.4411809,16.9776031 L12.7700134,18.3210505 L14.1638233,16.8332076 L14.2082186,16.8013331 C14.2696096,16.7640125 14.339046,16.7473995 14.4075961,16.7514101 C14.4938544,16.7564567 14.578746,16.7942258 14.6445237,16.8647297 C14.7155601,16.9407727 14.7510605,17.0403585 14.7510635,17.1399439 C14.7510665,17.2395287 14.7155727,17.3391108 14.6445872,17.4150992 L14.6445872,17.4150992 L13.282725,18.9471761 L15.2271366,20.9530083 L16.6213446,19.4647412 L16.6657399,19.4328667 C16.727131,19.395546 16.7965673,19.3789331 16.8651174,19.3829437 C16.9513757,19.3879903 17.0362673,19.4257593 17.102045,19.4962632 C17.1730814,19.5723062 17.2085818,19.671892 17.2085848,19.7714775 C17.2085879,19.8710623 17.173094,19.9706443 17.1021085,20.0466328 L17.1021085,20.0466328 L15.7405476,21.5783959 L17.7691189,23.6739463 L21.9787513,19.0932694 L15.654712,12.394931 Z M16.9654725,3.08374237 L12.2329828,8.15042647 L7.46180628,13.2595595 L2.96430688,18.0730493 L1.41140831,22.5754954 L1.39047153,22.6497857 C1.32868621,22.8908002 1.34594793,23.0651656 1.41248585,23.159411 C1.50368638,23.2211658 1.715262,23.2274131 1.99531861,23.1169211 L1.99531861,23.1169211 L5.62299583,21.6076901 L4.0357597,19.9039768 L4.00598003,19.8564276 C3.97110997,19.7906916 3.95557945,19.7163986 3.95932701,19.6430423 C3.96404403,19.5507096 3.99936409,19.4598407 4.06525923,19.3893013 C4.13617394,19.3132913 4.22922547,19.2753322 4.32226383,19.2753289 C4.41530165,19.2753256 4.50834965,19.3132778 4.57921347,19.3892333 L4.57921347,19.3892333 L6.36983631,21.2328829 L10.647803,16.6533553 L20.1470008,6.41596068 L16.9654725,3.08374237 Z M5.12118534,1.11849433 L0.910185294,5.70121719 L2.93796589,7.79647547 L4.33147178,6.30895701 L4.3758527,6.27708444 C4.43722061,6.23976554 4.50662023,6.22315146 4.57515109,6.22716338 C4.66142261,6.23221387 4.7463446,6.27001599 4.81223524,6.34055054 C4.88322023,6.41653847 4.91871423,6.51611949 4.91871423,6.61570134 C4.91871423,6.71528319 4.88322023,6.81486421 4.81223524,6.89085215 L4.81223524,6.89085215 L3.45138179,8.42185184 L5.39631256,10.4282261 L6.79029583,8.93972603 L6.83473914,8.90787228 C6.8961771,8.87057525 6.96559768,8.85397054 7.03414238,8.85798322 C7.12044636,8.86303556 7.20538206,8.90083653 7.27133115,8.97134324 C7.3422718,9.04728376 7.37775232,9.14692652 7.37774928,9.24656546 C7.37774623,9.34620499 7.34225923,9.44585153 7.27126765,9.52184652 L7.27126765,9.52184652 L5.90903309,11.0546282 L7.2375452,12.3986675 L11.4475312,7.81873896 L5.12118534,1.11849433 Z M19.2963248,1.58519195 C18.6738517,1.58519195 18.0883818,1.85213881 17.5330088,2.52368996 L17.5330088,2.52368996 L20.8212184,5.76034736 L20.9036574,5.67451499 C21.3300107,5.20774441 21.5432287,4.59994452 21.5432287,3.99212291 C21.5432287,3.37590414 21.3240826,2.75970893 20.885872,2.29046999 C20.4613503,1.83574096 19.8966174,1.58519195 19.2963248,1.58519195 Z" id="path-3"></path>
    </defs>
    <g id="10-Technologies" stroke="none" stroke-width="1" fill="none" fill-rule="evenodd">
        <g transform="translate(-73.000000, -3320.000000)" id="Our-Process">
            <g transform="translate(0.000000, 2994.000000)">
                <g id="Content" transform="translate(45.000000, 226.000000)">
                    <g id="Rows/-Row-Process" transform="translate(0.000000, 84.000000)">
                        <g id="Service-Icon/Design" transform="translate(28.962857, 16.000000)">
                            <mask id="mask-2" fill="white">
                                <use xlink:href="#path-1"></use>
                            </mask>
                            <g id="Mask"></g>
                            <g id="Color" mask="url(#mask-2)">
                                <g transform="translate(5.232000, 4.800000)">
                                    <g transform="translate(0.140143, 0.000000)">
                                        <mask id="mask-4" fill="white">
                                            <use xlink:href="#path-3"></use>
                                        </mask>
                                        <use id="Mask" fill="#979797" fill-rule="nonzero" xlink:href="#path-3"></use>
                                        <g mask="url(#mask-4)" id="Color/Primary">
                                            <g transform="translate(-20.000000, -18.000000)">
                                                <rect id="Base" fill="#F15924" x="0" y="0" width="62.4202857" height="63.675"></rect>
                                            </g>
                                        </g>
                                    </g>
                                </g>
                            </g>
                        </g>
                    </g>
                </g>
            </g>
        </g>
    </g>
</svg>